<svg width="500" height="373" viewBox="0 0 500 373" fill="none" xmlns="http://www.w3.org/2000/svg">
<path d="M500 327.45H0V327.7H500V327.45Z" fill="#EBEBEB"/>
<path d="M449.899 343.54H428.219V343.79H449.899V343.54Z" fill="#EBEBEB"/>
<path d="M344.669 338.35H310.559V338.6H344.669V338.35Z" fill="#EBEBEB"/>
<path d="M441.12 334.26H396.59V334.51H441.12V334.26Z" fill="#EBEBEB"/>
<path d="M173.019 339.3H161.879V339.55H173.019V339.3Z" fill="#EBEBEB"/>
<path d="M152.97 339.3H114.58V339.55H152.97V339.3Z" fill="#EBEBEB"/>
<path d="M94.0086 335.08H66.3086V335.33H94.0086V335.08Z" fill="#EBEBEB"/>
<path d="M237.011 282.85H43.9209C40.7709 282.85 38.2109 280.29 38.2109 277.14V5.71C38.2109 2.56 40.7709 0 43.9209 0H237.021C240.171 0 242.731 2.56 242.731 5.71V277.14C242.721 280.29 240.161 282.85 237.011 282.85ZM43.9209 0.25C40.9109 0.25 38.4609 2.7 38.4609 5.71V277.14C38.4609 280.15 40.9109 282.6 43.9209 282.6H237.021C240.031 282.6 242.481 280.15 242.481 277.14V5.71C242.481 2.7 240.031 0.25 237.021 0.25H43.9209Z" fill="#EBEBEB"/>
<path d="M453.31 282.85H260.21C257.06 282.85 254.5 280.29 254.5 277.14V5.71C254.5 2.56 257.06 0 260.21 0H453.31C456.46 0 459.02 2.56 459.02 5.71V277.14C459.02 280.29 456.46 282.85 453.31 282.85ZM260.21 0.25C257.2 0.25 254.75 2.7 254.75 5.71V277.14C254.75 280.15 257.2 282.6 260.21 282.6H453.31C456.32 282.6 458.77 280.15 458.77 277.14V5.71C458.77 2.7 456.32 0.25 453.31 0.25H260.21Z" fill="#EBEBEB"/>
<path d="M216.069 145.93L216.519 132.79L208.449 130.15C208.119 125.66 207.369 121.23 206.299 116.95L213.139 111.91L208.489 99.57L200.029 100.25C198.009 96.26 195.639 92.46 192.989 88.9L197.369 81.59L188.359 71.98L180.799 75.85C177.389 72.96 173.799 70.33 169.959 68.02L171.179 59.63L159.179 54.18L153.679 60.62C149.489 59.26 145.149 58.24 140.659 57.57L138.619 49.34L125.439 48.89L122.839 56.96C118.309 57.33 113.919 58.04 109.639 59.11L104.559 52.31L92.2191 56.92L92.8991 65.38C88.9091 67.43 85.1091 69.8 81.5491 72.45L74.2691 68.07L64.6191 77.04L68.4891 84.64C65.5991 88.01 62.9691 91.64 60.6891 95.48L52.2991 94.22L46.8191 106.22L53.2991 111.72C51.9391 115.91 50.8891 120.28 50.2491 124.74L41.9891 126.82L41.5391 139.96L49.6391 142.6C49.9691 147.12 50.7191 151.52 51.7891 155.79L44.9491 160.83L49.5991 173.17L58.0591 172.49C60.0791 176.48 62.4491 180.28 65.0991 183.84L60.7191 191.15L69.7291 200.76L77.2891 196.89C80.6591 199.78 84.2891 202.41 88.1291 204.73L86.8691 213.12L98.8691 218.57L104.399 212.13C108.589 213.49 112.929 214.51 117.419 215.18L119.459 223.41L132.639 223.86L135.239 215.79C139.759 215.42 144.159 214.71 148.429 213.64L153.469 220.44L165.809 215.83L165.159 207.37C169.149 205.32 172.909 202.95 176.509 200.29L183.789 204.67L193.439 195.7L189.569 188.1C192.459 184.73 195.089 181.1 197.369 177.26L205.759 178.52L211.239 166.52L204.759 161.02C206.119 156.83 207.169 152.49 207.809 148L216.069 145.93ZM127.279 188.5C98.4991 187.51 75.9691 163.38 76.9491 134.6C77.9391 105.79 102.069 83.25 130.849 84.24C159.629 85.23 182.159 109.36 181.179 138.17C180.189 166.95 156.049 189.48 127.279 188.5Z" fill="#EBEBEB"/>
<path d="M440.96 102.47L444.27 99.38L442.95 96.77C443.96 95.59 444.86 94.33 445.64 93.03L448.54 93.47L450.42 89.33L448.19 87.43C448.67 85.97 449.02 84.46 449.24 82.95L452.09 82.24L452.24 77.7L449.45 76.8C449.33 75.26 449.09 73.75 448.72 72.25L451.07 70.5L449.47 66.25L446.56 66.48C445.87 65.13 445.06 63.82 444.13 62.56L445.64 60.06L442.54 56.74L439.94 58.07C438.75 57.06 437.5 56.16 436.2 55.38L436.62 52.48L432.49 50.59L430.59 52.82C429.12 52.35 427.61 52 426.1 51.78L425.39 48.94L420.85 48.78L419.94 51.58C418.41 51.7 416.89 51.94 415.39 52.32L413.65 49.97L409.39 51.56L409.63 54.48C408.28 55.17 406.95 55.98 405.71 56.91L403.19 55.4L399.88 58.49L401.21 61.11C400.19 62.29 399.3 63.55 398.52 64.85L395.62 64.41L393.74 68.55L395.97 70.45C395.49 71.91 395.14 73.42 394.92 74.93L392.07 75.64L391.92 80.18L394.71 81.08C394.83 82.61 395.07 84.13 395.44 85.63L393.09 87.37L394.69 91.62L397.61 91.4C398.3 92.75 399.11 94.06 400.04 95.32L398.53 97.82L401.63 101.14L404.23 99.81C405.42 100.82 406.67 101.72 407.97 102.5L407.54 105.39L411.67 107.28L413.57 105.06C415.04 105.53 416.54 105.87 418.06 106.1L418.77 108.94L423.31 109.1L424.22 106.3C425.75 106.18 427.27 105.94 428.77 105.56L430.51 107.91L434.77 106.32L434.53 103.4C435.88 102.71 437.2 101.91 438.45 100.97L440.96 102.47ZM417.34 83.34C414.9 80.73 415.04 76.63 417.65 74.2C420.26 71.76 424.36 71.9 426.8 74.51C429.24 77.12 429.1 81.22 426.48 83.66C423.87 86.09 419.78 85.95 417.34 83.34Z" fill="#EBEBEB"/>
<path d="M319.991 237.38L309.651 230.24C309.651 230.23 309.651 230.22 309.641 230.22C308.621 226.46 307.211 222.85 305.481 219.45L308.131 209.05L293.131 192.99L282.571 194.92C279.301 192.97 275.791 191.31 272.121 190.04C272.111 190.04 272.101 190.04 272.091 190.03L265.671 179.22L243.711 178.47L236.571 188.81C236.561 188.81 236.541 188.82 236.531 188.82C232.781 189.84 229.161 191.25 225.771 192.97L215.381 190.32L199.321 205.32L201.251 215.86C201.251 215.86 201.251 215.87 201.241 215.87C199.251 219.18 197.631 222.69 196.361 226.36L185.551 232.78L184.801 254.75L195.151 261.9C196.171 265.68 197.541 269.29 199.301 272.72L196.661 283.09L211.661 299.15L222.151 297.23C225.461 299.19 228.981 300.84 232.701 302.12H232.711L239.121 312.91L261.081 313.66L268.221 303.33C272.021 302.31 275.641 300.9 279.071 299.17L289.421 301.81L305.481 286.81L303.551 276.27C305.541 272.96 307.161 269.45 308.431 265.77L319.241 259.35L319.991 237.38ZM251.541 270.77C237.891 270.3 227.221 258.84 227.691 245.22C228.161 231.57 239.581 220.9 253.241 221.37C266.891 221.84 277.561 233.26 277.091 246.92C276.621 260.53 265.191 271.24 251.541 270.77Z" fill="#EBEBEB"/>
<path d="M343.55 175C343.53 175 343.5 175 343.48 175L326.16 174.41C325.44 174.39 324.78 174 324.42 173.38L319.76 165.53C317.28 164.63 314.84 163.5 312.48 162.15L304.97 163.52C304.26 163.65 303.54 163.41 303.05 162.88L291.22 150.22C290.73 149.69 290.54 148.95 290.72 148.26L292.61 140.85C291.46 138.5 290.5 136 289.75 133.38L282.22 128.18C281.63 127.77 281.28 127.09 281.31 126.37L281.9 109.05C281.92 108.33 282.31 107.67 282.93 107.31L290.8 102.64C291.73 100.09 292.86 97.65 294.17 95.39L292.79 87.86C292.66 87.15 292.9 86.43 293.43 85.94L306.1 74.11C306.63 73.62 307.37 73.43 308.06 73.61L315.49 75.51C317.9 74.34 320.39 73.38 322.94 72.64L328.14 65.11C328.55 64.52 329.22 64.15 329.95 64.2L347.27 64.79C347.99 64.81 348.65 65.2 349.01 65.82L353.68 73.69C356.16 74.6 358.59 75.73 360.91 77.06L368.46 75.68C369.17 75.55 369.89 75.79 370.38 76.32L382.21 88.99C382.7 89.52 382.89 90.26 382.71 90.95L380.81 98.39C381.98 100.8 382.94 103.29 383.68 105.84L391.2 111.04C391.79 111.45 392.13 112.13 392.11 112.85L391.52 130.17C391.5 130.89 391.11 131.55 390.49 131.91L382.62 136.58C381.69 139.13 380.56 141.56 379.25 143.82L380.63 151.36C380.76 152.07 380.52 152.79 379.99 153.28L367.33 165.1C366.8 165.59 366.07 165.78 365.37 165.6L357.97 163.71C355.53 164.89 353.02 165.85 350.48 166.58L345.29 174.1C344.89 174.66 344.24 175 343.55 175ZM327.46 170.23L342.47 170.74L347.44 163.54C347.72 163.13 348.15 162.83 348.63 162.7C351.39 161.96 354.14 160.91 356.78 159.57C356.78 159.57 356.79 159.57 356.79 159.56C357.23 159.34 357.75 159.28 358.25 159.41L365.29 161.2L376.27 150.95L374.96 143.78C374.87 143.27 374.96 142.75 375.23 142.31C376.68 139.91 377.91 137.27 378.88 134.48C379.04 133.98 379.38 133.57 379.82 133.31L387.34 128.84L387.85 113.83L380.65 108.86C380.27 108.6 379.99 108.22 379.85 107.79C379.83 107.74 379.82 107.68 379.8 107.62C379.05 104.86 378 102.15 376.69 99.57C376.46 99.11 376.4 98.59 376.53 98.09L378.33 91.01L368.08 80.03L360.89 81.35C360.39 81.44 359.87 81.35 359.43 81.09C356.93 79.6 354.29 78.37 351.58 77.42C351.43 77.37 351.27 77.3 351.14 77.21C350.85 77.03 350.61 76.78 350.43 76.49L345.96 68.96L330.95 68.45L325.98 75.65C325.68 76.08 325.24 76.38 324.74 76.5C321.96 77.26 319.26 78.3 316.69 79.61C316.23 79.84 315.71 79.9 315.21 79.77L308.13 77.97L297.15 88.22L298.46 95.39C298.54 95.84 298.48 96.31 298.27 96.71C298.24 96.77 298.21 96.82 298.17 96.88C296.72 99.29 295.49 101.94 294.52 104.74C294.36 105.21 294.03 105.61 293.6 105.86L286.07 110.33L285.56 125.34L292.77 130.32C293.18 130.6 293.48 131.02 293.61 131.51C294.39 134.39 295.43 137.12 296.72 139.63C296.79 139.77 296.85 139.93 296.89 140.08C296.97 140.42 296.97 140.77 296.89 141.11L295.09 148.16L305.34 159.14L312.48 157.83C312.98 157.74 313.5 157.83 313.93 158.09C316.47 159.59 319.13 160.83 321.82 161.76C322.31 161.91 322.73 162.24 322.99 162.69L327.46 170.23ZM336.73 151.26C336.36 151.26 335.99 151.25 335.62 151.24C318.17 150.64 304.47 135.96 305.06 118.52C305.66 101.07 320.36 87.37 337.78 87.96C355.23 88.56 368.93 103.24 368.34 120.68C368.05 129.12 364.49 136.95 358.31 142.72C352.4 148.25 344.77 151.26 336.73 151.26ZM336.69 92.17C321.99 92.17 309.79 103.87 309.28 118.67C308.76 133.79 320.64 146.51 335.76 147.03C343.09 147.28 350.07 144.66 355.43 139.65C360.78 134.65 363.87 127.86 364.12 120.55C364.64 105.43 352.76 92.71 337.64 92.19C337.32 92.17 337.01 92.17 336.69 92.17Z" fill="#EBEBEB"/>
<path d="M383.44 50.37L376.27 48.44L374.34 41.27L377.15 38.46L380.11 44.6L386.25 47.56L383.44 50.37Z" fill="#E0E0E0"/>
<path d="M383.878 45.57C385.188 44.26 385.188 42.13 383.878 40.83C382.568 39.52 380.448 39.53 379.148 40.84L382.718 35.49L387.508 37.91L388.558 42.94L383.878 45.57Z" fill="#E0E0E0"/>
<path d="M376.58 39.03L381.84 33.77L389.01 35.7L390.94 42.87L385.68 48.13L378.51 46.2L376.58 39.03ZM386.13 43.33C387.44 42.02 387.44 39.89 386.13 38.59C384.82 37.28 382.7 37.29 381.4 38.6C380.09 39.91 380.09 42.02 381.4 43.32C382.7 44.62 384.82 44.63 386.13 43.33Z" fill="#F0F0F0"/>
<path d="M90.219 241.76L94.069 240.72L95.099 236.87L93.599 235.37L92.009 238.66L88.709 240.25L90.219 241.76Z" fill="#E0E0E0"/>
<path d="M89.9805 239.18C89.2805 238.48 89.2805 237.34 89.9805 236.63C90.6805 235.93 91.8205 235.93 92.5205 236.64L90.6105 233.77L88.0405 235.07L87.4805 237.77L89.9805 239.18Z" fill="#E0E0E0"/>
<path d="M93.8992 235.67L91.0792 232.85L87.2292 233.88L86.1992 237.73L89.0192 240.55L92.8692 239.52L93.8992 235.67ZM88.7792 237.98C88.0792 237.28 88.0792 236.14 88.7792 235.43C89.4792 234.73 90.6192 234.73 91.3192 235.44C92.0192 236.14 92.0192 237.27 91.3192 237.98C90.6192 238.67 89.4792 238.68 88.7792 237.98Z" fill="#F0F0F0"/>
<path d="M76.3595 30.71L79.5495 33.9C80.3795 34.73 81.7395 34.73 82.5795 33.9C83.4095 33.07 83.4095 31.71 82.5795 30.88L79.3895 27.69C78.5595 26.86 77.1995 26.86 76.3695 27.69C75.5295 28.52 75.5295 29.88 76.3595 30.71Z" fill="#F0F0F0"/>
<path d="M74.1102 22.75C76.5702 21.87 79.2402 23.02 80.0702 25.33C80.9002 27.64 79.5802 30.23 77.1202 31.12C74.6602 32 71.9902 30.85 71.1602 28.54C70.3302 26.23 71.6502 23.64 74.1102 22.75Z" fill="#E0E0E0"/>
<path d="M70.6365 28.0016L71.0996 29.2909L80.6047 25.8771L80.1417 24.5878L70.6365 28.0016Z" fill="#F0F0F0"/>
<path d="M249.999 372.61C357.082 372.61 443.889 367.542 443.889 361.29C443.889 355.038 357.082 349.97 249.999 349.97C142.917 349.97 56.1094 355.038 56.1094 361.29C56.1094 367.542 142.917 372.61 249.999 372.61Z" fill="#F5F5F5"/>
<path d="M86.7208 65.69C85.7208 61.29 86.1708 57.58 88.0608 54.57C89.9608 51.56 93.0908 49.56 97.4708 48.56C101.961 47.54 105.691 47.96 108.671 49.82C111.651 51.68 113.631 54.78 114.621 59.12C115.341 62.27 115.391 64.98 114.791 67.24C114.191 69.5 113.011 71.42 111.261 73C109.511 74.58 107.141 75.71 104.141 76.39C101.101 77.08 98.4708 77.17 96.2608 76.65C94.0508 76.13 92.0808 74.97 90.3708 73.15C88.6508 71.33 87.4308 68.85 86.7208 65.69ZM95.0608 63.84C95.6808 66.56 96.6308 68.41 97.9108 69.36C99.1908 70.32 100.701 70.6 102.451 70.2C104.241 69.79 105.491 68.9 106.211 67.51C106.931 66.12 106.941 63.92 106.261 60.9C105.681 58.36 104.751 56.62 103.461 55.68C102.171 54.74 100.651 54.47 98.8908 54.87C97.2108 55.25 95.9908 56.15 95.2508 57.57C94.5008 59 94.4308 61.09 95.0608 63.84Z" fill="#474747"/>
<path d="M118.59 62.39C117.91 59.41 118.36 56.72 119.93 54.33C121.5 51.94 124 50.36 127.42 49.58C131.33 48.69 134.55 49.15 137.06 50.97C139.08 52.43 140.4 54.5 141.01 57.18C141.69 60.19 141.26 62.88 139.7 65.25C138.14 67.62 135.6 69.21 132.08 70.01C128.94 70.72 126.22 70.51 123.92 69.35C121.1 67.92 119.32 65.6 118.59 62.39ZM126.1 60.67C126.5 62.41 127.14 63.62 128.04 64.29C128.93 64.96 129.92 65.18 130.98 64.94C132.06 64.69 132.85 64.08 133.36 63.1C133.87 62.12 133.91 60.72 133.5 58.91C133.11 57.22 132.48 56.03 131.59 55.37C130.7 54.7 129.74 54.48 128.71 54.72C127.62 54.97 126.81 55.59 126.29 56.6C125.77 57.59 125.71 58.95 126.1 60.67Z" fill="#474747"/>
<path d="M148.581 73.61L142.451 46.63L149.461 45.04L150.121 47.93C150.811 46.5 151.521 45.47 152.231 44.86C153.191 44.04 154.331 43.47 155.661 43.17C158.271 42.58 160.521 43.12 162.401 44.79C164.281 46.46 165.561 48.77 166.231 51.72C166.971 54.97 166.751 57.63 165.591 59.69C164.421 61.76 162.651 63.06 160.271 63.6C159.121 63.86 158.021 63.9 156.981 63.73C155.941 63.55 154.961 63.16 154.031 62.56L156.151 71.89L148.581 73.61ZM152.191 54.76C152.541 56.31 153.131 57.38 153.951 57.98C154.771 58.58 155.681 58.77 156.671 58.54C157.541 58.34 158.191 57.82 158.621 56.97C159.051 56.12 159.061 54.83 158.671 53.12C158.311 51.54 157.741 50.45 156.961 49.84C156.181 49.24 155.351 49.04 154.461 49.24C153.501 49.46 152.791 50.01 152.321 50.91C151.851 51.79 151.811 53.08 152.191 54.76Z" fill="#474747"/>
<path d="M169.431 55.35L176.701 52.96C177.211 53.77 177.781 54.31 178.421 54.56C179.061 54.81 179.841 54.84 180.761 54.63C181.771 54.4 182.501 54.01 182.951 53.46C183.311 53.04 183.431 52.6 183.321 52.12C183.201 51.58 182.821 51.23 182.191 51.06C181.741 50.94 180.611 50.93 178.791 51.02C176.091 51.16 174.181 51.15 173.081 50.99C171.981 50.83 170.981 50.37 170.081 49.61C169.181 48.85 168.591 47.88 168.331 46.7C168.041 45.41 168.161 44.22 168.701 43.12C169.241 42.02 170.111 41.09 171.321 40.33C172.531 39.57 174.241 38.94 176.441 38.44C178.771 37.91 180.531 37.7 181.721 37.8C182.911 37.9 183.961 38.25 184.871 38.82C185.781 39.4 186.631 40.27 187.411 41.44L180.471 43.75C180.141 43.16 179.731 42.78 179.241 42.58C178.561 42.32 177.811 42.29 176.971 42.48C176.121 42.67 175.541 42.96 175.221 43.35C174.901 43.74 174.791 44.15 174.891 44.58C175.001 45.06 175.331 45.36 175.871 45.5C176.421 45.63 177.531 45.61 179.221 45.43C181.771 45.15 183.721 45.12 185.041 45.34C186.371 45.57 187.461 46.07 188.321 46.86C189.181 47.65 189.731 48.6 189.981 49.71C190.241 50.84 190.151 52.01 189.711 53.23C189.271 54.45 188.391 55.54 187.071 56.51C185.751 57.47 183.821 58.24 181.301 58.82C177.731 59.63 175.071 59.7 173.331 59.03C171.591 58.35 170.291 57.13 169.431 55.35Z" fill="#474747"/>
<path d="M193.852 30.61L202.062 30.56L202.102 36.86L200.592 49.53L195.512 49.56L193.892 36.91L193.852 30.61ZM194.252 51.5L201.912 51.46L201.952 58.23L194.292 58.27L194.252 51.5Z" fill="#474747"/>
<path d="M128.68 116.63C128.62 116.63 128.56 116.62 128.5 116.6C124 114.86 121.31 113.15 119.91 111.11C118.89 111.31 117.76 111.18 116.68 110.67C115.63 110.17 114.62 109.3 113.9 108.05C113.22 108.57 112.39 108.71 111.47 108.43C110.45 108.11 109.4 107.26 108.52 106.02C107.96 106.42 107.39 106.48 106.97 106.45C104 106.21 99.97 100.29 99.68 93.98C99.67 93.7 99.88 93.47 100.16 93.46C100.43 93.44 100.67 93.66 100.68 93.94C100.95 99.93 104.79 105.27 107.05 105.45C107.42 105.49 107.72 105.37 107.98 105.17C106.62 102.79 105.92 99.39 106.96 95.76C107.82 92.76 108.58 91.58 109.49 91.8C111.21 92.23 110.99 98.77 110.07 103.09C109.86 104.07 109.56 104.77 109.22 105.27C110.01 106.44 110.94 107.22 111.76 107.48C112.49 107.71 113.03 107.52 113.43 107.13C112.64 105.19 112.48 102.56 113.55 99.19C114.95 94.76 115.52 94.64 115.86 94.57C116.1 94.52 116.34 94.6 116.5 94.79C117.42 95.83 116.32 102.71 115.16 106.11C115.01 106.55 114.82 106.94 114.6 107.27C115.22 108.49 116.14 109.32 117.09 109.77C117.86 110.14 118.65 110.27 119.36 110.2C119.27 110.01 119.19 109.82 119.12 109.62C118.33 107.47 118.71 104.99 120.3 102.04C121.36 100.08 122.22 99.17 123.01 99.17C123.25 99.17 123.68 99.26 124 99.83C124.87 101.44 124.24 106.75 122.52 109.38C122.11 110 121.55 110.47 120.9 110.78C122.24 112.54 124.78 114.09 128.85 115.67C129.11 115.77 129.24 116.06 129.14 116.32C129.07 116.51 128.88 116.63 128.68 116.63ZM123.03 100.16C123.03 100.16 122.46 100.16 121.2 102.51C119.75 105.19 119.39 107.4 120.07 109.27C120.15 109.5 120.25 109.72 120.37 109.94C120.9 109.71 121.36 109.34 121.69 108.84C123.09 106.7 123.76 102.3 123.24 100.58C123.14 100.22 123.03 100.16 123.03 100.16ZM115.85 95.95C115.59 96.44 115.16 97.43 114.51 99.48C113.65 102.19 113.65 104.36 114.13 106.03C114.16 105.95 114.19 105.86 114.22 105.78C115.4 102.33 115.97 97.6 115.85 95.95ZM109.27 92.8C109.1 92.96 108.62 93.59 107.92 96.02C107 99.23 107.57 102.16 108.65 104.27C108.86 103.84 109 103.34 109.1 102.87C110.13 97.95 109.83 93.51 109.27 92.8Z" fill="#474747"/>
<path d="M166.7 169.04C165.18 169.04 163.57 168.69 162.14 167.85C161.9 167.71 161.82 167.4 161.96 167.17C162.1 166.93 162.41 166.85 162.64 166.99C166.21 169.08 170.82 167.62 171.77 166.1C171.88 165.92 171.98 165.69 171.92 165.43C170.51 165.58 168.77 165.21 166.79 163.96C164.25 162.37 164.05 161.9 164.06 161.52C164.07 161.3 164.2 161.1 164.4 161C165.4 160.5 169.91 162.57 171.79 163.81C172.04 163.97 172.24 164.15 172.41 164.33C173.24 164.13 173.89 163.7 174.31 163.18C174.6 162.83 174.8 162.44 174.9 162.06C174.83 162.07 174.77 162.08 174.7 162.08C173.1 162.24 171.5 161.55 169.79 159.98C168.62 158.9 168.16 158.15 168.31 157.55C168.36 157.36 168.52 157.02 169.03 156.9C170.41 156.56 173.83 158.01 175.22 159.54C175.53 159.88 175.75 160.29 175.86 160.72C177.16 160.11 178.54 158.73 180.18 156.45C180.34 156.23 180.65 156.17 180.88 156.33C181.1 156.49 181.16 156.8 181 157.03C179.11 159.67 177.54 161.17 175.95 161.78C175.89 162.48 175.6 163.2 175.08 163.82C174.57 164.43 173.83 164.95 172.9 165.23C173 165.68 172.91 166.16 172.62 166.62C171.78 167.98 169.36 169.04 166.7 169.04ZM165.81 162.11C166.15 162.36 166.63 162.69 167.32 163.12C168.68 163.97 169.89 164.36 170.92 164.44C169.26 163.41 167.09 162.5 165.81 162.11ZM169.3 157.86C169.36 158.02 169.58 158.43 170.47 159.25C171.96 160.62 173.31 161.24 174.6 161.09C174.71 161.08 174.81 161.06 174.92 161.04C174.85 160.74 174.7 160.45 174.49 160.21C173.08 158.68 169.98 157.7 169.3 157.86Z" fill="#474747"/>
<path d="M179.94 167.67L164.36 170.5L150.21 93.29L120.15 98.75L71.1602 185.75L76.4202 214.46L139.26 203.05L143.56 226.53L173.62 221.07L169.32 197.59L184.9 194.76L179.94 167.67ZM101.09 182L127.05 136.43L134.29 175.97L101.09 182Z" fill="#1476BF"/>
<path d="M305.43 88.04C304.85 82.71 303.78 77.97 302.23 73.82C300.68 69.68 298.35 65.61 295.24 61.63C292.13 57.65 287.89 54.19 282.54 51.26C277.18 48.33 270.11 46.29 261.32 45.15C243.03 42.77 228.77 46.01 218.54 54.89C208.31 63.77 201.58 80.77 198.34 105.9C197.02 116.12 196.7 125.57 197.36 134.24C198.02 142.92 199.62 149.89 202.14 155.17C205.59 162.59 210.47 168.51 216.79 172.94C223.1 177.37 231.75 180.3 242.74 181.73C262.34 184.28 276.86 180.52 286.31 170.44C295.76 160.36 302.03 143.33 305.12 119.34C306.49 108.66 306.59 98.22 305.43 88.04Z" fill="#1476BF"/>
<path d="M251.771 171.48C249.371 171.4 246.811 171.18 244.161 170.84C235.011 169.65 227.921 167.33 223.111 163.95C218.361 160.62 214.761 156.23 212.121 150.54L212.071 150.44C210.151 146.42 208.891 140.69 208.341 133.41C207.731 125.52 208.041 116.74 209.261 107.31C212.831 79.59 220.201 68.02 225.761 63.2C232.241 57.58 240.981 55.04 252.491 55.43C254.851 55.51 257.351 55.72 259.911 56.06C267.301 57.02 273.141 58.66 277.281 60.92C281.291 63.11 284.421 65.63 286.591 68.41C288.991 71.49 290.791 74.6 291.941 77.68C293.161 80.95 294.031 84.84 294.511 89.24C295.581 98.55 295.471 108.19 294.221 117.96C291.451 139.5 286.091 154.63 278.301 162.94C272.501 169.1 263.831 171.89 251.771 171.48Z" fill="#474747"/>
<path d="M271.339 88.33L271.469 84.54L269.139 83.78C269.039 82.49 268.829 81.21 268.519 79.98L270.489 78.53L269.149 74.97L266.709 75.17C266.129 74.02 265.449 72.93 264.679 71.9L265.939 69.79L263.339 67.02L261.159 68.14C260.179 67.31 259.139 66.55 258.039 65.88L258.389 63.46L254.929 61.89L253.349 63.75C252.139 63.36 250.889 63.07 249.599 62.87L249.009 60.5L245.209 60.37L244.459 62.7C243.159 62.81 241.889 63.01 240.659 63.32L239.199 61.36L235.639 62.69L235.839 65.13C234.689 65.72 233.599 66.4 232.569 67.17L230.469 65.91L227.689 68.5L228.809 70.69C227.979 71.66 227.219 72.71 226.559 73.82L224.139 73.46L222.559 76.92L224.429 78.5C224.039 79.71 223.729 80.97 223.549 82.25L221.169 82.85L221.039 86.64L223.379 87.4C223.479 88.7 223.689 89.97 223.999 91.2L222.029 92.65L223.369 96.21L225.809 96.01C226.389 97.16 227.069 98.25 227.839 99.28L226.579 101.39L229.179 104.16L231.359 103.04C232.329 103.87 233.379 104.63 234.479 105.3L234.119 107.72L237.579 109.29L239.169 107.43C240.379 107.82 241.629 108.11 242.919 108.31L243.509 110.68L247.309 110.81L248.059 108.48C249.359 108.37 250.629 108.17 251.859 107.86L253.309 109.82L256.869 108.49L256.679 106.05C257.829 105.46 258.919 104.78 259.949 104.01L262.049 105.27L264.829 102.68L263.709 100.49C264.539 99.52 265.299 98.47 265.959 97.36L268.379 97.72L269.959 94.26L268.089 92.68C268.479 91.47 268.779 90.22 268.969 88.93L271.339 88.33ZM245.739 100.61C237.439 100.33 230.949 93.37 231.229 85.07C231.509 76.76 238.469 70.27 246.769 70.55C255.069 70.83 261.559 77.79 261.279 86.1C260.989 94.39 254.039 100.89 245.739 100.61Z" fill="#1476BF"/>
<path opacity="0.3" d="M287.12 157.91L287.39 155.36L285.86 154.73C285.85 153.85 285.78 152.98 285.63 152.14L287.03 151.25L286.32 148.78L284.66 148.79C284.32 147.98 283.93 147.21 283.46 146.48L284.41 145.12L282.8 143.12L281.27 143.76C280.66 143.15 280 142.59 279.28 142.09L279.65 140.46L277.4 139.22L276.22 140.41C275.41 140.07 274.58 139.82 273.74 139.62L273.46 137.98L270.91 137.69L270.28 139.22C269.4 139.23 268.54 139.31 267.69 139.46L266.8 138.05L264.33 138.77L264.34 140.43C263.54 140.77 262.77 141.16 262.03 141.63L260.67 140.67L258.67 142.28L259.31 143.81C258.72 144.42 258.14 145.08 257.64 145.8L256.03 145.44L254.79 147.69L255.97 148.85C255.64 149.67 255.38 150.49 255.18 151.34L253.54 151.61L253.27 154.16L254.8 154.8C254.79 155.67 254.88 156.53 255.03 157.38L253.62 158.27L254.34 160.74H256C256.34 161.54 256.73 162.31 257.2 163.04L256.24 164.4L257.84 166.41L259.38 165.76C259.99 166.37 260.65 166.93 261.37 167.43L261 169.06L263.25 170.3L264.43 169.12C265.24 169.45 266.07 169.7 266.91 169.9L267.19 171.54L269.74 171.83L270.37 170.29C271.24 170.28 272.11 170.2 272.96 170.05L273.85 171.46L276.31 170.74V169.08C277.11 168.74 277.88 168.35 278.62 167.88L279.97 168.84L281.98 167.24L281.33 165.71C281.94 165.1 282.5 164.44 283.01 163.72L284.62 164.08L285.86 161.83L284.68 160.67C285.01 159.85 285.26 159.03 285.46 158.19L287.12 157.91ZM274.25 156.92C273.06 159.08 270.35 159.88 268.19 158.69C266.03 157.5 265.25 154.79 266.43 152.63C267.62 150.47 270.32 149.69 272.48 150.87C274.64 152.06 275.43 154.76 274.25 156.92Z" fill="#1476BF"/>
<path d="M301.29 114.7L298.31 112.64C298.31 112.64 298.31 112.64 298.31 112.63C298.02 111.55 297.61 110.5 297.11 109.53L297.87 106.53L293.55 101.9L290.51 102.46C289.57 101.9 288.56 101.42 287.5 101.05H287.49L285.64 97.93L279.31 97.71L277.25 100.69H277.24C276.16 100.98 275.12 101.39 274.14 101.89L271.14 101.13L266.51 105.45L267.07 108.49C266.5 109.44 266.03 110.46 265.66 111.51L262.54 113.36L262.32 119.69L265.3 121.75C265.59 122.84 265.99 123.88 266.5 124.87L265.74 127.86L270.06 132.49L273.08 131.94C274.03 132.5 275.05 132.98 276.12 133.35L277.97 136.46L284.3 136.68L286.36 133.7C287.45 133.41 288.5 133 289.49 132.5L292.47 133.26L297.1 128.94L296.54 125.9C297.11 124.95 297.58 123.93 297.95 122.87L301.07 121.02L301.29 114.7ZM281.56 124.32C277.62 124.19 274.55 120.88 274.68 116.96C274.81 113.02 278.11 109.95 282.04 110.08C285.98 110.21 289.05 113.51 288.92 117.44C288.79 121.37 285.49 124.46 281.56 124.32Z" fill="white"/>
<path d="M323.041 64.17L323.561 62.91C323.931 62.72 324.291 62.48 324.611 62.23L325.771 62.27L327.131 60.32L326.691 59.25C326.821 58.86 326.921 58.45 326.971 58.03L327.971 57.11L327.551 54.77L326.291 54.25C326.101 53.88 325.871 53.53 325.611 53.21L325.651 52.05L323.701 50.69L322.631 51.13C322.231 50.99 321.831 50.9 321.411 50.85L320.491 49.85L318.151 50.27L317.631 51.53C317.251 51.72 316.901 51.95 316.581 52.21L315.421 52.17L314.061 54.12L314.501 55.19C314.371 55.59 314.271 55.99 314.221 56.42L313.221 57.34L313.641 59.68L314.901 60.2C315.091 60.58 315.331 60.93 315.591 61.25L315.551 62.4L317.501 63.76L318.571 63.32C318.971 63.46 319.371 63.55 319.791 63.6L320.711 64.6L323.041 64.17ZM317.951 57.68C317.691 56.22 318.661 54.84 320.111 54.58C321.571 54.32 322.951 55.29 323.211 56.74C323.471 58.2 322.501 59.58 321.051 59.84C319.611 60.11 318.211 59.14 317.951 57.68Z" fill="#1476BF"/>
<path d="M295.61 57.54L294.85 56.9C296.18 55.33 298.06 53.34 300.86 51.87L301.32 52.76C298.33 54.31 296.42 56.57 295.61 57.54Z" fill="#1476BF"/>
<path d="M303.589 51.85L303.199 50.93C306.979 49.31 310.929 48.68 314.939 49.05L314.849 50.05C310.999 49.68 307.219 50.29 303.589 51.85Z" fill="#1476BF"/>
<path d="M301.699 58.77L300.869 58.21C302.919 55.19 306.979 52.57 310.739 51.82L310.929 52.8C307.419 53.5 303.619 55.95 301.699 58.77Z" fill="#1476BF"/>
<path d="M235.34 155C235.21 155 235.08 154.95 234.98 154.85L232.88 152.69C231.81 152.59 230.76 152.39 229.73 152.1L226.46 153.54C226.3 153.61 226.12 153.59 225.98 153.5L220.5 149.87C220.36 149.78 220.27 149.62 220.28 149.45L220.33 145.89C219.66 145.06 219.07 144.16 218.56 143.21L215.75 142.12C215.59 142.06 215.47 141.92 215.44 141.75L214.13 135.31C214.1 135.14 214.15 134.97 214.27 134.85L216.43 132.75C216.53 131.69 216.73 130.63 217.01 129.6L215.57 126.34C215.5 126.18 215.52 126 215.61 125.86L219.24 120.38C219.33 120.24 219.47 120.15 219.66 120.16L223.22 120.21C224.06 119.54 224.96 118.95 225.9 118.45L226.99 115.64C227.05 115.48 227.19 115.36 227.36 115.33L233.8 114.02C233.97 113.99 234.14 114.04 234.26 114.16L236.35 116.32C237.41 116.42 238.47 116.62 239.5 116.9L242.76 115.46C242.92 115.39 243.1 115.41 243.24 115.5L248.72 119.13C248.86 119.22 248.95 119.38 248.94 119.55L248.89 123.12C249.56 123.95 250.15 124.85 250.65 125.79L253.46 126.88C253.62 126.94 253.74 127.08 253.77 127.25L255.08 133.69C255.11 133.86 255.06 134.03 254.94 134.15L252.78 136.25C252.68 137.3 252.48 138.36 252.19 139.39L253.63 142.66C253.7 142.82 253.68 143 253.59 143.14L249.96 148.61C249.87 148.75 249.72 148.82 249.54 148.83L245.98 148.78C245.15 149.44 244.25 150.03 243.3 150.54L242.21 153.35C242.15 153.51 242.01 153.63 241.84 153.66L235.4 154.97C235.41 155 235.38 155 235.34 155ZM229.71 151.07C229.76 151.07 229.8 151.08 229.85 151.09C230.92 151.4 232.03 151.61 233.16 151.71C233.28 151.72 233.39 151.77 233.48 151.86L235.52 153.96L241.42 152.76L242.48 150.03C242.52 149.92 242.61 149.82 242.72 149.77C243.72 149.25 244.67 148.63 245.54 147.92C245.63 147.85 245.73 147.79 245.86 147.81L249.33 147.86L252.66 142.84L251.26 139.66C251.21 139.55 251.21 139.43 251.24 139.32C251.56 138.23 251.76 137.11 251.86 136.01C251.87 135.89 251.92 135.78 252.01 135.69L254.11 133.65L252.91 127.75L250.18 126.69C250.06 126.65 249.97 126.56 249.91 126.45C249.39 125.45 248.77 124.51 248.06 123.64C247.98 123.55 247.94 123.43 247.95 123.31L248 119.84L242.98 116.51L239.8 117.91C239.69 117.96 239.57 117.96 239.46 117.93C238.38 117.61 237.26 117.41 236.14 117.31C236.02 117.3 235.91 117.25 235.82 117.16L233.79 115.06L227.89 116.26L226.83 118.99C226.79 119.1 226.7 119.2 226.59 119.25C225.59 119.77 224.65 120.39 223.77 121.1C223.68 121.17 223.56 121.23 223.44 121.21L219.97 121.16L216.64 126.18L218.04 129.36C218.1 129.5 218.1 129.65 218.03 129.79C217.75 130.79 217.54 131.9 217.45 133.02C217.44 133.14 217.39 133.25 217.3 133.34L215.2 135.38L216.4 141.28L219.13 142.34C219.25 142.39 219.35 142.48 219.4 142.6C219.92 143.59 220.54 144.53 221.24 145.39C221.32 145.48 221.36 145.6 221.36 145.72L221.31 149.19L226.33 152.52L229.51 151.12C229.57 151.09 229.64 151.07 229.71 151.07ZM234.62 147.84C232.09 147.84 229.54 147.12 227.28 145.63C224.31 143.66 222.29 140.66 221.58 137.17C220.87 133.68 221.56 130.13 223.53 127.16C227.6 121.03 235.88 119.35 242 123.41C248.12 127.47 249.8 135.76 245.74 141.88C243.19 145.75 238.95 147.84 234.62 147.84ZM224.37 127.71C222.55 130.45 221.91 133.74 222.57 136.97C223.23 140.2 225.1 142.97 227.84 144.79C233.51 148.54 241.17 146.99 244.92 141.33C248.67 135.67 247.12 128 241.46 124.24C235.79 120.49 228.13 122.05 224.37 127.71Z" fill="white"/>
<path d="M425.83 176.7L410.14 174.58L420.52 96.77L390.24 92.68L316.79 160.31L312.93 189.24L376.22 197.78L373.06 221.44L403.34 225.53L406.5 201.87L422.19 203.99L425.83 176.7ZM346.41 165.98L385.17 130.65L379.85 170.49L346.41 165.98Z" fill="#1476BF"/>
<path d="M394.129 224.79C394.099 224.79 394.069 224.79 394.039 224.78C393.769 224.73 393.589 224.47 393.639 224.2L416.969 96.27C417.019 96 417.279 95.83 417.549 95.87C417.819 95.92 417.999 96.18 417.949 96.45L394.619 224.38C394.579 224.62 394.369 224.79 394.129 224.79Z" fill="#474747"/>
<path d="M414.83 98.42C414.81 98.87 414.44 99.23 413.98 99.21C413.52 99.19 413.17 98.82 413.19 98.36C413.21 97.9 413.58 97.55 414.04 97.57C414.49 97.59 414.85 97.96 414.83 98.42Z" fill="#474747"/>
<path d="M411.5 115.72C411.48 116.17 411.11 116.53 410.65 116.51C410.2 116.49 409.84 116.12 409.86 115.66C409.88 115.21 410.25 114.85 410.71 114.87C411.16 114.89 411.51 115.27 411.5 115.72Z" fill="#474747"/>
<path d="M408.17 133.02C408.15 133.47 407.78 133.83 407.32 133.81C406.87 133.79 406.51 133.42 406.53 132.96C406.55 132.51 406.92 132.15 407.38 132.17C407.83 132.19 408.18 132.57 408.17 133.02Z" fill="#474747"/>
<path d="M401.61 151.03C401.59 151.48 401.22 151.84 400.76 151.82C400.3 151.8 399.95 151.43 399.97 150.97C399.99 150.52 400.36 150.16 400.82 150.18C401.28 150.2 401.63 150.58 401.61 151.03Z" fill="#474747"/>
<path d="M401.5 167.62C401.48 168.07 401.11 168.43 400.65 168.41C400.19 168.39 399.84 168.02 399.86 167.56C399.88 167.1 400.25 166.75 400.71 166.77C401.17 166.79 401.52 167.17 401.5 167.62Z" fill="#474747"/>
<path d="M398.17 184.92C398.15 185.37 397.78 185.73 397.32 185.71C396.86 185.69 396.51 185.32 396.53 184.86C396.55 184.41 396.92 184.05 397.38 184.07C397.84 184.09 398.18 184.47 398.17 184.92Z" fill="#474747"/>
<path d="M394.84 202.22C394.82 202.67 394.45 203.03 393.99 203.01C393.54 202.99 393.18 202.62 393.2 202.16C393.22 201.71 393.59 201.35 394.05 201.37C394.5 201.39 394.85 201.77 394.84 202.22Z" fill="#474747"/>
<path d="M391.5 219.52C391.48 219.97 391.11 220.33 390.65 220.31C390.2 220.29 389.84 219.92 389.86 219.46C389.88 219 390.25 218.65 390.71 218.67C391.17 218.69 391.52 219.07 391.5 219.52Z" fill="#474747"/>
<path d="M400.789 151.5C400.559 151.5 400.349 151.34 400.299 151.1C400.239 150.83 400.409 150.56 400.679 150.51L403.159 149.98C403.429 149.93 403.699 150.09 403.749 150.36C403.809 150.63 403.639 150.9 403.369 150.95L400.889 151.48C400.859 151.5 400.829 151.5 400.789 151.5Z" fill="#474747"/>
<path d="M409.079 142.29C409.079 142.29 406.839 148.12 406.089 151.65C405.339 155.18 405.289 163.07 405.289 163.07" fill="#474747"/>
<path d="M405.289 163.57C405.009 163.57 404.789 163.34 404.789 163.07C404.789 162.75 404.839 155.09 405.599 151.54C406.349 148.01 408.519 142.34 408.609 142.1C408.709 141.84 408.999 141.72 409.259 141.81C409.519 141.91 409.649 142.2 409.549 142.46C409.529 142.52 407.319 148.29 406.579 151.75C405.849 155.19 405.789 163 405.789 163.07C405.789 163.35 405.569 163.57 405.289 163.57Z" fill="#474747"/>
<path d="M222.449 249.89C223.839 227.49 221.279 186.76 263.389 192.15C308.529 197.93 295.609 250.71 295.609 250.71L222.449 249.89Z" fill="#474747"/>
<path d="M251.511 236.43C261.662 236.43 269.891 228.201 269.891 218.05C269.891 207.899 261.662 199.67 251.511 199.67C241.36 199.67 233.131 207.899 233.131 218.05C233.131 228.201 241.36 236.43 251.511 236.43Z" fill="white"/>
<path d="M253.93 199.7C245.23 198.21 235.92 204.63 235 211.13L269.51 214.3C268.29 206.89 260.83 200.88 253.93 199.7Z" fill="#474747"/>
<path d="M265.581 217.59C265.331 222.39 262.721 226.16 259.731 226.01C256.751 225.86 254.531 221.84 254.781 217.03C255.031 212.23 257.641 208.46 260.631 208.61C263.601 208.77 265.821 212.79 265.581 217.59Z" fill="#474747"/>
<path d="M251.511 237.42C240.831 237.42 232.131 228.73 232.131 218.04C232.131 207.36 240.821 198.66 251.511 198.66C262.191 198.66 270.891 207.35 270.891 218.04C270.891 228.73 262.201 237.42 251.511 237.42ZM251.511 200.67C241.931 200.67 234.131 208.46 234.131 218.05C234.131 227.64 241.921 235.43 251.511 235.43C261.091 235.43 268.891 227.64 268.891 218.05C268.891 208.46 261.091 200.67 251.511 200.67Z" fill="#1476BF"/>
<path opacity="0.3" d="M290.49 249.32C290.45 249.32 290.41 249.32 290.37 249.31C290.1 249.25 289.94 248.98 290 248.71C290.03 248.58 293.22 235.02 289.91 221.31C289.84 221.04 290.01 220.77 290.28 220.71C290.54 220.65 290.82 220.81 290.88 221.08C294.25 235.03 291 248.81 290.97 248.95C290.92 249.17 290.71 249.32 290.49 249.32Z" fill="white"/>
<path opacity="0.3" d="M287.701 213.81C287.511 213.81 287.331 213.7 287.241 213.52C285.951 210.71 284.361 208.14 282.501 205.86C282.331 205.65 282.361 205.33 282.571 205.16C282.781 204.98 283.101 205.02 283.271 205.23C285.181 207.57 286.831 210.22 288.151 213.1C288.271 213.35 288.151 213.65 287.901 213.76C287.841 213.79 287.771 213.81 287.701 213.81Z" fill="white"/>
<path d="M128.73 354.97C128.61 354.97 128.48 354.97 128.36 354.97C125.6 354.89 123.42 352.59 123.5 349.83C123.58 347.07 125.85 344.94 128.64 344.97C128.67 344.97 128.7 344.97 128.74 344.97C131.63 344.97 138.58 341.46 153.12 318.54C153.9 317.31 155.18 316.48 156.62 316.27C158.06 316.06 159.53 316.49 160.62 317.45C178.56 333.09 197.57 342.83 197.76 342.93C200.22 344.18 201.2 347.19 199.95 349.65C198.7 352.11 195.69 353.1 193.23 351.85C192.47 351.47 175.86 342.97 158.43 328.7C146.25 347.01 137.21 354.97 128.73 354.97Z" fill="#474747"/>
<path d="M159.67 316.55C159.53 316.55 159.39 316.54 159.24 316.52C157.6 316.29 156.46 314.77 156.69 313.13C157.4 308.15 156.52 289.5 150.22 275C149.65 273.68 150.09 272.14 151.28 271.32C164.98 261.99 194.16 260.87 195.39 260.83C197.04 260.79 198.43 262.07 198.49 263.72C198.55 265.38 197.25 266.76 195.6 266.82C195.33 266.83 169.82 267.81 156.71 275.02C162.29 289.46 163.56 307.46 162.63 313.97C162.42 315.47 161.14 316.55 159.67 316.55Z" fill="#474747"/>
<path d="M164.71 312.66C162.71 307.95 153.72 308.49 148.44 312.52C145.62 314.68 141.8 321.16 141.4 323.51C141 325.86 142.63 327.99 145.42 327.75C148.87 327.45 153.6 322.44 153.6 322.44C150.45 325.53 154.51 327.71 160.58 323.24C163.94 320.77 166.94 317.93 164.71 312.66Z" fill="#1476BF"/>
<path d="M336.71 251.21C336.66 251.21 336.62 251.2 336.57 251.19C336.3 251.11 336.15 250.84 336.23 250.57C337.56 245.93 339.02 243.1 340.93 241.52C340.64 240.52 340.67 239.38 341.08 238.26C341.48 237.17 342.26 236.09 343.44 235.26C342.86 234.63 342.65 233.81 342.85 232.88C343.08 231.84 343.83 230.71 344.99 229.72C344.54 229.2 344.43 228.63 344.42 228.21C344.39 225.23 349.93 220.68 356.18 219.83C356.45 219.78 356.71 219.98 356.74 220.26C356.78 220.53 356.59 220.79 356.31 220.82C350.37 221.63 345.39 225.93 345.41 228.2C345.41 228.57 345.55 228.86 345.77 229.1C348.02 227.53 351.34 226.52 355.05 227.24C358.12 227.83 359.37 228.48 359.22 229.41C358.95 231.16 352.41 231.53 348.03 231C347.04 230.88 346.31 230.65 345.78 230.35C344.69 231.24 343.99 232.24 343.81 233.08C343.65 233.83 343.89 234.35 344.31 234.72C346.17 233.76 348.78 233.36 352.23 234.13C356.77 235.13 356.94 235.68 357.04 236.01C357.11 236.25 357.05 236.49 356.88 236.67C355.92 237.68 348.97 237.2 345.48 236.35C345.03 236.24 344.62 236.09 344.28 235.9C343.12 236.63 342.38 237.61 342.01 238.61C341.72 239.41 341.65 240.2 341.78 240.91C341.96 240.8 342.14 240.7 342.33 240.62C344.4 239.64 346.9 239.8 349.98 241.12C352.02 242 353.01 242.77 353.08 243.56C353.1 243.79 353.06 244.24 352.51 244.6C350.99 245.61 345.64 245.46 342.86 243.98C342.2 243.63 341.69 243.11 341.32 242.49C339.69 243.98 338.37 246.66 337.16 250.85C337.12 251.07 336.92 251.21 336.71 251.21ZM342.13 241.88C342.41 242.39 342.82 242.81 343.35 243.1C345.61 244.3 350.05 244.58 351.71 243.9C352.05 243.76 352.1 243.65 352.1 243.65C352.1 243.65 352.05 243.09 349.6 242.04C346.8 240.84 344.56 240.67 342.77 241.52C342.55 241.62 342.34 241.74 342.13 241.88ZM345.47 235.31C345.56 235.34 345.64 235.36 345.73 235.38C349.26 236.24 354.03 236.39 355.66 236.12C355.15 235.91 354.12 235.56 352.02 235.1C349.25 234.49 347.08 234.68 345.47 235.31ZM346.73 229.69C347.18 229.86 347.69 229.96 348.17 230.01C353.15 230.6 357.55 229.9 358.21 229.28C358.04 229.13 357.37 228.7 354.88 228.22C351.59 227.6 348.72 228.42 346.73 229.69Z" fill="#474747"/>
<path d="M206.53 353.3C207.19 353.09 206.97 352.45 206.23 352.45H192.69C166.91 349.72 148.9 353.38 160.25 354.24C171.6 355.1 159.45 354.92 151.16 358.06C142.87 361.2 212.81 361.99 219.18 358.06C225.04 354.44 197.39 356.22 206.53 353.3Z" fill="#474747"/>
<path d="M303.469 357.29L185.669 353.38L180.779 239.16L319.889 242.27L303.469 357.29Z" fill="#1476BF"/>
<path d="M222.449 355.1C222.189 355.1 221.969 354.9 221.949 354.64L212.509 239.92C212.489 239.64 212.689 239.4 212.969 239.38C213.249 239.36 213.489 239.56 213.509 239.84L222.949 354.56C222.969 354.84 222.769 355.08 222.489 355.1C222.479 355.1 222.469 355.1 222.449 355.1Z" fill="#474747"/>
<path d="M303.471 357.29L335.131 352.47L345.101 246.26L319.891 242.27L303.471 357.29Z" fill="#1476BF"/>
<path opacity="0.2" d="M303.471 357.29L335.131 352.47L345.101 246.26L319.891 242.27L303.471 357.29Z" fill="#092642"/>
<path d="M195.73 331.36L192.83 263.5C192.53 256.42 198.27 250.55 205.36 250.71L293.42 252.68C300.77 252.84 306.33 259.4 305.29 266.68L295.53 335.07C294.65 341.27 289.24 345.81 282.98 345.6L207.59 343.1C201.17 342.89 196.01 337.77 195.73 331.36Z" fill="#474747"/>
<path d="M205.25 271.54L218.87 271.97L218.76 275.48L210.23 275.21L210.15 277.82L218.06 278.07L217.95 281.43L210.04 281.18L209.94 284.42L218.72 284.7L218.6 288.43L204.73 287.99L205.25 271.54Z" fill="white"/>
<path d="M221.4 288.52L221.92 272.07L230.39 272.34C231.96 272.39 233.16 272.56 233.98 272.86C234.8 273.16 235.46 273.68 235.94 274.42C236.43 275.17 236.65 276.06 236.62 277.11C236.59 278.02 236.37 278.8 235.96 279.45C235.55 280.1 235 280.62 234.3 281.01C233.86 281.26 233.26 281.46 232.49 281.6C233.09 281.82 233.52 282.04 233.79 282.25C233.97 282.39 234.23 282.69 234.58 283.14C234.92 283.59 235.15 283.94 235.26 284.18L237.57 289.03L231.83 288.85L229.27 283.74C228.95 283.08 228.65 282.65 228.39 282.44C228.03 282.17 227.62 282.03 227.16 282.02L226.71 282.01L226.5 288.69L221.4 288.52ZM226.82 278.9L228.96 278.97C229.19 278.98 229.64 278.92 230.31 278.79C230.65 278.73 230.93 278.57 231.15 278.3C231.37 278.03 231.49 277.72 231.5 277.36C231.52 276.83 231.36 276.42 231.03 276.12C230.7 275.82 230.07 275.66 229.15 275.63L226.92 275.56L226.82 278.9Z" fill="white"/>
<path d="M239.281 289.09L239.801 272.64L248.271 272.91C249.841 272.96 251.041 273.13 251.861 273.43C252.681 273.73 253.341 274.25 253.821 274.99C254.311 275.74 254.531 276.63 254.501 277.68C254.471 278.59 254.251 279.37 253.841 280.02C253.431 280.67 252.881 281.19 252.181 281.58C251.741 281.83 251.141 282.03 250.371 282.17C250.971 282.39 251.401 282.61 251.671 282.82C251.851 282.96 252.111 283.26 252.461 283.71C252.801 284.16 253.031 284.51 253.141 284.75L255.451 289.6L249.711 289.42L247.151 284.31C246.831 283.65 246.531 283.22 246.271 283.01C245.911 282.74 245.501 282.6 245.041 282.59L244.591 282.58L244.381 289.26L239.281 289.09ZM244.691 279.46L246.831 279.53C247.061 279.54 247.511 279.48 248.181 279.35C248.521 279.29 248.801 279.13 249.021 278.86C249.241 278.59 249.361 278.28 249.371 277.92C249.391 277.39 249.231 276.98 248.901 276.68C248.571 276.38 247.941 276.22 247.021 276.19L244.791 276.12L244.691 279.46Z" fill="white"/>
<path d="M256.322 281.41C256.412 278.72 257.222 276.66 258.762 275.21C260.302 273.76 262.412 273.08 265.082 273.16C267.822 273.25 269.902 274.05 271.342 275.57C272.772 277.09 273.452 279.17 273.372 281.82C273.312 283.74 272.932 285.31 272.252 286.52C271.562 287.73 270.602 288.66 269.352 289.3C268.102 289.95 266.572 290.24 264.742 290.18C262.882 290.12 261.362 289.78 260.162 289.15C258.962 288.52 258.012 287.55 257.292 286.25C256.582 284.94 256.252 283.33 256.322 281.41ZM261.402 281.59C261.352 283.25 261.622 284.45 262.212 285.2C262.802 285.95 263.632 286.33 264.692 286.37C265.782 286.4 266.642 286.08 267.262 285.38C267.882 284.69 268.222 283.42 268.282 281.58C268.332 280.03 268.052 278.89 267.452 278.16C266.852 277.43 266.012 277.04 264.942 277.01C263.912 276.98 263.082 277.31 262.442 278.02C261.802 278.72 261.452 279.91 261.402 281.59Z" fill="white"/>
<path d="M275.91 290.25L276.43 273.8L284.9 274.07C286.47 274.12 287.67 274.29 288.49 274.59C289.31 274.89 289.97 275.41 290.45 276.15C290.94 276.9 291.16 277.79 291.13 278.84C291.1 279.75 290.88 280.53 290.47 281.18C290.06 281.83 289.51 282.35 288.81 282.74C288.37 282.99 287.77 283.19 287 283.33C287.6 283.55 288.03 283.77 288.3 283.98C288.48 284.12 288.74 284.42 289.09 284.87C289.43 285.32 289.66 285.67 289.77 285.91L292.08 290.76L286.34 290.58L283.78 285.47C283.46 284.81 283.16 284.38 282.9 284.17C282.54 283.9 282.13 283.76 281.67 283.75L281.22 283.74L281.01 290.42L275.91 290.25ZM281.32 280.63L283.46 280.7C283.69 280.71 284.14 280.65 284.81 280.52C285.15 280.46 285.43 280.3 285.65 280.03C285.87 279.76 285.99 279.45 286 279.09C286.02 278.56 285.86 278.15 285.53 277.85C285.2 277.55 284.57 277.39 283.65 277.36L281.42 277.29L281.32 280.63Z" fill="white"/>
<path d="M284 318.21C283.64 318.21 283.29 318.07 283.03 317.78L274.47 308.41L265.23 316.85C264.69 317.34 263.86 317.3 263.38 316.77L254.82 307.4L245.58 315.84C245.04 316.33 244.21 316.29 243.73 315.76L235.17 306.39L225.93 314.83C225.67 315.07 225.33 315.19 224.99 315.17C224.64 315.15 224.31 315 224.08 314.74L215.52 305.37L206.28 313.81C205.75 314.3 204.91 314.26 204.43 313.73C203.94 313.19 203.98 312.36 204.51 311.88L214.72 302.55C215.25 302.06 216.09 302.1 216.57 302.63L225.13 312L234.37 303.56C234.63 303.32 234.97 303.2 235.31 303.22C235.66 303.24 235.99 303.39 236.22 303.65L244.78 313.02L254.02 304.58C254.55 304.09 255.39 304.13 255.87 304.66L264.43 314.03L273.67 305.59C274.2 305.1 275.03 305.14 275.52 305.67L284.97 316.01C285.46 316.55 285.42 317.38 284.89 317.86C284.63 318.09 284.31 318.21 284 318.21Z" fill="white"/>
<path d="M125.75 359.71L119.49 356.73L113.91 329.56L116.94 326.23L125.75 359.71Z" fill="#1476BF"/>
<path d="M125.751 359.71L134.051 354.86L126.941 332.48L116.941 326.23L125.751 359.71Z" fill="#1476BF"/>
<path opacity="0.2" d="M125.751 359.71L134.051 354.86L126.941 332.48L116.941 326.23L125.751 359.71Z" fill="#092642"/>
<path d="M261.951 364.65C261.711 364.65 261.481 364.65 261.261 364.64C258.501 364.56 256.321 362.26 256.401 359.5C256.481 356.74 258.761 354.57 261.541 354.64C269.241 354.89 285.551 350.16 294.861 341.12C295.441 340.56 296.141 340.15 296.911 339.92C312.701 335.18 318.571 344.75 318.821 345.16L310.211 350.25C310.211 350.25 310.241 350.32 310.331 350.43C310.231 350.3 308.001 347.39 300.881 349.19C289.171 359.87 271.231 364.65 261.951 364.65Z" fill="#474747"/>
<path d="M261.39 371.3L243.18 370.15L241.75 336.58L266.22 337.49L261.39 371.3Z" fill="#1476BF"/>
<path d="M261.391 371.3L265.651 367.06L268.291 346.13L266.221 337.49L261.391 371.3Z" fill="#1476BF"/>
<path opacity="0.2" d="M261.391 371.3L265.651 367.06L268.291 346.13L266.221 337.49L261.391 371.3Z" fill="#092642"/>
<path d="M366.909 358.58C366.279 358.58 365.639 358.38 365.099 357.97C354.709 350.07 340.649 336.04 335.259 322.51C335.179 322.31 335.119 322.11 335.089 321.9C332.459 306.27 329.949 273.36 329.839 271.97C329.709 270.32 330.949 268.88 332.599 268.75C334.249 268.63 335.689 269.86 335.819 271.51C335.849 271.85 338.379 305.08 340.949 320.58C346.329 333.74 360.909 347.25 368.729 353.19C370.049 354.19 370.309 356.07 369.299 357.39C368.709 358.18 367.819 358.58 366.909 358.58Z" fill="#474747"/>
<path d="M380.78 360.1C378.46 360.1 375.83 359.05 372.97 356.97C371.63 356 371.33 354.12 372.3 352.78C373.27 351.44 375.15 351.14 376.49 352.11C378.97 353.9 380.32 354.1 380.79 354.1C382.45 354.1 383.79 355.44 383.79 357.1C383.78 358.76 382.43 360.1 380.78 360.1Z" fill="#474747"/>
<path d="M373.801 356.89C377.011 347.35 390.171 349.24 394.701 350.65C399.231 352.07 403.311 353.85 405.771 355.45C408.221 357.05 408.261 359.74 404.991 361.27C400.951 363.16 390.831 361.48 390.831 361.48C396.071 363.77 390.821 367.45 381.621 363.84C378.641 362.67 372.671 360.38 373.801 356.89Z" fill="#1476BF"/>
<path d="M341.861 276.08C340.671 284.18 333.961 290.16 328.501 289.35C323.041 288.55 322.821 281.31 324.011 273.21C325.201 265.11 327.361 259.21 332.821 260.01C338.271 260.82 343.051 267.98 341.861 276.08Z" fill="#474747"/>
<path d="M209.881 243.74C210.333 243.74 210.701 243.373 210.701 242.92C210.701 242.467 210.333 242.1 209.881 242.1C209.428 242.1 209.061 242.467 209.061 242.92C209.061 243.373 209.428 243.74 209.881 243.74Z" fill="#474747"/>
<path d="M218.21 248.83C218.21 249.28 217.84 249.65 217.39 249.65C216.94 249.65 216.57 249.28 216.57 248.83C216.57 248.38 216.94 248.01 217.39 248.01C217.84 248.01 218.21 248.37 218.21 248.83Z" fill="#474747"/>
<path d="M219.13 345.73C219.13 346.18 218.76 346.55 218.31 346.55C217.86 346.55 217.49 346.18 217.49 345.73C217.49 345.28 217.86 344.91 218.31 344.91C218.76 344.91 219.13 345.28 219.13 345.73Z" fill="#474747"/>
<path d="M226.64 351.63C226.64 352.08 226.27 352.45 225.82 352.45C225.37 352.45 225 352.08 225 351.63C225 351.18 225.37 350.81 225.82 350.81C226.27 350.81 226.64 351.18 226.64 351.63Z" fill="#474747"/>
<path d="M82.5097 361.47C80.1297 361.47 76.9097 360.03 75.1797 357.52C75.0197 357.29 75.0797 356.98 75.3097 356.82C75.5397 356.66 75.8497 356.72 76.0097 356.95C77.8797 359.64 81.9897 361.08 83.8197 360.23C84.0097 360.14 84.1697 360.03 84.2897 359.89C82.6597 359.14 81.1697 357.66 80.7597 355.41C80.5297 354.14 80.3497 352.43 81.3997 352.19C82.8297 351.87 84.7097 355.34 85.4297 357.97C85.5597 358.46 85.6097 358.91 85.5597 359.31C86.1897 359.48 86.8097 359.53 87.3497 359.45C87.7797 359.39 88.3997 359.21 88.7197 358.7C87.5097 357.88 86.6897 356.43 86.4197 354.51C86.0297 351.78 86.3197 351.3 86.6297 351.07C86.8297 350.92 87.0797 350.89 87.3197 350.99C88.3897 351.45 89.6897 355.32 89.9297 357.52C89.9597 357.76 89.9597 357.99 89.9297 358.21C90.3397 358.37 90.7897 358.46 91.2797 358.47C92.1497 358.52 92.9997 358.24 93.6897 357.84C93.5497 357.75 93.4097 357.65 93.2897 357.54C92.2497 356.65 91.8297 355.24 92.0097 353.21C92.1497 351.64 92.4997 350.79 93.1297 350.52C93.3497 350.42 93.7997 350.33 94.3397 350.76C95.4197 351.62 96.4297 354.36 96.0697 356.32C95.9897 356.73 95.8197 357.11 95.5697 357.47C97.3997 357.79 99.9897 357.27 102.21 356.72C102.48 356.65 102.75 356.82 102.82 357.09C102.89 357.36 102.72 357.63 102.45 357.7C99.7397 358.37 96.8197 358.91 94.7597 358.32C93.8397 359.05 92.5497 359.49 91.2597 359.48C90.6697 359.47 90.1197 359.36 89.6197 359.17C89.2297 359.84 88.4897 360.3 87.4997 360.44C86.8397 360.54 86.0497 360.48 85.2597 360.25C85.0297 360.63 84.6997 360.93 84.2497 361.14C83.7497 361.36 83.1597 361.47 82.5097 361.47ZM81.6497 353.19C81.5897 353.34 81.4897 353.85 81.7297 355.23C82.0597 357.07 83.2497 358.29 84.5697 358.94C84.5597 358.73 84.5197 358.49 84.4497 358.23C83.6697 355.37 82.1697 353.4 81.6497 353.19ZM87.2197 352.32C87.2097 352.7 87.2497 353.33 87.3997 354.38C87.5997 355.81 88.1297 356.9 88.9197 357.6C88.6797 355.59 87.7897 353.27 87.2197 352.32ZM93.5097 351.45C93.5097 351.45 93.1297 351.64 92.9897 353.31C92.8397 354.99 93.1497 356.13 93.9197 356.79C94.0997 356.94 94.2997 357.07 94.5197 357.17C94.7997 356.86 94.9997 356.51 95.0597 356.14C95.3297 354.69 94.6397 352.57 93.8597 351.71C93.6697 351.49 93.5397 351.45 93.5097 351.45Z" fill="#474747"/>
<path d="M228.871 369.03L231.581 364.33L228.871 359.63H225.971L227.611 364.33L225.971 369.03H228.871Z" fill="#474747"/>
<path d="M226.16 366.78C224.81 366.78 223.71 365.68 223.71 364.33C223.71 362.98 224.81 361.89 226.16 361.89L221.55 360.97L220.33 364.69L222.39 367.83L226.16 366.78Z" fill="#474747"/>
<path d="M226.56 359.63H221.13L218.42 364.33L221.13 369.03H226.56L229.27 364.33L226.56 359.63ZM223.85 366.78C222.5 366.78 221.4 365.68 221.4 364.33C221.4 362.98 222.5 361.89 223.85 361.89C225.2 361.89 226.29 362.98 226.29 364.33C226.29 365.68 225.2 366.78 223.85 366.78Z" fill="#1476BF"/>
<path d="M417.891 359.31L415.881 355.82L417.891 352.33H420.041L418.831 355.82L420.041 359.31H417.891Z" fill="#1476BF"/>
<path d="M419.9 357.64C420.9 357.64 421.72 356.82 421.72 355.82C421.72 354.82 420.9 354.01 419.9 354.01L423.32 353.33L424.23 356.09L422.7 358.42L419.9 357.64Z" fill="#1476BF"/>
<path d="M419.61 352.33H423.64L425.65 355.82L423.64 359.31H419.61L417.6 355.82L419.61 352.33ZM421.62 357.64C422.62 357.64 423.44 356.82 423.44 355.82C423.44 354.82 422.62 354.01 421.62 354.01C420.62 354.01 419.81 354.82 419.81 355.82C419.81 356.82 420.62 357.64 421.62 357.64Z" fill="#474747"/>
<path d="M342.951 363.95H347.471C348.651 363.95 349.611 362.99 349.611 361.81C349.611 360.63 348.651 359.67 347.471 359.67H342.951C341.771 359.67 340.811 360.63 340.811 361.81C340.811 362.98 341.771 363.95 342.951 363.95Z" fill="#474747"/>
<path d="M335.73 359.91C336.85 357.54 339.55 356.47 341.77 357.52C343.99 358.57 344.89 361.33 343.77 363.7C342.65 366.07 339.95 367.14 337.73 366.09C335.51 365.04 334.61 362.28 335.73 359.91Z" fill="#1476BF"/>
<path d="M336.997 366.065L338.236 366.649L342.544 357.514L341.305 356.929L336.997 366.065Z" fill="#474747"/>
</svg>
