<svg width="70" height="70" viewBox="0 0 70 70" fill="none" xmlns="http://www.w3.org/2000/svg">
<path d="M60 10H10C7.24 10.0031 5.00325 12.1538 5 14.8077V34.0385C5.00325 36.6923 7.24 38.843 10 38.8462H60C62.76 38.843 64.9967 36.6923 65 34.0385V14.8077C64.9967 12.1538 62.76 10.0031 60 10ZM12 11.9231H58V14.8077C58 16.4008 56.6569 17.6923 55 17.6923H15C13.3431 17.6923 12 16.4008 12 14.8077V11.9231ZM58 36.9231H12V35.9615H58V36.9231ZM58 34.0385H12V33.0769H58V34.0385ZM58 31.1538H12V30.1923H58V31.1538ZM63 34.0385C63 35.6316 61.6569 36.9231 60 36.9231V29.2308C60 28.6998 59.5522 28.2692 59 28.2692H11C10.4478 28.2692 10 28.6998 10 29.2308V36.9231C8.34312 36.9231 7 35.6316 7 34.0385V14.8077C7 13.2145 8.34312 11.9231 10 11.9231V14.8077C10.0033 17.4615 12.24 19.6123 15 19.6154H55C57.76 19.6123 59.9967 17.4615 60 14.8077V11.9231C61.6569 11.9231 63 13.2145 63 14.8077V34.0385Z" fill="#1D3566"/>
<path d="M38 25.3846H30C29.4478 25.3846 29 25.8152 29 26.3462C29 26.8772 29.4478 27.3077 30 27.3077H38C38.5523 27.3077 39 26.8772 39 26.3462C39 25.8152 38.5523 25.3846 38 25.3846Z" fill="#1D3566"/>
<path d="M56 21.5385H55C54.4477 21.5385 54 21.969 54 22.5C54 23.031 54.4477 23.4615 55 23.4615H56C56.5522 23.4615 57 23.031 57 22.5C57 21.969 56.5522 21.5385 56 21.5385Z" fill="#1D3566"/>
<path d="M60 21.5385H59C58.4477 21.5385 58 21.969 58 22.5C58 23.031 58.4477 23.4615 59 23.4615H60C60.5522 23.4615 61 23.031 61 22.5C61 21.969 60.5522 21.5385 60 21.5385Z" fill="#1D3566"/>
<path d="M37.0006 41.7308C37.0006 41.1998 36.5528 40.7693 36.0006 40.7693C35.4483 40.7693 35.0006 41.1998 35.0006 41.7308C35.0187 42.5838 34.7242 43.4157 34.1686 44.0808C32.6113 46.1134 32.6113 48.8838 34.1686 50.9164C35.2777 52.3029 35.2777 54.2336 34.1686 55.6202C33.3933 56.6023 32.9822 57.8057 33.0006 59.0385C33.0006 59.5695 33.4483 60.0001 34.0006 60.0001C34.5528 60.0001 35.0006 59.5695 35.0006 59.0385C34.9823 58.1849 35.2768 57.3523 35.8326 56.6866C37.3885 54.6529 37.3885 51.8827 35.8326 49.8491C34.7235 48.4633 34.7235 46.533 35.8326 45.1472C36.6078 44.1658 37.019 42.963 37.0006 41.7308Z" fill="#1D3566"/>
<path d="M29.0006 41.7308C29.0006 41.1998 28.5528 40.7693 28.0006 40.7693C27.4483 40.7693 27.0006 41.1998 27.0006 41.7308C27.0187 42.5838 26.7242 43.4157 26.1686 44.0808C24.6113 46.1134 24.6113 48.8838 26.1686 50.9164C27.2777 52.3029 27.2777 54.2336 26.1686 55.6202C25.3933 56.6023 24.9822 57.8057 25.0006 59.0385C25.0006 59.5695 25.4483 60.0001 26.0006 60.0001C26.5528 60.0001 27.0006 59.5695 27.0006 59.0385C26.9823 58.1849 27.2768 57.3523 27.8326 56.6866C29.3885 54.6529 29.3885 51.8827 27.8326 49.8491C26.7235 48.4633 26.7235 46.533 27.8326 45.1472C28.6078 44.1658 29.019 42.963 29.0006 41.7308Z" fill="#1D3566"/>
<path d="M45.0006 41.7308C45.0006 41.1998 44.5528 40.7693 44.0006 40.7693C43.4483 40.7693 43.0006 41.1998 43.0006 41.7308C43.0187 42.5838 42.7242 43.4157 42.1686 44.0808C40.6113 46.1134 40.6113 48.8838 42.1686 50.9164C43.2777 52.3029 43.2777 54.2336 42.1686 55.6202C41.3933 56.6023 40.9822 57.8057 41.0006 59.0385C41.0006 59.5695 41.4483 60.0001 42.0006 60.0001C42.5528 60.0001 43.0006 59.5695 43.0006 59.0385C42.9823 58.1849 43.2768 57.3523 43.8326 56.6866C45.3885 54.6529 45.3885 51.8827 43.8326 49.8491C42.7235 48.4633 42.7235 46.533 43.8326 45.1472C44.6079 44.1658 45.019 42.963 45.0006 41.7308Z" fill="#1D3566"/>
</svg>
