<svg width="70" height="70" viewBox="0 0 70 70" fill="none" xmlns="http://www.w3.org/2000/svg">
<path d="M55.9029 28.9034H46.3223V19.5284L47.1062 17.9702C47.1797 17.8229 47.2099 17.6577 47.1933 17.4938L46.3223 8.7842C46.3007 8.56861 46.1994 8.36885 46.0384 8.2239C45.8773 8.07896 45.668 7.99925 45.4514 8.00033H41.9675C41.7509 7.99925 41.5416 8.07896 41.3805 8.2239C41.2195 8.36885 41.1182 8.56861 41.0966 8.7842L40.2256 17.4938C40.2092 17.6579 40.2394 17.8234 40.3127 17.9711L41.0966 19.5284V28.9034H34.1289V22.3581C35.4822 21.6862 36.6127 20.6377 37.3843 19.3386C38.1559 18.0395 38.5359 16.5452 38.4785 15.0353C38.4211 13.5254 37.9287 12.0643 37.0607 10.8276C36.1927 9.59081 34.9858 8.63113 33.5854 8.06391C33.4531 8.01025 33.3097 7.98991 33.1678 8.00468C33.0258 8.01945 32.8896 8.06888 32.7713 8.14863C32.6529 8.22837 32.5559 8.33599 32.4889 8.462C32.4219 8.58801 32.3869 8.72857 32.3869 8.87129V14.8679L30.645 16.0289L28.9031 14.8679V8.87129C28.9031 8.72557 28.8665 8.58218 28.7966 8.45427C28.7268 8.32635 28.626 8.218 28.5035 8.13914C28.3809 8.06027 28.2406 8.01342 28.0952 8.00286C27.9499 7.9923 27.8042 8.01839 27.6716 8.07872L27.5993 8.11181C26.2159 8.69475 25.029 9.66266 24.1797 10.9005C23.3304 12.1383 22.8544 13.5939 22.8082 15.0944C22.7621 16.5948 23.1478 18.077 23.9194 19.3647C24.6911 20.6523 25.8162 21.6913 27.1612 22.3581V28.9034H14.0967C12.4804 28.9055 10.9309 29.5485 9.78798 30.6914C8.64507 31.8343 8.00207 33.3838 8 35.0002V51.5484C8 52.4724 8.36705 53.3586 9.0204 54.0119C9.67374 54.6652 10.5599 55.0323 11.4838 55.0323H58.5158C59.4398 55.0323 60.3259 54.6652 60.9793 54.0119C61.6326 53.3586 61.9997 52.4724 61.9997 51.5484V35.0002C61.9976 33.3838 61.3546 31.8343 60.2117 30.6914C59.0688 29.5485 57.5192 28.9055 55.9029 28.9034ZM42.7514 9.74226H44.6588L45.4279 17.4172L44.9131 18.4519H42.5058L41.9832 17.4172L42.7514 9.74226ZM42.8385 20.1938H44.5804V28.9034H42.8385V20.1938ZM28.3579 20.989C27.3392 20.5772 26.4508 19.8978 25.7865 19.0225C25.1223 18.1473 24.7069 17.1089 24.5843 16.017C24.4616 14.9251 24.6364 13.8204 25.09 12.8197C25.5436 11.8189 26.2592 10.9594 27.1612 10.3319V15.3338C27.1612 15.4772 27.1965 15.6183 27.2641 15.7447C27.3317 15.8711 27.4295 15.9789 27.5487 16.0585L30.1616 17.8004C30.3048 17.8959 30.473 17.9469 30.645 17.9469C30.8171 17.9469 30.9853 17.8959 31.1284 17.8004L33.7413 16.0585C33.8605 15.9789 33.9583 15.8711 34.0259 15.7447C34.0935 15.6183 34.1289 15.4772 34.1289 15.3338V10.3267C35.0303 10.9552 35.7453 11.8154 36.1984 12.8165C36.6515 13.8176 36.8259 14.9225 36.7032 16.0145C36.5804 17.1066 36.1651 18.1452 35.5011 19.0207C34.837 19.8963 33.9489 20.5763 32.9304 20.989C32.7698 21.0542 32.6322 21.1659 32.5354 21.3097C32.4386 21.4535 32.3869 21.623 32.3869 21.7964V28.9034H28.9031V21.7964C28.903 21.6228 28.8511 21.4532 28.7539 21.3093C28.6568 21.1655 28.5189 21.0539 28.3579 20.989ZM58.5158 53.2904H11.4838C11.0219 53.2904 10.5788 53.1068 10.2521 52.7802C9.92545 52.4535 9.74192 52.0104 9.74192 51.5484V44.5807H60.2577V51.5484C60.2577 52.0104 60.0742 52.4535 59.7475 52.7802C59.4209 53.1068 58.9778 53.2904 58.5158 53.2904ZM60.2577 42.8388H9.74192V35.0002C9.74331 33.8456 10.2026 32.7388 11.0189 31.9224C11.8353 31.106 12.9422 30.6467 14.0967 30.6454H55.9029C57.0575 30.6467 58.1643 31.106 58.9807 31.9224C59.7971 32.7388 60.2564 33.8456 60.2577 35.0002V42.8388Z" fill="#1D3566" stroke="#1D3566" stroke-width="0.3"/>
<path d="M55.9035 46.3226H14.0973C13.4043 46.3226 12.7397 46.5979 12.2497 47.0879C11.7597 47.5779 11.4844 48.2425 11.4844 48.9355C11.4844 49.6285 11.7597 50.2931 12.2497 50.7831C12.7397 51.2731 13.4043 51.5484 14.0973 51.5484H55.9035C56.5964 51.5484 57.261 51.2731 57.751 50.7831C58.2411 50.2931 58.5163 49.6285 58.5163 48.9355C58.5163 48.2425 58.2411 47.5779 57.751 47.0879C57.261 46.5979 56.5964 46.3226 55.9035 46.3226ZM55.9035 49.8065H14.0973C13.8663 49.8065 13.6447 49.7147 13.4814 49.5514C13.3181 49.388 13.2263 49.1665 13.2263 48.9355C13.2263 48.7045 13.3181 48.483 13.4814 48.3197C13.6447 48.1563 13.8663 48.0646 14.0973 48.0646H55.9035C56.1344 48.0646 56.356 48.1563 56.5193 48.3197C56.6827 48.483 56.7744 48.7045 56.7744 48.9355C56.7744 49.1665 56.6827 49.388 56.5193 49.5514C56.356 49.7147 56.1344 49.8065 55.9035 49.8065Z" fill="#1D3566" stroke="#1D3566" stroke-width="0.3"/>
<path d="M55.9039 35.8711C55.3871 35.8711 54.8819 36.0243 54.4523 36.3114C54.0226 36.5986 53.6877 37.0066 53.4899 37.4841C53.2921 37.9615 53.2404 38.4869 53.3412 38.9937C53.442 39.5006 53.6909 39.9662 54.0563 40.3316C54.4217 40.697 54.8873 40.9458 55.3942 41.0467C55.901 41.1475 56.4264 41.0957 56.9038 40.898C57.3813 40.7002 57.7893 40.3653 58.0764 39.9356C58.3635 39.5059 58.5168 39.0008 58.5168 38.484C58.5168 37.791 58.2415 37.1264 57.7515 36.6364C57.2615 36.1464 56.5969 35.8711 55.9039 35.8711ZM55.9039 39.3549C55.7316 39.3549 55.5633 39.3039 55.42 39.2082C55.2768 39.1125 55.1652 38.9764 55.0992 38.8173C55.0333 38.6581 55.0161 38.483 55.0497 38.3141C55.0833 38.1451 55.1662 37.9899 55.288 37.8681C55.4098 37.7463 55.565 37.6634 55.734 37.6298C55.9029 37.5961 56.0781 37.6134 56.2372 37.6793C56.3964 37.7452 56.5324 37.8569 56.6281 38.0001C56.7238 38.1433 56.7749 38.3117 56.7749 38.484C56.7749 38.715 56.6831 38.9365 56.5198 39.0998C56.3564 39.2632 56.1349 39.3549 55.9039 39.3549Z" fill="#1D3566" stroke="#1D3566" stroke-width="0.3"/>
<path d="M48.9352 35.8711C48.4184 35.8711 47.9132 36.0243 47.4835 36.3114C47.0538 36.5986 46.7189 37.0066 46.5212 37.4841C46.3234 37.9615 46.2717 38.4869 46.3725 38.9937C46.4733 39.5006 46.7221 39.9662 47.0876 40.3316C47.453 40.697 47.9186 40.9458 48.4254 41.0467C48.9323 41.1475 49.4576 41.0957 49.9351 40.898C50.4125 40.7002 50.8206 40.3653 51.1077 39.9356C51.3948 39.5059 51.548 39.0008 51.548 38.484C51.548 37.791 51.2728 37.1264 50.7827 36.6364C50.2927 36.1464 49.6281 35.8711 48.9352 35.8711ZM48.9352 39.3549C48.7629 39.3549 48.5945 39.3039 48.4513 39.2082C48.308 39.1125 48.1964 38.9764 48.1305 38.8173C48.0646 38.6581 48.0473 38.483 48.0809 38.3141C48.1145 38.1451 48.1975 37.9899 48.3193 37.8681C48.4411 37.7463 48.5963 37.6634 48.7652 37.6298C48.9342 37.5961 49.1093 37.6134 49.2685 37.6793C49.4276 37.7452 49.5636 37.8569 49.6593 38.0001C49.755 38.1433 49.8061 38.3117 49.8061 38.484C49.8061 38.715 49.7144 38.9365 49.551 39.0998C49.3877 39.2632 49.1661 39.3549 48.9352 39.3549Z" fill="#1D3566" stroke="#1D3566" stroke-width="0.3"/>
<path d="M34.1289 56.7742H35.8708V61.9999H34.1289V56.7742Z" fill="#1D3566" stroke="#1D3566" stroke-width="0.3"/>
<path d="M16.709 56.7742H18.4509V61.9999H16.709V56.7742Z" fill="#1D3566" stroke="#1D3566" stroke-width="0.3"/>
<path d="M25.4199 56.7742H27.1618V61.9999H25.4199V56.7742Z" fill="#1D3566" stroke="#1D3566" stroke-width="0.3"/>
<path d="M42.8379 56.7742H44.5798V61.9999H42.8379V56.7742Z" fill="#1D3566" stroke="#1D3566" stroke-width="0.3"/>
<path d="M51.5488 56.7742H53.2908V61.9999H51.5488V56.7742Z" fill="#1D3566" stroke="#1D3566" stroke-width="0.3"/>
</svg>
