<svg width="70" height="70" viewBox="0 0 70 70" fill="none" xmlns="http://www.w3.org/2000/svg">
<path d="M57.45 10H11.55C10.8743 10.002 10.2269 10.2705 9.74911 10.7469C9.27133 11.2232 9.00202 11.8687 9 12.5424V34.5763C9.00202 35.2499 9.27133 35.8954 9.74911 36.3718C10.2269 36.8481 10.8743 37.1166 11.55 37.1186H19.2V57.4576C19.202 58.1313 19.4713 58.7768 19.9491 59.2531C20.4269 59.7295 21.0743 59.998 21.75 60H47.25C47.9257 59.998 48.5731 59.7295 49.0509 59.2531C49.5287 58.7768 49.798 58.1313 49.8 57.4576V37.1186H57.45C58.1257 37.1166 58.7731 36.8481 59.2509 36.3718C59.7287 35.8954 59.998 35.2499 60 34.5763V12.5424C59.998 11.8687 59.7287 11.2232 59.2509 10.7469C58.7731 10.2705 58.1257 10.002 57.45 10ZM19.2 35.4237H14.1V33.7288H19.2V35.4237ZM48.1 57.4576C48.1 57.6824 48.0104 57.8979 47.851 58.0569C47.6916 58.2158 47.4754 58.3051 47.25 58.3051H21.75C21.5246 58.3051 21.3084 58.2158 21.149 58.0569C20.9896 57.8979 20.9 57.6824 20.9 57.4576V33.7288C20.9013 33.5833 20.9393 33.4405 21.0105 33.3136V33.3051C21.0864 33.1767 21.1945 33.0701 21.3241 32.9958C21.4537 32.9216 21.6005 32.8821 21.75 32.8814H47.25C47.4006 32.8816 47.5485 32.9218 47.6784 32.9977C47.8083 33.0737 47.9157 33.1827 47.9895 33.3136C48.0607 33.4405 48.0987 33.5833 48.1 33.7288V57.4576ZM54.9 35.4237H49.8V33.7288H54.9V35.4237ZM54.9 32.0339H49.1285C48.8938 31.7676 48.6049 31.5543 48.2809 31.4082C47.957 31.262 47.6055 31.1864 47.25 31.1864H21.75C21.3943 31.1856 21.0426 31.2608 20.7185 31.4069C20.3945 31.5531 20.1056 31.7669 19.8715 32.0339H14.1V30.339C14.1 30.1142 14.1896 29.8987 14.349 29.7397C14.5084 29.5808 14.7246 29.4915 14.95 29.4915H54.05C54.2754 29.4915 54.4916 29.5808 54.651 29.7397C54.8104 29.8987 54.9 30.1142 54.9 30.339V32.0339ZM58.3 34.5763C58.3 34.801 58.2104 35.0166 58.051 35.1755C57.8916 35.3344 57.6754 35.4237 57.45 35.4237H56.6V30.339C56.598 29.6653 56.3287 29.0198 55.8509 28.5435C55.3731 28.0671 54.7257 27.7986 54.05 27.7966H14.95C14.2743 27.7986 13.6269 28.0671 13.1491 28.5435C12.6713 29.0198 12.402 29.6653 12.4 30.339V35.4237H11.55C11.3246 35.4237 11.1084 35.3344 10.949 35.1755C10.7896 35.0166 10.7 34.801 10.7 34.5763V12.5424C10.7 12.3176 10.7896 12.1021 10.949 11.9431C11.1084 11.7842 11.3246 11.6949 11.55 11.6949H57.45C57.6754 11.6949 57.8916 11.7842 58.051 11.9431C58.2104 12.1021 58.3 12.3176 58.3 12.5424V34.5763Z" fill="#1D3566"/>
<path d="M29.4004 13.3899H14.9504C14.2741 13.3899 13.6255 13.6577 13.1473 14.1345C12.6691 14.6113 12.4004 15.258 12.4004 15.9323C12.4004 16.6065 12.6691 17.2532 13.1473 17.73C13.6255 18.2068 14.2741 18.4746 14.9504 18.4746H29.4004C30.0767 18.4746 30.7253 18.2068 31.2035 17.73C31.6817 17.2532 31.9504 16.6065 31.9504 15.9323C31.9504 15.258 31.6817 14.6113 31.2035 14.1345C30.7253 13.6577 30.0767 13.3899 29.4004 13.3899ZM29.4004 16.7797H14.9504C14.725 16.7797 14.5088 16.6904 14.3494 16.5315C14.1899 16.3726 14.1004 16.157 14.1004 15.9323C14.1004 15.7075 14.1899 15.492 14.3494 15.333C14.5088 15.1741 14.725 15.0848 14.9504 15.0848H29.4004C29.6258 15.0848 29.842 15.1741 30.0014 15.333C30.1608 15.492 30.2504 15.7075 30.2504 15.9323C30.2504 16.157 30.1608 16.3726 30.0014 16.5315C29.842 16.6904 29.6258 16.7797 29.4004 16.7797Z" fill="#1D3566"/>
<path d="M45.9618 38.4026C45.9617 37.7323 45.7622 37.077 45.3886 36.5197C45.015 35.9624 44.4841 35.528 43.8629 35.2715C43.2417 35.015 42.5582 34.9478 41.8987 35.0786C41.2393 35.2093 40.6335 35.5321 40.1581 36.006L35.0581 41.0907C34.9753 40.8406 34.9334 40.5787 34.934 40.3153C34.9479 39.5231 34.8012 38.7362 34.5025 38.0019C34.2038 37.2676 33.7593 36.6011 33.1957 36.0424C32.3231 35.179 31.2042 34.6055 29.9922 34.4004C28.7801 34.1953 27.5341 34.3686 26.4246 34.8967C26.302 34.9553 26.1953 35.0425 26.1135 35.1508C26.0317 35.259 25.9771 35.3853 25.9544 35.519C25.9317 35.6527 25.9414 35.7898 25.9829 35.9189C26.0243 36.0481 26.0962 36.1654 26.1925 36.2611L29.2185 39.2712L28.9151 40.1695L28.0132 40.4704L24.9855 37.4517C24.8892 37.3565 24.7715 37.2854 24.6422 37.2443C24.5129 37.2032 24.3757 37.1932 24.2418 37.2153C24.1077 37.2381 23.9811 37.2926 23.8725 37.3743C23.7639 37.456 23.6766 37.5625 23.6179 37.6848C23.162 38.6483 22.9718 39.7155 23.0668 40.7766C23.1618 41.8377 23.5386 42.8544 24.1585 43.7221C24.7082 44.4809 25.431 45.0985 26.2671 45.524C27.1033 45.9495 28.029 46.1708 28.9678 46.1695C29.5656 46.1533 30.1505 46.3444 30.6227 46.7102L28.9873 48.3416H28.1373C28.002 48.3416 27.8686 48.3738 27.7482 48.4355C27.6279 48.4973 27.5241 48.5868 27.4454 48.6967L24.4407 52.8907C24.3238 53.0539 24.2686 53.2531 24.2851 53.453C24.3016 53.6528 24.3887 53.8404 24.5308 53.9823L26.9346 56.3797C27.0768 56.5215 27.2649 56.6085 27.4653 56.6251C27.6658 56.6417 27.8657 56.5869 28.0294 56.4704L32.2369 53.4738C32.3471 53.3954 32.4369 53.2919 32.4988 53.1719C32.5608 53.0519 32.5931 52.9189 32.593 52.784V51.9365L34.2514 50.2831L39.2018 55.2263C39.5166 55.5424 39.8911 55.793 40.3037 55.9636C40.7164 56.1343 41.1589 56.2215 41.6056 56.2204C42.28 56.2223 42.9398 56.0244 43.5012 55.6518C44.0626 55.2793 44.5004 54.7488 44.759 54.1278C45.0177 53.5068 45.0854 52.8233 44.9538 52.1638C44.8221 51.5043 44.497 50.8987 44.0196 50.4238L39.6659 46.0831L44.9682 40.7967C45.2843 40.4829 45.5348 40.1097 45.7054 39.6988C45.8759 39.2879 45.9631 38.8473 45.9618 38.4026ZM28.9958 44.4746H28.9746C28.3664 44.4763 27.7649 44.347 27.2114 44.0957C26.6579 43.8443 26.1653 43.4767 25.7674 43.0181C25.3694 42.5595 25.0755 42.0206 24.9056 41.4383C24.7358 40.856 24.694 40.244 24.7832 39.6441L27.1862 42.039C27.2979 42.1503 27.4385 42.2284 27.5923 42.2645C27.746 42.3006 27.9068 42.2932 28.0566 42.2433L29.8586 41.6416C29.9833 41.6 30.0967 41.5302 30.1898 41.4375C30.2828 41.3449 30.3531 41.232 30.3949 41.1077L30.9984 39.3102C31.0486 39.1607 31.0559 39.0002 31.0196 38.8467C30.9832 38.6933 30.9047 38.553 30.7927 38.4416L28.3906 36.0517C29.0432 35.9586 29.7086 36.0177 30.3344 36.2243C30.9602 36.4309 31.5294 36.7794 31.9972 37.2424C32.3989 37.6417 32.7156 38.1177 32.9284 38.6419C33.1412 39.1662 33.2457 39.7278 33.2356 40.2933C33.2302 41.0208 33.4148 41.7372 33.7711 42.3721L33.5493 42.5933C33.3899 42.7522 33.3004 42.9677 33.3004 43.1924C33.3004 43.4171 33.3899 43.6327 33.5493 43.7916L31.8255 45.5085C31.0374 44.8363 30.033 44.4693 28.9958 44.4746ZM31.1429 50.9865C30.9835 51.1454 30.8939 51.3609 30.8939 51.5856V52.3484L27.6282 54.6738L26.2418 53.2916L28.5742 50.0365H29.3393C29.5647 50.0364 29.7808 49.9471 29.9402 49.7882L34.7486 44.9941L35.9505 46.1924L31.1429 50.9865ZM42.8151 51.6246C43.1326 51.9432 43.3111 52.3737 43.3121 52.8227C43.3131 53.2718 43.1363 53.703 42.8202 54.0229C42.4959 54.3338 42.0639 54.5079 41.614 54.509C41.1642 54.5101 40.7312 54.3381 40.4054 54.0289L35.4541 49.0848L37.1542 47.3899C37.3135 47.5488 37.5297 47.638 37.7551 47.638C37.9805 47.638 38.1966 47.5488 38.356 47.3899L38.4614 47.2882L42.8151 51.6246ZM43.7646 39.6009L37.7534 45.5933L35.3496 43.1958L41.3599 37.2043C41.6837 36.896 42.1141 36.7239 42.5618 36.7239C43.0096 36.7239 43.44 36.896 43.7637 37.2043C44.0824 37.5221 44.2615 37.9532 44.2615 38.4026C44.2615 38.852 44.0824 39.2831 43.7637 39.6009H43.7646Z" fill="#1D3566"/>
</svg>
