<svg width="70" height="70" viewBox="0 0 70 70" fill="none" xmlns="http://www.w3.org/2000/svg">
<path d="M26.935 56.7742C27.5766 56.7742 28.192 56.5193 28.6457 56.0656C29.0994 55.6119 29.3543 54.9965 29.3543 54.3548C29.3543 53.3242 28.1269 51.4347 27.5987 50.671C27.5205 50.5693 27.42 50.4869 27.3049 50.4302C27.1898 50.3735 27.0633 50.344 26.935 50.344C26.8067 50.344 26.6801 50.3735 26.565 50.4302C26.45 50.4869 26.3494 50.5693 26.2713 50.671C25.743 51.4347 24.5156 53.3242 24.5156 54.3548C24.5156 54.9965 24.7705 55.6119 25.2242 56.0656C25.678 56.5193 26.2933 56.7742 26.935 56.7742V56.7742ZM26.935 52.6242C27.2942 53.1545 27.5665 53.7387 27.7414 54.3548C27.7414 54.5687 27.6565 54.7739 27.5052 54.9251C27.354 55.0763 27.1489 55.1613 26.935 55.1613C26.7211 55.1613 26.516 55.0763 26.3647 54.9251C26.2135 54.7739 26.1285 54.5687 26.1285 54.3548C26.3035 53.7387 26.5757 53.1545 26.935 52.6242V52.6242Z" fill="white"/>
<path d="M54.3548 10H15.6452C14.1485 10.0017 12.7136 10.597 11.6553 11.6553C10.597 12.7136 10.0017 14.1485 10 15.6452V31.7742C10 31.9881 10.085 32.1932 10.2362 32.3444C10.3874 32.4957 10.5926 32.5806 10.8065 32.5806H14.9621L15.6565 36.746C15.6879 36.9341 15.7851 37.105 15.9307 37.2283C16.0763 37.3516 16.2608 37.4193 16.4516 37.4194H27.4677L30.9677 44.0702V47.0968C30.9677 47.3107 31.0527 47.5158 31.2039 47.667C31.3552 47.8183 31.5603 47.9032 31.7742 47.9032H32.6218C32.824 49.8914 33.7562 51.734 35.2382 53.0746C36.7202 54.4153 38.6467 55.1588 40.6452 55.1613C41.9281 55.1626 43.1581 55.6728 44.0652 56.5799C44.9724 57.4871 45.4826 58.7171 45.4839 60H47.0968C47.0949 58.2895 46.4145 56.6496 45.205 55.4401C43.9955 54.2306 42.3556 53.5503 40.6452 53.5484C39.075 53.5458 37.5596 52.9712 36.3824 51.9322C35.2052 50.8932 34.4468 49.4609 34.2492 47.9032H35.879C36.0704 49.0295 36.6536 50.0518 37.5258 50.7897C38.3979 51.5275 39.5028 51.9334 40.6452 51.9355C42.7833 51.9378 44.8332 52.7882 46.345 54.3001C47.8569 55.812 48.7073 57.8619 48.7097 60H50.3226C50.3198 57.4342 49.2993 54.9744 47.4851 53.1601C45.6708 51.3458 43.2109 50.3254 40.6452 50.3226C39.9321 50.3199 39.24 50.081 38.6771 49.6433C38.1142 49.2056 37.7121 48.5937 37.5339 47.9032H38.2258C38.4397 47.9032 38.6448 47.8183 38.7961 47.667C38.9473 47.5158 39.0323 47.3107 39.0323 47.0968V44.0702L42.5323 37.4194H53.5484C53.7392 37.4193 53.9237 37.3516 54.0693 37.2283C54.2149 37.105 54.3121 36.9341 54.3435 36.746L55.0379 32.5806H59.1935C59.4074 32.5806 59.6126 32.4957 59.7638 32.3444C59.915 32.1932 60 31.9881 60 31.7742V15.6452C59.9983 14.1485 59.403 12.7136 58.3447 11.6553C57.2864 10.597 55.8515 10.0017 54.3548 10V10ZM45.9282 30.9677L46.7742 29.3548H53.5484V30.9677H45.9282ZM37.7419 43.0645H36.8L39.6863 29.3548H44.9548L37.7419 43.0645ZM25.0452 29.3548H30.3137L33.2 43.0645H32.2581L25.0452 29.3548ZM34.8476 43.0645L31.9613 29.3548H38.0387L35.1524 43.0645H34.8476ZM32.5806 44.6774H37.4194V46.2903H32.5806V44.6774ZM53.5484 21.2903H16.4516V19.6774H53.5484V21.2903ZM16.4516 22.9032H53.5484V24.5161H16.4516V22.9032ZM16.4516 26.129H53.5484V27.7419H16.4516V26.129ZM16.4516 29.3548H23.2258L24.075 30.9677H16.4516V29.3548ZM17.1347 35.8065L16.5968 32.5806H24.9194L26.6169 35.8065H17.1347ZM52.8653 35.8065H43.3815L45.075 32.5806H53.4032L52.8653 35.8065ZM58.3871 30.9677H55.1613V18.871C55.1613 18.6571 55.0763 18.452 54.9251 18.3007C54.7738 18.1495 54.5687 18.0645 54.3548 18.0645H15.6452C15.4313 18.0645 15.2262 18.1495 15.0749 18.3007C14.9237 18.452 14.8387 18.6571 14.8387 18.871V30.9677H11.6129V15.6452C11.6142 14.5761 12.0394 13.5513 12.7953 12.7953C13.5513 12.0394 14.5761 11.6142 15.6452 11.6129H54.3548C55.4239 11.6142 56.4487 12.0394 57.2047 12.7953C57.9606 13.5513 58.3858 14.5761 58.3871 15.6452V30.9677Z" fill="white"/>
<path d="M17.4002 42.6065C16.872 43.3702 15.6445 45.2597 15.6445 46.2904C15.6445 46.932 15.8994 47.5474 16.3531 48.0011C16.8069 48.4548 17.4222 48.7097 18.0639 48.7097C18.7055 48.7097 19.3209 48.4548 19.7746 48.0011C20.2283 47.5474 20.4832 46.932 20.4832 46.2904C20.4832 45.2597 19.2558 43.3702 18.7276 42.6065C18.6494 42.5048 18.5489 42.4224 18.4338 42.3657C18.3187 42.309 18.1922 42.2795 18.0639 42.2795C17.9356 42.2795 17.809 42.309 17.6939 42.3657C17.5789 42.4224 17.4784 42.5048 17.4002 42.6065ZM18.0639 47.0968C17.85 47.0968 17.6449 47.0119 17.4936 46.8606C17.3424 46.7094 17.2574 46.5043 17.2574 46.2904C17.4323 45.674 17.7045 45.0894 18.0639 44.5589C18.4232 45.0894 18.6955 45.674 18.8703 46.2904C18.8703 46.5043 18.7854 46.7094 18.6341 46.8606C18.4829 47.0119 18.2778 47.0968 18.0639 47.0968Z" fill="white"/>
<path d="M23.0467 38.5742C22.5184 39.3379 21.291 41.2274 21.291 42.258C21.291 42.8997 21.5459 43.5151 21.9996 43.9688C22.4533 44.4225 23.0687 44.6774 23.7104 44.6774C24.352 44.6774 24.9674 44.4225 25.4211 43.9688C25.8748 43.5151 26.1297 42.8997 26.1297 42.258C26.1297 41.2274 24.9023 39.3379 24.3741 38.5742C24.2959 38.4725 24.1954 38.3901 24.0803 38.3334C23.9652 38.2767 23.8387 38.2472 23.7104 38.2472C23.5821 38.2472 23.4555 38.2767 23.3404 38.3334C23.2253 38.3901 23.1248 38.4725 23.0467 38.5742V38.5742ZM23.7104 43.0645C23.4965 43.0645 23.2914 42.9795 23.1401 42.8283C22.9889 42.6771 22.9039 42.4719 22.9039 42.258C23.0788 41.6416 23.351 41.0571 23.7104 40.5266C24.0697 41.0571 24.342 41.6416 24.5168 42.258C24.5168 42.4719 24.4319 42.6771 24.2806 42.8283C24.1294 42.9795 23.9243 43.0645 23.7104 43.0645Z" fill="white"/>
<path d="M45.6267 38.5742C45.0985 39.3379 43.8711 41.2274 43.8711 42.258C43.8711 42.8997 44.126 43.5151 44.5797 43.9688C45.0334 44.4225 45.6488 44.6774 46.2904 44.6774C46.9321 44.6774 47.5475 44.4225 48.0012 43.9688C48.4549 43.5151 48.7098 42.8997 48.7098 42.258C48.7098 41.2274 47.4824 39.3379 46.9542 38.5742C46.876 38.4725 46.7755 38.3901 46.6604 38.3334C46.5453 38.2767 46.4187 38.2472 46.2904 38.2472C46.1622 38.2472 46.0356 38.2767 45.9205 38.3334C45.8054 38.3901 45.7049 38.4725 45.6267 38.5742V38.5742ZM47.0969 42.258C47.0969 42.4719 47.0119 42.6771 46.8607 42.8283C46.7095 42.9795 46.5043 43.0645 46.2904 43.0645C46.0766 43.0645 45.8714 42.9795 45.7202 42.8283C45.569 42.6771 45.484 42.4719 45.484 42.258C45.6589 41.6416 45.9311 41.0571 46.2904 40.5266C46.6498 41.0571 46.922 41.6416 47.0969 42.258V42.258Z" fill="white"/>
<path d="M52.5987 42.6065C52.5205 42.5048 52.42 42.4224 52.3049 42.3657C52.1898 42.309 52.0633 42.2795 51.935 42.2795C51.8067 42.2795 51.6801 42.309 51.565 42.3657C51.45 42.4224 51.3494 42.5048 51.2713 42.6065C50.743 43.3702 49.5156 45.2597 49.5156 46.2904C49.5156 46.932 49.7705 47.5474 50.2242 48.0011C50.678 48.4548 51.2933 48.7097 51.935 48.7097C52.5766 48.7097 53.192 48.4548 53.6457 48.0011C54.0994 47.5474 54.3543 46.932 54.3543 46.2904C54.3543 45.2597 53.1269 43.3702 52.5987 42.6065ZM51.935 47.0968C51.7211 47.0968 51.516 47.0119 51.3647 46.8606C51.2135 46.7094 51.1285 46.5043 51.1285 46.2904C51.3034 45.674 51.5756 45.0894 51.935 44.5589C52.2943 45.0894 52.5666 45.674 52.7414 46.2904C52.7414 46.5043 52.6565 46.7094 52.5052 46.8606C52.354 47.0119 52.1489 47.0968 51.935 47.0968Z" fill="white"/>
</svg>
