<svg width="24" height="24" viewBox="0 0 24 24" fill="none" xmlns="http://www.w3.org/2000/svg">
<path d="M18.364 14.636C17.3837 13.6558 16.217 12.9301 14.9439 12.4909C16.3074 11.5518 17.2031 9.9802 17.2031 8.20312C17.2031 5.33413 14.869 3 12 3C9.131 3 6.79688 5.33413 6.79688 8.20312C6.79688 9.9802 7.69262 11.5518 9.05609 12.4909C7.78308 12.9301 6.61631 13.6558 5.63605 14.636C3.93618 16.3359 3 18.596 3 21H4.40625C4.40625 16.8128 7.81279 13.4062 12 13.4062C16.1872 13.4062 19.5938 16.8128 19.5938 21H21C21 18.596 20.0638 16.3359 18.364 14.636ZM12 12C9.90641 12 8.20312 10.2968 8.20312 8.20312C8.20312 6.1095 9.90641 4.40625 12 4.40625C14.0936 4.40625 15.7969 6.1095 15.7969 8.20312C15.7969 10.2968 14.0936 12 12 12Z" fill="white"/>
</svg>
