<svg width="380" height="300" viewBox="0 0 380 300" fill="none" xmlns="http://www.w3.org/2000/svg">
<path d="M288.462 60.1683H191.316C185.999 60.1683 181.688 55.8582 181.688 50.5418V35.6852C181.688 30.3688 185.999 26.0588 191.316 26.0588H288.464C293.784 26.0588 298.093 30.3688 298.093 35.6852V50.5418C298.093 55.8582 293.782 60.1683 288.462 60.1683Z" fill="white"/>
<path d="M288.465 60.2252H191.318C185.977 60.2252 181.633 55.8802 181.633 50.5418V35.6852C181.633 30.3449 185.977 26 191.318 26H288.466C293.808 26 298.152 30.3449 298.152 35.6834V50.54C298.152 55.8802 293.806 60.2252 288.465 60.2252ZM191.318 26.1139C186.039 26.1139 181.747 30.4074 181.747 35.6834V50.54C181.747 55.8178 186.041 60.1113 191.318 60.1113H288.466C293.745 60.1113 298.04 55.8178 298.04 50.54V35.6834C298.04 30.4055 293.745 26.1139 288.466 26.1139H191.318Z" fill="#86B1F2"/>
<path d="M124.883 273.17H120.102L118.811 260.539H126.174L124.883 273.17Z" fill="#F1F1FA"/>
<path d="M311.186 273.17H306.404L305.111 260.539H312.477L311.186 273.17Z" fill="#F1F1FA"/>
<path d="M228.565 176.206H302.689C310.569 176.206 316.957 182.593 316.957 190.471V219.692H214.297V190.471C214.297 182.593 220.685 176.206 228.565 176.206Z" fill="#1D3566"/>
<path d="M132.275 176.171H290.494C299.63 176.171 307.038 183.575 307.038 192.711V228.835H115.73V192.709C115.73 183.575 123.138 176.171 132.275 176.171Z" fill="#F1F1FA"/>
<path d="M316.922 226.059L109.481 226.055L109.467 262.449H316.922V226.059Z" fill="#F1F1FA"/>
<path d="M115.342 248.191H102.634C98.5419 248.191 95.2246 244.874 95.2246 240.783V200.064C95.2246 195.973 98.5419 192.656 102.634 192.656H115.342C119.434 192.656 122.751 195.973 122.751 200.064V240.785C122.751 244.874 119.434 248.191 115.342 248.191Z" fill="white"/>
<path d="M321.962 248.033H309.233C305.146 248.033 301.832 244.72 301.832 240.636V200.053C301.832 195.967 305.146 192.656 309.233 192.656H321.962C326.049 192.656 329.361 195.969 329.361 200.053V240.636C329.361 244.72 326.049 248.033 321.962 248.033Z" fill="white"/>
<path d="M316.515 248.026H110.108C105.876 248.026 102.443 244.595 102.443 240.362V232.91C102.443 228.679 105.875 225.247 110.108 225.247H316.515C320.749 225.247 324.18 228.677 324.18 232.91V240.362C324.178 244.595 320.747 248.026 316.515 248.026Z" fill="white"/>
<path d="M346 273.875C346 273.41 345.623 273.034 345.159 273.034H39.9092C39.3544 273.034 38.9062 273.41 38.9062 273.875C38.9062 274.34 39.3563 274.716 39.9092 274.716H345.159C345.623 274.716 346 274.34 346 273.875Z" fill="#1D3566"/>
<path d="M97.0698 273.04H93.9049L93.0508 264.989H97.9257L97.0698 273.04Z" fill="#EFD2BF"/>
<path d="M79.7885 273.04H76.6255L75.7695 264.983H80.6445L79.7885 273.04Z" fill="#EFD2BF"/>
<path d="M111.121 273.034H107.958L107.102 264.983H111.977L111.121 273.034Z" fill="#EFD2BF"/>
<path d="M114.159 210.117H59.8496V265.176H114.159V210.117Z" fill="#EFD2BF"/>
<path d="M114.157 210.117H98.4082V265.176H114.157V210.117Z" fill="#EFD2BF"/>
<path d="M98.461 228.152H61.3828V229.102H98.461V228.152Z" fill="#EFD2BF"/>
<path d="M98.461 243.387H61.3828V244.336H98.461V243.387Z" fill="#EFD2BF"/>
<path d="M32.3273 235.571C32.2612 236.142 32.669 236.66 33.2402 236.726C33.8115 236.792 34.3295 236.385 34.3956 235.814C34.4617 235.242 34.054 234.725 33.4827 234.658C32.9115 234.591 32.3935 235 32.3273 235.571Z" fill="#EFD2BF"/>
<path d="M33.8764 236.263C33.487 236.857 32.5612 236.519 32.6439 235.817C32.6861 235.452 33.0149 235.184 33.3915 235.228C33.8911 235.285 34.1482 235.85 33.8764 236.263Z" fill="#EFD2BF"/>
<path d="M27.1042 237.143C27.4752 237.582 27.4201 238.239 26.9811 238.61C26.5421 238.981 25.8845 238.926 25.5135 238.487C25.1424 238.048 25.1975 237.391 25.6365 237.02C26.0755 236.647 26.7331 236.702 27.1042 237.143Z" fill="#EFD2BF"/>
<path d="M26.8951 238.471C26.6122 238.71 26.1861 238.675 25.9455 238.392C25.7544 238.166 25.7342 237.835 25.8959 237.589C25.9308 237.536 25.9748 237.487 26.0244 237.444C26.1622 237.329 26.3367 237.274 26.5149 237.288C27.1155 237.336 27.3506 238.087 26.8951 238.471Z" fill="#EFD2BF"/>
<path d="M31.8017 235.542C31.8036 236.117 31.3388 236.585 30.7639 236.587C30.189 236.588 29.7206 236.124 29.7188 235.549C29.7169 234.974 30.1816 234.506 30.7566 234.504C31.3315 234.502 31.7999 234.967 31.8017 235.542Z" fill="#EFD2BF"/>
<path d="M30.787 236.425C30.2488 236.427 29.931 235.826 30.2212 235.384C30.5904 234.82 31.4556 235.094 31.4592 235.749C31.4592 236.12 31.1598 236.423 30.787 236.425Z" fill="#EFD2BF"/>
<path d="M36.4267 237.332C36.0594 237.775 35.4018 237.834 34.9591 237.464C34.5164 237.097 34.4576 236.44 34.825 235.999C35.1924 235.556 35.85 235.498 36.2908 235.865C36.7353 236.234 36.7941 236.892 36.4267 237.332Z" fill="#EFD2BF"/>
<path d="M36.0302 237.272C35.7932 237.556 35.3671 237.595 35.0824 237.358C34.7995 237.121 34.7554 236.699 34.996 236.41C35.233 236.126 35.6591 236.087 35.9438 236.324C36.2267 236.561 36.2708 236.983 36.0302 237.272Z" fill="#EFD2BF"/>
<path d="M28.5534 249.348C28.8106 248.834 28.6049 248.207 28.0906 247.95C27.5763 247.693 26.9499 247.899 26.6927 248.413C26.4356 248.927 26.6413 249.554 27.1556 249.811C27.6699 250.07 28.2945 249.862 28.5534 249.348Z" fill="#EFD2BF"/>
<path d="M28.3008 249.078C28.1134 249.363 27.7424 249.464 27.4356 249.309C27.0793 249.129 26.9526 248.678 27.1748 248.338C27.3622 248.053 27.7332 247.952 28.04 248.106C28.4 248.286 28.5231 248.738 28.3008 249.078Z" fill="#EFD2BF"/>
<path d="M25.0614 245.822C25.5904 245.594 25.8329 244.981 25.6051 244.454C25.3774 243.927 24.7638 243.683 24.2367 243.91C23.7077 244.138 23.4652 244.751 23.693 245.278C23.9207 245.807 24.5342 246.05 25.0614 245.822Z" fill="#EFD2BF"/>
<path d="M25.4101 245.177C25.1199 245.622 24.4421 245.569 24.2291 245.075C24.0821 244.733 24.2383 244.338 24.5799 244.189C25.1916 243.925 25.7757 244.619 25.4101 245.177Z" fill="#EFD2BF"/>
<path d="M24.6573 240.878C25.2084 241.044 25.7888 240.73 25.9541 240.179C26.1194 239.628 25.8053 239.047 25.2543 238.882C24.7032 238.717 24.1228 239.031 23.9575 239.582C23.794 240.133 24.1063 240.713 24.6573 240.878Z" fill="#EFD2BF"/>
<path d="M24.554 240.283C24.4695 240.125 24.4493 239.944 24.5007 239.771C24.6734 239.198 25.454 239.119 25.7387 239.644C25.8232 239.802 25.8434 239.984 25.792 240.157C25.6212 240.73 24.8387 240.81 24.554 240.283Z" fill="#EFD2BF"/>
<path d="M25.299 246.29C25.7967 246 26.4341 246.169 26.7225 246.667C27.0127 247.164 26.8437 247.802 26.346 248.09C25.8482 248.378 25.2108 248.211 24.9224 247.713C24.634 247.216 24.8012 246.58 25.299 246.29Z" fill="#EFD2BF"/>
<path d="M25.8183 247.715C25.2434 247.563 25.1332 246.784 25.6512 246.483C25.9726 246.296 26.3859 246.406 26.5714 246.725C26.8745 247.245 26.3933 247.868 25.8183 247.715Z" fill="#EFD2BF"/>
<path d="M27.5227 236.829C27.8387 237.31 28.4852 237.442 28.9647 237.127C29.4459 236.811 29.5782 236.164 29.2622 235.685C28.9463 235.204 28.2997 235.072 27.8203 235.388C27.3409 235.703 27.2068 236.35 27.5227 236.829Z" fill="#EFD2BF"/>
<path d="M28.8566 237.007C28.5461 237.211 28.1273 237.125 27.9235 236.814C27.7196 236.506 27.8041 236.087 28.1163 235.881C28.4267 235.678 28.8455 235.764 29.0494 236.074C29.1964 236.298 29.1982 236.588 29.0494 236.814C29.0329 236.833 28.9815 236.925 28.8566 237.007Z" fill="#EFD2BF"/>
<path d="M24.5367 241.389C25.1043 241.486 25.4827 242.026 25.3854 242.592C25.288 243.157 24.748 243.538 24.1822 243.44C23.6147 243.343 23.2363 242.803 23.3336 242.237C23.431 241.672 23.9692 241.292 24.5367 241.389Z" fill="#EFD2BF"/>
<path d="M24.4541 243.089C23.9747 243.007 23.7414 242.458 24.004 242.057C24.151 241.833 24.4173 241.718 24.6818 241.764C25.0474 241.826 25.2935 242.177 25.231 242.542C25.1686 242.908 24.8196 243.152 24.4541 243.089Z" fill="#EFD2BF"/>
<path d="M31.9236 242.164L33.1947 236.708L33.0037 236.664L31.6793 242.349L31.0052 236.55L30.8105 236.572L31.4571 242.138L28.9204 237.141L28.7459 237.229L31.3873 242.436L27.1424 238.427L27.0083 238.57L31.0824 242.417L25.9282 240.219L25.8511 240.399L31.222 242.689L25.3919 242.347L25.3809 242.544L30.974 242.873L25.6123 244.502L25.6692 244.689L31.2569 242.992L26.5711 246.476L26.6887 246.634L31.1852 243.29L28.1251 247.983L28.2904 248.09L35.1711 237.593L35.0077 237.485L31.9236 242.164Z" fill="#EFD2BF"/>
<path d="M31.4747 242.12L31.0137 242.823L53.0257 257.24L53.4867 256.537L31.4747 242.12Z" fill="#EFD2BF"/>
<path d="M42.9242 208.96C42.3566 209.751 42.5384 210.851 43.3301 211.419C44.1218 211.986 45.222 211.804 45.7896 211.013C46.3572 210.221 46.1754 209.121 45.3837 208.554C44.592 207.988 43.4917 208.17 42.9242 208.96Z" fill="#EFD2BF"/>
<path d="M44.6472 211.255C43.5837 211.815 42.4908 210.556 43.1888 209.584C43.5506 209.079 44.2596 208.951 44.7795 209.323C45.4719 209.819 45.3875 210.866 44.6472 211.255Z" fill="#EFD2BF"/>
<path d="M33.9048 207.008C34.094 207.963 33.4731 208.89 32.518 209.079C31.5628 209.268 30.6352 208.648 30.446 207.693C30.2569 206.738 30.8777 205.81 31.8329 205.621C32.788 205.432 33.7156 206.053 33.9048 207.008Z" fill="#EFD2BF"/>
<path d="M32.505 208.804C31.8879 208.925 31.2872 208.523 31.166 207.907C31.0686 207.417 31.3093 206.91 31.7519 206.677C31.8493 206.626 31.954 206.589 32.0624 206.567C32.3618 206.508 32.6648 206.569 32.9183 206.738C33.7614 207.303 33.4914 208.609 32.505 208.804Z" fill="#EFD2BF"/>
<path d="M42.171 208.488C41.7026 209.34 40.6299 209.652 39.7776 209.184C38.9235 208.715 38.613 207.643 39.0814 206.791C39.5498 205.937 40.6225 205.627 41.4748 206.095C42.3271 206.563 42.6394 207.634 42.171 208.488Z" fill="#EFD2BF"/>
<path d="M39.9457 208.965C39.1486 208.526 39.1688 207.377 39.9623 206.96C40.9707 206.429 42.0287 207.542 41.4942 208.515C41.1911 209.064 40.5005 209.27 39.9457 208.965Z" fill="#EFD2BF"/>
<path d="M47.5519 214.934C46.6445 215.286 45.6232 214.836 45.2705 213.929C44.9179 213.022 45.3679 212.001 46.2771 211.648C47.1845 211.296 48.2058 211.746 48.5584 212.653C48.9093 213.56 48.4593 214.581 47.5519 214.934Z" fill="#EFD2BF"/>
<path d="M47.0135 214.519C46.4275 214.746 45.7663 214.454 45.5385 213.869C45.3126 213.286 45.5954 212.625 46.1887 212.394C46.7747 212.166 47.4359 212.458 47.6637 213.044C47.8896 213.628 47.6068 214.289 47.0135 214.519Z" fill="#EFD2BF"/>
<path d="M26.0353 226.27C26.8398 225.721 27.0456 224.624 26.4963 223.82C25.9471 223.016 24.8506 222.81 24.046 223.359C23.2415 223.908 23.0358 225.005 23.585 225.809C24.1342 226.611 25.2308 226.819 26.0353 226.27Z" fill="#EFD2BF"/>
<path d="M25.883 225.66C25.3724 225.93 24.7387 225.772 24.4117 225.295C24.0296 224.736 24.2152 223.963 24.8231 223.642C25.3338 223.372 25.9657 223.53 26.2944 224.007C26.6783 224.569 26.4892 225.341 25.883 225.66Z" fill="#EFD2BF"/>
<path d="M23.7581 218.186C24.7261 218.281 25.5894 217.574 25.685 216.605C25.7805 215.635 25.0733 214.774 24.1034 214.678C23.1336 214.583 22.2721 215.29 22.1766 216.26C22.0811 217.227 22.7883 218.09 23.7581 218.186Z" fill="#EFD2BF"/>
<path d="M24.8068 217.517C24.0114 217.936 23.0526 217.303 23.1426 216.397C23.2051 215.771 23.7616 215.314 24.388 215.374C25.5084 215.485 25.8042 216.99 24.8068 217.517Z" fill="#EFD2BF"/>
<path d="M27.2105 210.532C27.892 211.228 29.007 211.241 29.7031 210.559C30.3993 209.878 30.4121 208.763 29.7307 208.067C29.0492 207.371 27.9343 207.358 27.2381 208.04C26.5438 208.719 26.5309 209.836 27.2105 210.532Z" fill="#EFD2BF"/>
<path d="M27.5469 209.568C27.5506 209.263 27.6719 208.978 27.8904 208.765C28.616 208.056 29.8375 208.581 29.8264 209.593C29.8228 209.898 29.7015 210.183 29.483 210.396C28.7611 211.101 27.5359 210.579 27.5469 209.568Z" fill="#EFD2BF"/>
<path d="M23.7252 219.073C24.6987 219.053 25.5051 219.824 25.5253 220.797C25.5455 221.771 24.774 222.577 23.8005 222.597C22.827 222.617 22.0206 221.846 22.0004 220.873C21.9802 219.899 22.7517 219.093 23.7252 219.073Z" fill="#EFD2BF"/>
<path d="M23.3236 221.609C22.5962 220.911 23.0719 219.668 24.0877 219.648C24.7159 219.635 25.2375 220.134 25.2522 220.762C25.2724 221.78 24.0491 222.305 23.3236 221.609Z" fill="#EFD2BF"/>
<path d="M34.7786 206.888C34.852 207.858 35.6988 208.585 36.6705 208.512C37.6422 208.438 38.3677 207.59 38.2942 206.62C38.2208 205.649 37.374 204.923 36.4023 204.997C35.4306 205.07 34.7051 205.917 34.7786 206.888Z" fill="#EFD2BF"/>
<path d="M36.6075 208.244C35.9812 208.291 35.432 207.821 35.3842 207.195C35.3365 206.571 35.803 206.02 36.433 205.972C37.0594 205.924 37.6086 206.394 37.6564 207.021C37.6913 207.474 37.4525 207.904 37.0502 208.117C37.0116 208.132 36.8592 208.223 36.6075 208.244Z" fill="#EFD2BF"/>
<path d="M26.6165 211.189C27.3751 211.799 27.4963 212.908 26.8865 213.666C26.2767 214.425 25.1672 214.546 24.4086 213.936C23.65 213.327 23.5288 212.218 24.1386 211.459C24.7466 210.701 25.856 210.579 26.6165 211.189Z" fill="#EFD2BF"/>
<path d="M25.0971 213.639C24.4542 213.123 24.5607 212.12 25.2789 211.742C25.6812 211.529 26.1698 211.577 26.5243 211.861C27.0147 212.254 27.0919 212.974 26.6988 213.463C26.3039 213.957 25.5857 214.032 25.0971 213.639Z" fill="#EFD2BF"/>
<path d="M36.9206 218.393L43.2778 211.356L43.0317 211.134L36.4062 218.467L40.1662 209.327L39.8576 209.2L36.2501 217.971L36.5936 208.493L36.2611 208.48L35.903 218.355L32.9071 208.938L32.5893 209.039L35.464 218.078L29.6339 210.596L29.3712 210.8L35.4456 218.595L27.0954 213.308L26.9172 213.589L34.9313 218.663L25.6553 216.678L25.5855 217.003L35.2509 219.071L25.4551 220.388L25.4992 220.718L34.9 219.455L26.5186 223.895L26.6747 224.189L45.4765 214.285L45.3222 213.992L36.9206 218.393Z" fill="#EFD2BF"/>
<path d="M36.2981 217.95L35.0371 218.615L55.8022 258.011L57.0633 257.347L36.2981 217.95Z" fill="#EFD2BF"/>
<path d="M54.7622 258.462C54.7622 258.462 69.1887 247.756 71.1651 243.143C73.1415 238.53 69.0656 239.049 69.0656 239.049C69.0656 239.049 74.8902 230.798 73.3454 228.071C71.7988 225.344 68.5825 228.828 68.5825 228.828C68.5825 228.828 71.2845 217.664 68.9352 217.044C64.558 215.887 60.967 227.9 60.967 227.9C60.967 227.9 61.2885 222.913 58.5498 223.585C54.4187 224.599 56.6046 235.336 56.6046 235.336C56.6046 235.336 55.2876 233.432 53.0227 235.244C48.9578 238.491 54.7622 258.462 54.7622 258.462Z" fill="white"/>
<path d="M52.4099 235.52C54.6747 233.707 56.6034 235.334 56.6034 235.334C56.6034 235.334 54.4176 224.595 58.5486 223.583C61.2873 222.911 60.9659 227.899 60.9659 227.899C60.9659 227.899 64.5569 215.885 68.934 217.042L54.6545 258.427C54.0153 255.843 48.6132 238.555 52.4099 235.52Z" fill="#A4E5FF"/>
<path d="M54.7812 258.089C54.7812 258.089 69.8249 258.223 72.8758 255.663C75.9268 253.102 71.9244 252.751 71.9244 252.751C71.9244 252.751 78.9906 249.001 78.886 246.502C78.7831 244 76.3879 244.505 76.3879 244.505C76.3879 244.505 81.272 240.131 80.2691 238.012C78.728 234.754 71.7444 240.934 71.7444 240.934C71.7444 240.934 72.2789 238.456 70.1133 237.938C66.8455 237.158 63.5319 246.445 63.5319 246.445C63.5319 246.445 65.095 242.261 62.8504 242.726C58.8223 243.556 54.7812 258.089 54.7812 258.089Z" fill="#E9FAFF"/>
<path d="M54.1651 258.912C54.1651 258.912 41.0428 247.717 39.4429 243.207C37.8412 238.697 41.6893 239.441 41.6893 239.441C41.6893 239.441 36.6473 231.237 38.2839 228.736C39.9205 226.235 42.7694 229.744 42.7694 229.744C42.7694 229.744 40.8756 218.959 43.1478 218.511C47.3817 217.676 50.0708 229.324 50.0708 229.324C50.0708 229.324 50.0671 224.558 52.6332 225.365C56.5015 226.579 53.772 236.664 53.772 236.664C53.772 236.664 55.1992 232.894 57.2454 234.754C60.9154 238.093 54.1651 258.912 54.1651 258.912Z" fill="#A4E5FF"/>
<path d="M58.1352 234.067C56.0468 232.548 54.2779 234.53 54.2779 234.53C54.2779 234.53 56.5023 226.578 52.6339 225.364C50.0679 224.56 50.0532 229.179 50.0532 229.179C50.0532 229.179 47.3843 217.675 43.1504 218.511L54.2265 258.752C55.4296 255.994 60.7986 236.005 58.1352 234.067Z" fill="#E9FAFF"/>
<path d="M52.8458 257.305C52.8458 257.305 38.423 257.371 36.4264 257.077C34.4298 256.784 36.6358 255.056 36.6358 255.056C36.6358 255.056 32.1503 255.219 31.467 254.128C30.7837 253.037 32.615 252.608 32.615 252.608C32.615 252.608 28.1478 251.313 28.3609 250.363C28.7577 248.595 33.6914 249.748 33.6914 249.748C33.6914 249.748 31.8582 248.859 32.604 248.033C33.7263 246.786 38.5241 250.176 38.5241 250.176C38.5241 250.176 36.724 246.771 37.7857 246.34C39.6923 245.565 52.8458 257.305 52.8458 257.305Z" fill="#E9FAFF"/>
<path d="M42.439 273.526H66.4298C69.4845 270.737 71.347 266.893 71.2791 262.678C71.2442 260.55 70.807 258.693 69.8923 256.872L38.9619 257.219C38.1078 259.07 37.6486 261.103 37.6835 263.233C37.7459 267.247 39.5515 270.869 42.439 273.526Z" fill="#E2C3BC"/>
<path d="M57.4785 209.83H73.4112C74.8237 209.83 75.9699 208.596 75.9699 207.072C75.9699 205.55 74.8237 204.314 73.4112 204.314H57.4785C58.6963 205.843 58.7441 208.086 57.5924 209.672L57.4785 209.83Z" fill="#E9FAFF"/>
<path d="M75.7611 207.074C75.7611 205.551 74.602 204.316 73.173 204.316H57.1907C57.1154 204.316 57.0566 204.251 57.0566 204.17C57.0566 204.091 57.1173 204.029 57.1907 204.029H82.5445C84.1223 204.029 85.4007 205.392 85.4007 207.074C85.4007 208.754 84.1223 210.117 82.5445 210.117H57.1907C57.1173 210.117 57.0566 210.054 57.0566 209.975C57.0566 209.896 57.1154 209.83 57.1907 209.83H73.173C74.602 209.83 75.7611 208.596 75.7611 207.074Z" fill="#F1F1FA"/>
<path d="M185.933 167.001C184.808 166.034 184.891 168.746 184.366 168.996C183.464 169.424 183.844 171.084 183.368 171.559C182.894 172.033 180.468 174.894 180.457 174.898C179.381 175.214 173.304 196.762 172.419 197.142C171.532 197.523 161.975 196.066 161.975 196.066L159.695 204.356C159.695 204.356 177.292 207.584 178.684 205.559C179.596 204.235 181.814 191.887 183.247 182.905C183.679 180.802 184.241 178.778 184.887 178.11C186.406 176.543 187.143 175.214 187.38 173.886C187.549 172.944 187.31 168.19 185.933 167.001Z" fill="#F9DEDB"/>
<path d="M227.807 209.577L229.254 218.309C229.254 218.309 227.807 224.575 228.53 224.953C229.254 225.333 252.404 225.144 252.404 225.144C252.404 225.144 256.744 223.056 253.669 222.296C250.594 221.537 238.416 218.625 237.573 217.106C236.73 215.587 235.764 207.487 235.764 207.487L227.807 209.577Z" fill="#FFD8D0"/>
<path d="M231.414 257.704L232.933 266.436C232.933 266.436 231.396 272.659 232.156 273.039C232.915 273.42 257.683 273.082 257.683 273.082C257.683 273.082 261.797 271.183 258.568 270.424C255.339 269.664 242.553 266.753 241.667 265.235C240.782 263.716 239.768 255.616 239.768 255.616L231.414 257.704Z" fill="#FFD8D0"/>
<path d="M144.069 201.228L134.101 184.427C134.101 184.427 110.541 183.61 110.176 185.994C109.757 188.724 115.021 194.891 118.293 204.218C121.167 212.416 122.468 221.023 123.135 223.155C124.558 227.711 144.923 211.479 144.923 211.479L144.069 201.228Z" fill="#EFD2BF"/>
<path d="M178.324 207.267C178.324 207.267 182.042 206.879 184.891 204.863C195.873 197.084 218.36 175.476 224.579 178.347C225.235 178.65 226.58 179.313 227.237 179.961C234.43 187.04 240.339 212.901 240.339 212.901L229.136 218.217L221.92 194.865L200.618 217.508L178.324 207.267Z" fill="#1D3566"/>
<path d="M168.08 205.158L184.786 204.753C184.786 204.753 227.129 211.184 232.25 213.894C237.371 216.605 240.909 259.667 240.909 259.667L230.845 261.185L219.899 225.339L185.857 226.242L168.08 205.158Z" fill="#1D3566"/>
<path d="M139.199 187.962C139.199 187.962 146.831 187.962 152.053 189.301C157.275 190.64 164.239 191.978 164.239 191.978L162.229 202.554C162.229 202.554 151.383 200.679 150.848 200.679C150.312 200.679 139.199 187.962 139.199 187.962Z" fill="#A4E5FF"/>
<path d="M129.822 189.194C129.822 189.194 126.508 191.905 127.713 200.942C128.918 209.977 134.153 219.631 144.696 223.847C155.24 228.064 185.856 226.242 185.856 226.242L184.794 204.404C184.794 204.404 169.308 204.563 165.994 204.262C163.371 204.023 156.581 190.168 142.511 187.714C138.807 187.066 134.596 187.938 129.822 189.194Z" fill="#E9FAFF"/>
<path d="M131.431 182.582C131.431 182.582 129.093 180.644 127.41 179.889C125.728 179.136 122.756 176.29 121.729 172.088C120.7 167.887 123.18 165.138 124.686 164.03C126.193 162.923 132.517 160.539 135.026 160.772C137.535 161.006 139.511 169.453 139.511 169.453L138.507 176.931L131.431 182.582Z" fill="#1D3566"/>
<path d="M139.081 181.021L142.468 187.645C142.468 187.645 142.766 190.223 142.096 191.35C140.94 193.293 132.926 188.544 132.926 188.544L129.383 177.172L139.081 181.021Z" fill="#FFD8D0"/>
<path d="M130.426 180.519C133.637 184.352 138.51 184.925 140.819 184.416L139.083 181.021L129.383 177.172L130.426 180.519Z" fill="#E2C3BC"/>
<path d="M128.59 164.924C131.317 162.409 135.68 163.037 137.625 166.133C138.47 167.479 139.458 169.203 140.364 171.166C142.54 175.888 142.112 181.601 139.95 182.55C137.788 183.5 130.461 183.043 127.276 176.382C125.311 172.27 125.728 167.565 128.59 164.924Z" fill="#FFD8D0"/>
<path d="M129.103 176.218C129.564 177.269 129.243 178.426 128.383 178.802C127.526 179.179 126.455 178.633 125.994 177.585C125.533 176.534 125.854 175.377 126.714 175.001C127.572 174.623 128.642 175.168 129.103 176.218Z" fill="#FFD8D0"/>
<path d="M126.713 174.999C126.713 174.999 125.354 172.882 124.722 170.581C124.09 168.278 124.74 164.462 126.819 163.138C128.899 161.812 134.488 160.666 134.622 158.974C134.756 157.283 134.811 157.426 134.958 157.114C135.294 156.402 139.258 157.318 140.548 161.132C141.837 164.946 138.468 166.081 137.866 166.434C137.262 166.787 130.447 166.555 128.697 167.345C126.946 168.133 126.713 174.999 126.713 174.999Z" fill="#1D3566"/>
<path d="M132.639 216.076L144.187 227.12L149.609 217.984L140.069 208.646L132.639 216.076Z" fill="#F9DEDB"/>
<path d="M156.69 187.913C156.69 187.913 148.037 209.052 144.822 215.778C141.608 222.505 142.758 226.141 144.187 227.12C145.289 227.875 151.117 228.527 155.033 220.996C158.949 213.466 160.004 190.924 161.109 190.924C162.213 190.924 164.386 187.499 164.524 187.209C165.356 185.441 163.172 181.241 163.172 181.241C163.172 181.241 167.966 175.522 167.287 174.608C166.961 174.173 159.493 180.615 158.639 182.521C157.783 184.431 156.69 187.913 156.69 187.913Z" fill="#FFD8D0"/>
<path d="M145.014 212.836C145.014 212.836 140.865 187.817 129.822 189.194C127.691 189.461 126.51 190.895 125.992 193.034C123.823 201.987 134.507 222.074 134.507 222.074C134.507 222.074 144.412 214.643 145.014 212.836Z" fill="#A4E5FF"/>
<path d="M181.592 173.357L182.385 170.852C182.725 170.786 183.015 170.805 183.182 170.972C183.84 171.631 182.027 173.174 181.592 173.357Z" fill="#1D3566"/>
<path d="M180.98 175.289C180.884 175.588 181.202 175.941 181.689 176.075L181.839 176.117C181.67 177.149 179.891 177.776 179.891 177.776C179.891 177.776 178.056 173.346 179.955 171.985C179.955 171.985 181.384 171.049 182.385 170.852C182.725 170.786 183.015 170.805 183.182 170.972C183.84 171.629 182.027 173.172 181.591 173.355C181.586 173.357 181.582 173.359 181.579 173.361C181.579 173.361 181.577 173.376 181.575 173.401L180.98 175.289Z" fill="#F9DEDB"/>
<path d="M181.963 173.504L181.592 173.357C181.592 173.357 180.793 174.769 180.54 175.339C180.286 175.908 182.296 176.542 182.865 176.384C183.434 176.226 181.963 173.504 181.963 173.504Z" fill="#E2C3BC"/>
<path d="M187.552 163.56L183.605 176.02C183.509 176.319 183.039 176.453 182.552 176.318C182.543 176.316 181.63 176.062 181.689 176.077C181.202 175.943 180.884 175.59 180.98 175.291C181.009 175.196 180.822 175.792 181.592 173.359C182.027 173.175 183.84 171.633 183.182 170.975C183.013 170.808 182.725 170.79 182.385 170.856L184.927 162.833C185.023 162.533 185.493 162.401 185.98 162.535L186.845 162.776C187.33 162.908 187.648 163.261 187.552 163.56Z" fill="#1D3566"/>
<path d="M187.456 168.379C187.456 168.379 188.179 167.286 187.408 166.717C187 166.416 182.693 167.08 182.489 167.552C181.936 168.845 185.837 168.296 187.456 168.379Z" fill="#F9DEDB"/>
<path d="M187.834 169.637C187.834 169.637 188.148 168.748 187.786 168.166C187.52 167.736 182.992 168.173 182.612 168.902C181.962 170.147 186.216 169.554 187.834 169.637Z" fill="#F9DEDB"/>
<path d="M187.786 169.613C187.786 169.613 183.493 169.514 183.062 170.206C182.63 170.898 184.937 171.084 184.937 171.084L187.193 174.691C187.193 174.692 188.611 170.335 187.786 169.613Z" fill="#F9DEDB"/>
<path d="M185.008 170.99C185.008 170.99 184.742 171.565 184.25 173.126C183.111 176.733 183.53 176.835 183.91 177.003C184.29 177.17 186.647 175.12 187.003 175.025C187.359 174.929 188.237 170.492 187.644 168.926C187.051 167.36 186.458 167.075 186.458 167.075L185.008 170.99Z" fill="#F9DEDB"/>
<path d="M309 273.034C308.844 272.079 308.106 271.355 307.217 271.355H274.604C273.715 271.355 272.976 272.079 272.82 273.034H309Z" fill="#EFD2BF"/>
<path d="M284.433 271.385L274.455 271.359C274.455 271.359 276.413 267.321 279.916 265.367C283.421 263.413 289.475 263.455 289.475 263.455L284.433 271.385Z" fill="#EFD2BF"/>
<path d="M291.509 271.407C291.509 271.407 292.185 263.694 289.598 263.455C287.014 263.217 284.43 271.385 284.43 271.385L291.509 271.407Z" fill="#F1F1FA"/>
<path d="M331.767 273.016C331.652 269.056 328.222 265.877 324.007 265.877C319.791 265.877 316.36 269.054 316.246 273.016H331.767Z" fill="#EFD2BF"/>
<path d="M332.735 273.034C332.658 272.085 332.294 271.366 331.857 271.366H315.794C315.357 271.366 314.993 272.086 314.916 273.034H332.735Z" fill="#EFD2BF"/>
<path d="M287.403 29.5682H279.818V31.1291H287.403V29.5682Z" fill="#F1F1FA"/>
<path d="M284.731 50.4316H192.047V54.7417H284.731V50.4316Z" fill="#F1F1FA"/>
<path d="M167.993 133.693C177.345 135.434 184.056 141.501 182.987 147.244C182.453 150.116 180.072 152.362 176.66 153.673L178.877 162.846L172.117 154.776C169.648 155.085 166.926 155.012 164.12 154.488C154.768 152.747 148.057 146.68 149.126 140.937C150.196 135.197 158.644 131.952 167.993 133.693Z" fill="#E9FAFF"/>
<path d="M172.275 146.312C170.84 149.3 167.255 150.558 164.266 149.124C161.278 147.69 160.02 144.103 161.454 141.115C162.889 138.128 166.474 136.87 169.463 138.304C172.451 139.74 173.711 143.325 172.275 146.312Z" fill="#EFD2BF"/>
<path d="M163.563 143.181C162.796 144.779 163.47 146.696 165.066 147.462C166.664 148.23 168.58 147.556 169.347 145.96L163.563 143.181Z" fill="#EFEFEF"/>
<path d="M307.098 55.0722C306.161 55.0722 305.4 54.3119 305.4 53.3754V28.9456C305.4 28.009 306.161 27.2487 307.098 27.2487C308.034 27.2487 308.795 28.009 308.795 28.9456V53.3754C308.795 54.3119 308.034 55.0722 307.098 55.0722Z" fill="#E9FAFF"/>
<path d="M305.4 43.04V53.3754C305.4 54.3119 306.161 55.0722 307.098 55.0722C308.034 55.0722 308.795 54.3119 308.795 53.3754V43.04H305.4Z" fill="white"/>
<path d="M309.901 53.5259C309.901 55.0502 308.666 56.2842 307.142 56.2842C305.617 56.2842 304.383 55.0483 304.383 53.5259C304.383 52.0017 305.619 50.7677 307.142 50.7677C308.664 50.7677 309.901 52.0036 309.901 53.5259Z" fill="white"/>
<path d="M254.238 89.0146H249.581L252.873 85.7238C253.011 85.586 253.011 85.3638 252.873 85.2261C252.735 85.0884 252.513 85.0884 252.375 85.2261L249.084 88.5169V83.8616C249.084 83.667 248.926 83.5109 248.733 83.5109C248.538 83.5109 248.382 83.6688 248.382 83.8616V88.5169L245.09 85.2261C244.953 85.0884 244.73 85.0884 244.593 85.2261C244.455 85.3638 244.455 85.586 244.593 85.7238L247.884 89.0146H243.228C243.033 89.0146 242.877 89.1725 242.877 89.3654C242.877 89.56 243.035 89.7161 243.228 89.7161H247.884L244.593 93.007C244.455 93.1447 244.455 93.3669 244.593 93.5046C244.661 93.5726 244.751 93.6075 244.841 93.6075C244.931 93.6075 245.021 93.5726 245.088 93.5046L248.38 90.2138V94.8691C248.38 95.0637 248.538 95.2198 248.731 95.2198C248.926 95.2198 249.082 95.0619 249.082 94.8691V90.2138L252.373 93.5046C252.441 93.5726 252.531 93.6075 252.621 93.6075C252.711 93.6075 252.801 93.5726 252.869 93.5046C253.007 93.3669 253.007 93.1447 252.869 93.007L249.578 89.7161H254.234C254.429 89.7161 254.585 89.5582 254.585 89.3654C254.589 89.1707 254.431 89.0146 254.238 89.0146Z" fill="#E9FAFF"/>
<path d="M206.64 107.588L202.799 106.095L206.572 104.435C206.73 104.365 206.8 104.182 206.732 104.025C206.662 103.867 206.478 103.798 206.322 103.866L202.549 105.526L204.043 101.686C204.105 101.526 204.026 101.346 203.866 101.284C203.706 101.221 203.526 101.3 203.464 101.46L201.971 105.3L200.31 101.528C200.24 101.37 200.057 101.298 199.9 101.368C199.743 101.438 199.671 101.622 199.741 101.778L201.401 105.55L197.56 104.057C197.401 103.994 197.221 104.073 197.158 104.233C197.096 104.393 197.175 104.573 197.334 104.635L201.175 106.128L197.402 107.788C197.244 107.858 197.173 108.042 197.243 108.198C197.278 108.277 197.34 108.334 197.415 108.363C197.489 108.392 197.575 108.392 197.654 108.358L201.427 106.697L199.934 110.537C199.871 110.697 199.95 110.877 200.11 110.94C200.27 111.002 200.45 110.923 200.512 110.763L202.005 106.923L203.666 110.695C203.701 110.774 203.763 110.831 203.839 110.861C203.912 110.89 203.998 110.89 204.077 110.855C204.235 110.785 204.305 110.602 204.237 110.446L202.577 106.674L206.418 108.167C206.577 108.229 206.757 108.15 206.82 107.99C206.879 107.832 206.8 107.651 206.64 107.588Z" fill="#E9FAFF"/>
<path d="M321.337 53.5388L318.363 55.0906L319.368 51.8897C319.41 51.7557 319.335 51.6143 319.202 51.572C319.068 51.5298 318.927 51.6051 318.885 51.7373L317.88 54.9382L316.328 51.965C316.263 51.842 316.109 51.7924 315.986 51.8585C315.861 51.9228 315.813 52.077 315.878 52.2001L317.432 55.1732L314.23 54.1687C314.096 54.1265 313.954 54.2018 313.912 54.334C313.87 54.468 313.945 54.6094 314.077 54.6517L317.279 55.6562L314.305 57.208C314.182 57.2722 314.133 57.4265 314.199 57.5495C314.263 57.6726 314.415 57.7222 314.54 57.656L317.514 56.1043L316.509 59.3051C316.467 59.4392 316.541 59.5806 316.675 59.6228C316.741 59.643 316.811 59.6357 316.868 59.6063C316.925 59.5769 316.971 59.5237 316.993 59.4576L317.997 56.2567L319.549 59.2299C319.614 59.3529 319.768 59.4025 319.891 59.3364C320.014 59.2721 320.064 59.1178 319.998 58.9948L318.445 56.0216L321.647 57.0262C321.713 57.0464 321.783 57.039 321.84 57.0096C321.897 56.9802 321.943 56.927 321.965 56.8609C322.007 56.7268 321.934 56.5854 321.8 56.5432L318.598 55.5387L321.572 53.9869C321.695 53.9226 321.744 53.7684 321.678 53.6453C321.614 53.5223 321.462 53.4727 321.337 53.5388Z" fill="#E9FAFF"/>
<path d="M282.213 100.525L279.09 102.288L280.051 98.8357C280.091 98.6925 280.007 98.5419 279.864 98.5033C279.72 98.4629 279.57 98.5474 279.531 98.6906L278.571 102.145L276.807 99.023C276.734 98.8927 276.568 98.8467 276.438 98.9202C276.308 98.9936 276.262 99.1589 276.335 99.2893L278.099 102.411L274.645 101.451C274.502 101.41 274.351 101.495 274.313 101.638C274.272 101.781 274.357 101.932 274.5 101.97L277.953 102.931L274.831 104.694C274.7 104.767 274.654 104.933 274.728 105.063C274.801 105.193 274.967 105.239 275.097 105.166L278.22 103.403L277.259 106.855C277.219 106.999 277.303 107.149 277.446 107.188C277.518 107.208 277.592 107.197 277.652 107.162C277.713 107.127 277.761 107.07 277.779 106.999L278.74 103.546L280.503 106.668C280.576 106.798 280.742 106.844 280.872 106.771C281.003 106.697 281.048 106.532 280.975 106.402L279.212 103.28L282.665 104.24C282.736 104.26 282.81 104.249 282.871 104.215C282.931 104.182 282.979 104.123 282.997 104.051C283.038 103.908 282.953 103.757 282.81 103.719L279.355 102.758L282.477 100.995C282.608 100.922 282.654 100.757 282.58 100.626C282.509 100.498 282.343 100.452 282.213 100.525Z" fill="#E9FAFF"/>
<path d="M95.1916 160.001H94.6094V183.744H95.1916V160.001Z" fill="#1D3566"/>
<path d="M91.641 163.393H90.2285V209.156H91.641V163.393Z" fill="#1D3566"/>
<path d="M101.425 209.685C96.4104 209.685 92.3455 208.787 92.3455 207.68C92.3455 207.476 92.4851 207.278 92.7423 207.092L92.6982 207.079H89.0484L89.0374 207.083C89.3037 207.272 89.447 207.472 89.447 207.68C89.447 209.098 83.7547 209.694 80.2518 209.685H80.25V210.12H101.647V209.685L101.644 209.683C101.57 209.685 101.498 209.685 101.425 209.685Z" fill="#1D3566"/>
<path d="M95.6913 163.749H87.1684C86.3198 163.749 85.6328 163.062 85.6328 162.214V162.039H97.225V162.214C97.225 163.062 96.5381 163.749 95.6913 163.749Z" fill="#1D3566"/>
<path d="M106.922 160.638C106.922 161.107 104.951 161.529 101.781 161.826C91.1753 162.827 73.3984 162.096 73.3984 160.638C73.3984 160.58 84.3496 140.412 84.3496 140.412H95.9694C95.9712 140.412 106.922 160.581 106.922 160.638Z" fill="#EFD2BF"/>
<path d="M95.9012 183.737C95.9012 184.234 95.4622 184.638 94.9203 184.638C94.3785 184.638 93.9395 184.234 93.9395 183.737C93.9395 183.239 94.3785 182.835 94.9203 182.835C95.4622 182.835 95.9012 183.239 95.9012 183.737Z" fill="#1D3566"/>
<path d="M167.027 113.31C169.564 110.666 169.397 110.499 170.44 107.691C171.048 105.957 173.063 103.642 173.052 103.654C173.77 102.835 174.832 102.094 174.801 102.117C181.145 97.8606 182.187 97.1866 184.185 91.2991C186.698 83.9039 188.153 84.6954 192.249 80.3008C196.279 75.943 194.897 71.6495 196.787 67.0438L196.767 67.0346C195.281 70.2685 195.404 74.0295 193.876 77.144C192.07 80.6883 187.864 82.6496 185.923 85.2757C184.517 87.1819 184.044 88.3884 183.074 90.8969C180.669 97.1407 179.464 96.9552 173.978 100.542C173.967 100.549 173.206 101.069 173.217 101.061C172.031 101.958 171.656 102.404 171.667 102.393C171.656 102.404 171.421 102.663 171.436 102.646C166.735 108.209 169.108 108.043 166.057 111.024L165.451 111.58L167.027 113.31Z" fill="#E9FAFF"/>
<path d="M307 126.441C306.697 126.648 298.729 120.671 295.621 110.502C294.934 108.257 295.013 105.799 294.352 103.605C292.302 96.7973 285.528 95.8479 285.373 84.5484C285.21 73.7302 284.218 75.3131 280.664 67.5231C280.058 66.1733 279.558 64.7648 279.33 63.2938L279.303 63.2975C279.643 66.2743 281.05 68.9316 282.341 71.6642C287.982 83.6119 280.219 85.6044 288.577 97.3152C289.876 99.1259 291.837 101.379 292.572 103.53C293.503 106.257 293.156 109.559 293.999 112.416C295.814 118.557 299.534 124.154 304.616 128.073C305.658 127.361 305.959 127.153 307 126.441Z" fill="#E9FAFF"/>
<path d="M325.766 105.166C322.414 103.082 318.437 102.615 315.704 99.7117C313.753 97.6402 312.618 92.6599 308.406 89.8061C306.232 88.3333 303.802 87.1929 302.018 85.2077C299.705 82.6716 299.531 77.8896 297.036 74.6318C294.946 71.9654 291.746 70.274 290.106 67.2476L290.086 67.2568C292.173 71.5412 296.171 72.3859 298.126 77.8639C298.976 80.2788 299.299 82.466 300.523 84.7119C301.351 86.159 302.49 87.1249 302.479 87.1139C304.76 89.2019 307.038 90.0375 309.272 92.322C312.464 95.589 312.583 101.743 318.882 104.593C319.17 104.723 324.616 106.762 324.396 107.065C324.396 107.065 325.768 105.168 325.766 105.166Z" fill="#E9FAFF"/>
</svg>
