<svg width="24" height="24" viewBox="0 0 24 24" fill="none" xmlns="http://www.w3.org/2000/svg">
<path d="M7.76599 14.7335H7.76695C7.76775 14.7335 7.76855 14.7333 7.76935 14.7333H18.9239C19.1985 14.7333 19.4399 14.5596 19.5154 14.3079L21.9763 6.09452C22.0294 5.91745 21.9922 5.72708 21.876 5.58011C21.7597 5.43314 21.5779 5.34667 21.3848 5.34667H6.3471L5.9073 3.4594C5.84466 3.19097 5.59504 3 5.30665 3H1.61524C1.27541 3 1 3.26263 1 3.58667C1 3.91071 1.27541 4.17333 1.61524 4.17333H4.81318C4.89104 4.50776 6.9178 13.2048 7.03443 13.7051C6.38059 13.9762 5.92188 14.5978 5.92188 15.32C5.92188 16.2905 6.74989 17.08 7.76759 17.08H18.9239C19.2637 17.08 19.5391 16.8174 19.5391 16.4933C19.5391 16.1693 19.2637 15.9067 18.9239 15.9067H7.76759C7.42841 15.9067 7.15235 15.6434 7.15235 15.32C7.15235 14.997 7.42745 14.7343 7.76599 14.7335ZM20.5691 6.52L18.4597 13.56H8.26106L6.62043 6.52H20.5691Z" fill="white"/>
<path d="M7.15234 18.84C7.15234 19.8104 7.98035 20.6 8.99805 20.6C10.0157 20.6 10.8438 19.8104 10.8438 18.84C10.8438 17.8696 10.0157 17.08 8.99805 17.08C7.98035 17.08 7.15234 17.8696 7.15234 18.84ZM8.99805 18.2533C9.33723 18.2533 9.61328 18.5166 9.61328 18.84C9.61328 19.1634 9.33723 19.4267 8.99805 19.4267C8.65887 19.4267 8.38281 19.1634 8.38281 18.84C8.38281 18.5166 8.65887 18.2533 8.99805 18.2533Z" fill="white"/>
<path d="M15.8477 18.84C15.8477 19.8104 16.6757 20.6 17.6934 20.6C18.7111 20.6 19.5391 19.8104 19.5391 18.84C19.5391 17.8696 18.7111 17.08 17.6934 17.08C16.6757 17.08 15.8477 17.8696 15.8477 18.84ZM17.6934 18.2533C18.0325 18.2533 18.3086 18.5166 18.3086 18.84C18.3086 19.1634 18.0325 19.4267 17.6934 19.4267C17.3542 19.4267 17.0781 19.1634 17.0781 18.84C17.0781 18.5166 17.3542 18.2533 17.6934 18.2533Z" fill="white"/>
</svg>
