<svg width="102" height="102" viewBox="0 0 102 102" fill="none" xmlns="http://www.w3.org/2000/svg">
<circle cx="51" cy="51" r="50" stroke="#1D3566" stroke-width="1.33444" stroke-dasharray="4 4"/>
<circle cx="51.0001" cy="51.0001" r="44.1177" fill="#E5E5E5"/>
<path d="M72.6747 40.5957L71.1035 42.1839C73.5637 45.4623 75.0939 49.3437 75.5327 53.419C75.9716 57.4943 75.3028 61.6126 73.597 65.3396C71.8911 69.0666 69.2114 72.2644 65.8402 74.5959C62.469 76.9274 58.5313 78.3062 54.442 78.587C53.9221 78.6209 53.4059 78.6379 52.8935 78.6379C49.7044 78.6448 46.5496 77.9795 43.6349 76.6853C40.7203 75.3911 38.1111 73.497 35.9776 71.1267C35.7367 70.8471 35.6147 70.4843 35.6378 70.116C35.6609 69.7476 35.8271 69.4029 36.1011 69.1556C36.375 68.9082 36.7348 68.7779 37.1036 68.7924C37.4724 68.8069 37.8208 68.9652 38.0745 69.2333C41.585 73.1194 46.482 75.4704 51.7098 75.7794C56.9376 76.0884 62.0775 74.3306 66.0213 70.8851C69.9651 67.4395 72.397 62.5821 72.7926 57.3602C73.1883 52.1382 71.516 46.9699 68.1363 42.9695C67.9061 42.6987 67.7864 42.3511 67.8011 41.996C67.8158 41.6409 67.9637 41.3044 68.2154 41.0535L70.6796 38.5893C70.8517 38.399 70.9441 38.1498 70.9377 37.8932C70.9312 37.6367 70.8265 37.3925 70.645 37.211C70.4635 37.0295 70.2193 36.9248 69.9628 36.9183C69.7062 36.9119 69.457 37.0043 69.2667 37.1764L66.7064 39.7366C66.4657 39.9773 66.1462 40.1229 65.8066 40.1468C65.4671 40.1707 65.1303 40.0712 64.8583 39.8666C62.0227 37.74 58.6706 36.4093 55.1485 36.0121C54.8028 35.9745 54.483 35.8108 54.2505 35.5522C54.0179 35.2936 53.8889 34.9583 53.8882 34.6105V30.0551C53.8852 29.8677 53.9195 29.6815 53.9892 29.5075C54.0588 29.3334 54.1624 29.175 54.2939 29.0414C54.4254 28.9078 54.5822 28.8017 54.7551 28.7292C54.928 28.6568 55.1136 28.6195 55.3011 28.6196H56.5954C56.8607 28.6196 57.1151 28.5142 57.3027 28.3266C57.4903 28.139 57.5957 27.8845 57.5957 27.6192C57.5957 27.3539 57.4903 27.0994 57.3027 26.9118C57.1151 26.7242 56.8607 26.6188 56.5954 26.6188H49.1802C48.9149 26.6188 48.6605 26.7242 48.4729 26.9118C48.2853 27.0994 48.1799 27.3539 48.1799 27.6192C48.1799 27.8845 48.2853 28.139 48.4729 28.3266C48.6605 28.5142 48.9149 28.6196 49.1802 28.6196H50.4745C50.8492 28.6196 51.2086 28.7684 51.4736 29.0334C51.7386 29.2984 51.8874 29.6578 51.8874 30.0325V34.6105C51.8868 34.9574 51.7586 35.292 51.5273 35.5504C51.2959 35.8089 50.9775 35.9733 50.6327 36.0121C46.065 36.5351 41.8173 38.6171 38.6057 41.9069C38.4755 42.0398 38.3203 42.1457 38.1491 42.2186C37.978 42.2915 37.7941 42.3299 37.608 42.3318C37.2323 42.3355 36.8705 42.1898 36.6022 41.9267C36.3339 41.6636 36.181 41.3048 36.1773 40.929C36.1736 40.5533 36.3193 40.1915 36.5824 39.9231C39.9491 36.4828 44.3167 34.1942 49.0615 33.384V31.4455C48.1006 31.3579 47.2081 30.9105 46.5631 30.1929C45.918 29.4752 45.5679 28.5403 45.5829 27.5755C45.5979 26.6106 45.9769 25.6871 46.644 24.9898C47.3111 24.2926 48.217 23.8732 49.1802 23.8156H56.5954C57.5586 23.8732 58.4645 24.2926 59.1316 24.9898C59.7987 25.6871 60.1777 26.6106 60.1927 27.5755C60.2077 28.5403 59.8576 29.4752 59.2125 30.1929C58.5675 30.9105 57.675 31.3579 56.7141 31.4455V33.3614C59.873 33.8961 62.8833 35.0921 65.5478 36.8712L67.2433 35.1756C67.9606 34.4576 68.9337 34.054 69.9486 34.0535C70.9634 34.0529 71.9369 34.4556 72.6549 35.1728C73.3729 35.8901 73.7766 36.8632 73.7771 37.878C73.7776 38.8929 73.375 39.8664 72.6578 40.5844L72.6747 40.5957ZM26.33 48.6099C26.33 48.9847 26.4789 49.3441 26.7439 49.609C27.0089 49.874 27.3683 50.0229 27.743 50.0229H37.5545C37.9292 50.0229 38.2886 49.874 38.5536 49.609C38.8186 49.3441 38.9674 48.9847 38.9674 48.6099C38.9674 48.2352 38.8186 47.8758 38.5536 47.6108C38.2886 47.3459 37.9292 47.197 37.5545 47.197H27.7486C27.3749 47.197 27.0164 47.3451 26.7515 47.6088C26.4867 47.8726 26.3372 48.2305 26.3357 48.6043L26.33 48.6099ZM42.3924 55.4599C42.3924 55.0852 42.2436 54.7258 41.9786 54.4608C41.7136 54.1958 41.3542 54.047 40.9795 54.047H31.1736C30.7989 54.047 30.4395 54.1958 30.1745 54.4608C29.9095 54.7258 29.7607 55.0852 29.7607 55.4599C29.7607 55.8346 29.9095 56.194 30.1745 56.459C30.4395 56.724 30.7989 56.8729 31.1736 56.8729H40.9795C41.3542 56.8729 41.7136 56.724 41.9786 56.459C42.2436 56.194 42.3924 55.8346 42.3924 55.4599V55.4599ZM27.7486 63.7285H37.5545C37.9292 63.7285 38.2886 63.5796 38.5536 63.3146C38.8186 63.0497 38.9674 62.6903 38.9674 62.3155C38.9674 61.9408 38.8186 61.5814 38.5536 61.3164C38.2886 61.0514 37.9292 60.9026 37.5545 60.9026H27.7486C27.3739 60.9026 27.0145 61.0514 26.7495 61.3164C26.4846 61.5814 26.3357 61.9408 26.3357 62.3155C26.3357 62.6903 26.4846 63.0497 26.7495 63.3146C27.0145 63.5796 27.3739 63.7285 27.7486 63.7285V63.7285ZM60.7268 50.0059L57.104 53.6287C57.6364 54.6398 57.7886 55.8082 57.5331 56.9219C57.2775 58.0356 56.6311 59.0207 55.7112 59.6985C54.7914 60.3763 53.6589 60.7019 52.5195 60.616C51.3801 60.5302 50.3093 60.0387 49.5013 59.2307C48.6933 58.4228 48.2018 57.3519 48.116 56.2125C48.0302 55.0731 48.3557 53.9407 49.0335 53.0208C49.7113 52.1009 50.6965 51.4545 51.8102 51.199C52.9239 50.9434 54.0923 51.0956 55.1033 51.628L58.7261 48.0052C58.8575 47.8738 59.0134 47.7696 59.1851 47.6985C59.3567 47.6274 59.5407 47.5908 59.7265 47.5908C59.9122 47.5908 60.0962 47.6274 60.2679 47.6985C60.4395 47.7696 60.5955 47.8738 60.7268 48.0052C60.8582 48.1366 60.9624 48.2925 61.0335 48.4642C61.1046 48.6358 61.1412 48.8198 61.1412 49.0056C61.1412 49.1914 61.1046 49.3753 61.0335 49.547C60.9624 49.7186 60.8582 49.8746 60.7268 50.0059V50.0059ZM54.8264 55.8499C54.8264 55.4665 54.7127 55.0917 54.4997 54.7729C54.2866 54.4541 53.9839 54.2056 53.6297 54.0589C53.2754 53.9122 52.8856 53.8738 52.5096 53.9486C52.1336 54.0234 51.7881 54.208 51.517 54.4791C51.2459 54.7502 51.0613 55.0956 50.9865 55.4717C50.9117 55.8477 50.9501 56.2375 51.0968 56.5917C51.2435 56.946 51.492 57.2487 51.8108 57.4617C52.1296 57.6748 52.5044 57.7884 52.8878 57.7884C53.4015 57.787 53.8937 57.5822 54.2569 57.219C54.6202 56.8558 54.8249 56.3636 54.8264 55.8499V55.8499ZM52.8878 72.664C55.6551 72.6683 58.3806 71.9898 60.8229 70.6887C63.2652 69.3875 65.3487 67.5039 66.8887 65.2048C68.4288 62.9056 69.3777 60.262 69.6515 57.5083C69.9253 54.7547 69.5155 51.976 68.4583 49.4186C67.4011 46.8612 65.7293 44.6042 63.591 42.8477C61.4528 41.0911 58.9141 39.8892 56.2002 39.3486C53.4862 38.808 50.6808 38.9454 48.0327 39.7485C45.3845 40.5517 42.9755 41.9958 41.019 43.9529C40.7537 44.2182 40.6047 44.578 40.6047 44.9532C40.6047 45.3284 40.7537 45.6883 41.019 45.9536C41.2844 46.2189 41.6442 46.368 42.0194 46.368C42.3946 46.368 42.7545 46.2189 43.0198 45.9536C44.9767 43.9933 47.4711 42.6576 50.1874 42.1155C52.9037 41.5734 55.7197 41.8492 58.2792 42.9081C60.8387 43.967 63.0265 45.7613 64.5659 48.064C66.1052 50.3668 66.9269 53.0744 66.9269 55.8442C66.9269 58.6141 66.1052 61.3217 64.5659 63.6244C63.0265 65.9271 60.8387 67.7215 58.2792 68.7804C55.7197 69.8392 52.9037 70.1151 50.1874 69.573C47.4711 69.0308 44.9767 67.6951 43.0198 65.7349C42.7545 65.4695 42.3946 65.3205 42.0194 65.3205C41.6442 65.3205 41.2844 65.4695 41.019 65.7349C40.7537 66.0002 40.6047 66.36 40.6047 66.7352C40.6047 67.1104 40.7537 67.4703 41.019 67.7356C42.5763 69.2969 44.4262 70.5358 46.4627 71.3815C48.4993 72.2271 50.6826 72.6629 52.8878 72.664V72.664Z" fill="#1D3566"/>
</svg>
