<svg width="82" height="83" viewBox="0 0 82 83" fill="none" xmlns="http://www.w3.org/2000/svg">
<g filter="url(#filter0_d_736_2489)">
<circle cx="41" cy="40.4023" r="35" fill="white"/>
</g>
<path d="M50.2836 40.6465C50.1016 40.4038 49.7573 40.3546 49.5145 40.5367C49.3979 40.6242 49.3208 40.7544 49.3003 40.8987L48.9954 43.0357C48.988 43.0632 48.9784 43.09 48.9668 43.1159C49.5271 42.372 49.9793 41.5524 50.31 40.6817L50.2836 40.6465Z" fill="#1D3566"/>
<path d="M48.4508 43.5069C48.4249 43.5069 48.399 43.5052 48.3733 43.5019L45.1101 43.0355C44.8097 42.9925 44.6012 42.7141 44.6442 42.4138C44.6442 42.4137 44.6442 42.4137 44.6442 42.4136L44.9491 40.2766C44.9916 39.9762 44.7826 39.6982 44.4822 39.6557C44.3385 39.6354 44.1925 39.6727 44.0762 39.7597L42.349 41.0545C42.1063 41.2365 41.7619 41.1874 41.5799 40.9446L39.6022 38.3077C39.4201 38.0649 39.4693 37.7206 39.7121 37.5386L41.4387 36.2437C41.6815 36.0617 41.7306 35.7174 41.5486 35.4746C41.4611 35.358 41.3309 35.2809 41.1866 35.2604L39.0495 34.9549C38.7492 34.9122 38.5403 34.634 38.5831 34.3337C38.5831 34.3335 38.5831 34.3332 38.5831 34.333L39.0495 31.0704C39.0922 30.77 39.3704 30.5611 39.6708 30.6039C39.671 30.6039 39.6712 30.604 39.6714 30.604L41.8084 30.9094C42.0282 30.9413 42.2455 30.8368 42.3578 30.6452C42.4745 30.4547 42.4613 30.2121 42.3248 30.0354L41.0311 28.3093C40.849 28.0665 40.8982 27.7222 41.141 27.5402L41.4524 27.3067C40.9479 27.2823 40.4421 27.2958 39.9395 27.3473C34.5134 27.9669 30.6171 32.8678 31.2366 38.2939C31.5741 41.2498 33.2246 43.8966 35.7303 45.5005C36.6451 46.0677 37.207 47.0628 37.2201 48.1391V50.3591C37.2201 51.2693 37.958 52.0072 38.8682 52.0072H43.2631C44.1734 52.0072 44.9112 51.2693 44.9112 50.3591V48.1847C44.9252 47.0831 45.4986 46.0643 46.433 45.4807C47.299 44.9189 48.0725 44.2257 48.7255 43.4261C48.6426 43.4769 48.5479 43.5047 48.4508 43.5069ZM41.6151 50.3591H40.5163V48.711H41.6151V50.3591ZM40.5163 47.6123C40.516 46.1597 39.6203 44.8577 38.2639 44.3381C34.3079 42.7912 32.3549 38.3303 33.9018 34.3742C34.5007 32.8424 35.575 31.543 36.9669 30.6666L37.5498 31.5961C34.4682 33.5352 33.542 37.6051 35.4811 40.6867C36.2323 41.8806 37.3468 42.8021 38.6606 43.3157C40.4411 43.9967 41.6164 45.706 41.6151 47.6123H40.5163Z" fill="#1D3566"/>
<path d="M38.8672 54.7539V55.3033C38.8672 55.9101 39.3591 56.402 39.9659 56.402H42.1634C42.7702 56.402 43.2621 55.9101 43.2621 55.3033V54.7539H38.8672Z" fill="#1D3566"/>
<path d="M35.4322 45.9643C35.1067 45.7532 34.7933 45.5241 34.4934 45.2781C33.6641 46.8925 31.683 47.529 30.0686 46.6997C28.9697 46.1352 28.2803 45.0022 28.2839 43.7668C28.2865 42.1059 29.5234 40.7058 31.1714 40.4986C30.9698 39.8923 30.8241 39.2687 30.7363 38.6357L30.6401 39.0928C30.5153 39.6866 29.9326 40.0668 29.3388 39.9419C29.1966 39.9121 29.0618 39.8542 28.9421 39.7718L27.7994 38.9873L26.7984 39.9861L27.5851 41.1299C27.9295 41.6295 27.8035 42.3137 27.3039 42.658C27.184 42.7406 27.049 42.7985 26.9067 42.8285L25.5371 43.1169V44.4222L26.9067 44.7106C27.5005 44.8357 27.8805 45.4184 27.7554 46.0122C27.7254 46.1547 27.6673 46.2899 27.5846 46.4098L26.7984 47.5475L27.7994 48.5463L28.941 47.7596C29.4406 47.4153 30.1248 47.5412 30.4692 48.0408C30.5517 48.1607 30.6097 48.2957 30.6396 48.438L30.9275 49.8098H32.2333L32.5212 48.4402C32.6461 47.8464 33.2288 47.4663 33.8226 47.5913C33.965 47.6213 34.1 47.6792 34.2198 47.7618L35.3608 48.5463L36.5392 47.3679C36.3416 46.7872 35.9509 46.2917 35.4322 45.9643Z" fill="#1D3566"/>
<path d="M43.2621 52.5566H38.8672V53.6554H43.2621V52.5566Z" fill="#1D3566"/>
<path d="M54.7816 33.8733C53.8806 33.7444 53.2546 32.9095 53.3834 32.0085C53.4453 31.5758 53.6765 31.1854 54.0263 30.9232L55.3134 29.9574L53.9949 28.1994L52.7078 29.1647C51.9797 29.711 50.9467 29.5636 50.4004 28.8357C50.1384 28.4865 50.0256 28.0477 50.0868 27.6155L50.3142 26.0223L48.1393 25.7119L47.9118 27.3051C47.7829 28.2061 46.948 28.8321 46.047 28.7033C45.6143 28.6414 45.2239 28.4102 44.9618 28.0604L43.996 26.7711L42.238 28.0896L43.2032 29.3767C43.7494 30.1048 43.602 31.1378 42.8739 31.6841C42.524 31.9466 42.0843 32.0592 41.6513 31.9972L40.0581 31.7698L39.7461 33.9452L41.3393 34.1727C42.2403 34.3016 42.8663 35.1365 42.7375 36.0375C42.6756 36.4702 42.4444 36.8606 42.0946 37.1228L40.808 38.0885L42.1265 39.8465L43.4136 38.8813C44.1418 38.3351 45.1748 38.4825 45.721 39.2106C45.9835 39.5605 46.0961 40.0003 46.0341 40.4332L45.8067 42.0264L47.9866 42.3384L48.214 40.7453C48.3429 39.8442 49.1778 39.2182 50.0788 39.3471C50.5115 39.4089 50.9019 39.6401 51.1641 39.9899L52.1299 41.2765L53.8878 39.958L52.9193 38.6687C52.3733 37.9404 52.521 36.9074 53.2493 36.3614C53.5984 36.0996 54.037 35.987 54.469 36.0482L56.0622 36.2756L56.3726 34.1007L54.7816 33.8733ZM48.0613 37.3194C46.2408 37.3194 44.7651 35.8437 44.7651 34.0232C44.7651 32.2028 46.2408 30.7271 48.0613 30.7271C49.8817 30.7271 51.3575 32.2028 51.3575 34.0232C51.3553 35.8428 49.8808 37.3173 48.0613 37.3194Z" fill="#1D3566"/>
<path d="M55.3475 44.8657H51.502V45.9645H55.3475V44.8657Z" fill="#1D3566"/>
<path d="M51.3049 47.7393L50.6016 48.5835L53.898 51.3299L54.6013 50.4857L51.3049 47.7393Z" fill="#1D3566"/>
<path d="M49.3058 49.2603H48.207V53.1058H49.3058V49.2603Z" fill="#1D3566"/>
<path d="M29.3946 32.796L25 33.8945L25.2663 34.9599L29.6609 33.8613L29.3946 32.796Z" fill="#1D3566"/>
<path d="M26.5504 27.3891L25.9121 28.2827L29.7574 31.0293L30.3956 30.1357L26.5504 27.3891Z" fill="#1D3566"/>
<path d="M31.6836 24.4022L30.6191 24.6743L31.7427 29.0689L32.8072 28.7967L31.6836 24.4022Z" fill="#1D3566"/>
<defs>
<filter id="filter0_d_736_2489" x="0" y="0.402344" width="82" height="82" filterUnits="userSpaceOnUse" color-interpolation-filters="sRGB">
<feFlood flood-opacity="0" result="BackgroundImageFix"/>
<feColorMatrix in="SourceAlpha" type="matrix" values="0 0 0 0 0 0 0 0 0 0 0 0 0 0 0 0 0 0 127 0" result="hardAlpha"/>
<feMorphology radius="2" operator="dilate" in="SourceAlpha" result="effect1_dropShadow_736_2489"/>
<feOffset dy="1"/>
<feGaussianBlur stdDeviation="2"/>
<feColorMatrix type="matrix" values="0 0 0 0 0.658333 0 0 0 0 0.658333 0 0 0 0 0.658333 0 0 0 0.25 0"/>
<feBlend mode="normal" in2="BackgroundImageFix" result="effect1_dropShadow_736_2489"/>
<feBlend mode="normal" in="SourceGraphic" in2="effect1_dropShadow_736_2489" result="shape"/>
</filter>
</defs>
</svg>
