<svg width="100" height="100" viewBox="0 0 100 100" fill="none" xmlns="http://www.w3.org/2000/svg">
<rect width="100" height="100" rx="9.87282" fill="#EFEFEF"/>
<path d="M50.0007 25.3906C39.4465 25.3906 30.8601 33.977 30.8601 44.5312C30.8601 49.6581 33.9663 56.2421 40.0922 64.0994C42.8988 67.6899 45.9382 71.0922 49.1908 74.2843C49.4088 74.4929 49.699 74.6093 50.0007 74.6093C50.3025 74.6093 50.5926 74.4929 50.8107 74.2843C54.0632 71.0922 57.1026 67.6899 59.9092 64.0994C66.0352 56.2421 69.1414 49.6581 69.1414 44.5312C69.1414 33.977 60.5549 25.3906 50.0007 25.3906ZM50.0007 58.2031C42.4617 58.2031 36.3289 52.0703 36.3289 44.5312C36.3289 36.9921 42.4617 30.8593 50.0007 30.8593C57.5398 30.8593 63.6726 36.9921 63.6726 44.5312C63.6726 52.0703 57.5398 58.2031 50.0007 58.2031Z" fill="#559CE4"/>
<path d="M59.3821 42.8828L50.7883 35.0703C50.5726 34.8742 50.2916 34.7656 50 34.7656C49.7085 34.7656 49.4275 34.8742 49.2118 35.0703L40.618 42.8828C40.4178 43.0649 40.2868 43.3106 40.2471 43.5783C40.2074 43.846 40.2615 44.1191 40.4003 44.3515C40.5097 44.5284 40.6632 44.6739 40.8456 44.7738C41.0281 44.8738 41.2333 44.9247 41.4413 44.9218H42.5782V52.3437C42.5782 52.6545 42.7016 52.9525 42.9214 53.1723C43.1412 53.3921 43.4393 53.5155 43.7501 53.5155H46.4844C46.7952 53.5155 47.0933 53.3921 47.3131 53.1723C47.5328 52.9525 47.6563 52.6545 47.6563 52.3437V48.0468C47.6563 47.736 47.7798 47.4379 47.9995 47.2181C48.2193 46.9984 48.5174 46.8749 48.8282 46.8749H51.1719C51.4827 46.8749 51.7808 46.9984 52.0006 47.2181C52.2203 47.4379 52.3438 47.736 52.3438 48.0468V52.3437C52.3438 52.6545 52.4673 52.9525 52.687 53.1723C52.9068 53.3921 53.2049 53.5155 53.5157 53.5155H56.25C56.5608 53.5155 56.8589 53.3921 57.0787 53.1723C57.2985 52.9525 57.4219 52.6545 57.4219 52.3437V44.9218H58.5588C58.7668 44.9247 58.972 44.8738 59.1545 44.7738C59.3369 44.6739 59.4904 44.5284 59.5998 44.3515C59.7386 44.1191 59.7927 43.846 59.753 43.5783C59.7133 43.3106 59.5823 43.0649 59.3821 42.8828V42.8828Z" fill="#559CE4"/>
</svg>
