<svg width="100" height="100" viewBox="0 0 100 100" fill="none" xmlns="http://www.w3.org/2000/svg">
<rect width="100" height="100" rx="9.87282" fill="#EFEFEF"/>
<g clip-path="url(#clip0_623_8701)">
<path d="M58.1433 50.2563L74.9995 60.9125V39.15L58.1433 50.2563Z" fill="#1D3566"/>
<path d="M24.9998 39.15V60.9125L41.856 50.2563L24.9998 39.15Z" fill="#1D3566"/>
<path d="M71.8755 32.8126H28.1255C26.5661 32.8126 25.3286 33.9751 25.0942 35.4719L50.0005 51.8813L74.9067 35.4719C74.6724 33.9751 73.4349 32.8126 71.8755 32.8126Z" fill="#1D3566"/>
<path d="M55.2816 52.1437L50.8597 55.0562C50.5972 55.2281 50.3003 55.3125 50.0003 55.3125C49.7003 55.3125 49.4035 55.2281 49.141 55.0562L44.7191 52.1406L25.1003 64.55C25.341 66.0344 26.5722 67.1875 28.1253 67.1875H71.8753C73.4285 67.1875 74.6597 66.0344 74.9003 64.55L55.2816 52.1437Z" fill="#1D3566"/>
</g>
<defs>
<clipPath id="clip0_623_8701">
<rect width="50" height="50" fill="white" transform="translate(25 25)"/>
</clipPath>
</defs>
</svg>
