<svg width="100" height="100" viewBox="0 0 100 100" fill="none" xmlns="http://www.w3.org/2000/svg">
<rect width="100" height="100" rx="9.87282" fill="#EFEFEF"/>
<g clip-path="url(#clip0_623_8689)">
<path d="M74.028 64.758L68.4849 61.0624L63.5574 57.7779C62.6064 57.1452 61.3284 57.3527 60.6263 58.2538L57.5773 62.1736C56.9223 63.0242 55.7441 63.2686 54.8048 62.7486C52.7359 61.5977 50.2894 60.5141 44.8912 55.109C39.493 49.7039 38.4025 47.2643 37.2516 45.1954C36.7316 44.2561 36.976 43.0779 37.8266 42.423L41.7464 39.374C42.6475 38.672 42.855 37.394 42.2223 36.4429L39.0387 31.6671L35.2422 25.9723C34.596 25.0029 33.3024 24.7119 32.3034 25.311L27.925 27.9378C26.7417 28.6349 25.8719 29.7607 25.4957 31.0817C24.2983 35.4471 24.0569 45.0772 39.4904 60.5106C54.9238 75.944 64.553 75.7019 68.9184 74.5044C70.2394 74.1283 71.3652 73.2585 72.0623 72.0751L74.6891 67.6968C75.2883 66.6977 74.9973 65.4042 74.028 64.758Z" fill="#1476BF"/>
<path d="M53.4477 32.7584C61.5376 32.7674 68.0937 39.3234 68.1027 47.4134C68.1027 47.8895 68.4886 48.2755 68.9648 48.2755C69.4409 48.2755 69.8269 47.8896 69.8269 47.4134C69.8169 38.3716 62.4896 31.0443 53.4478 31.0343C52.9717 31.0343 52.5857 31.4202 52.5857 31.8964C52.5856 32.3724 52.9715 32.7584 53.4477 32.7584Z" fill="#1476BF"/>
<path d="M53.4478 37.9307C58.6824 37.9368 62.9242 42.1788 62.9304 47.4133C62.9304 47.8894 63.3163 48.2754 63.7925 48.2754C64.2686 48.2754 64.6546 47.8895 64.6546 47.4133C64.6475 41.2269 59.6342 36.2136 53.4478 36.2065C52.9717 36.2065 52.5857 36.5924 52.5857 37.0686C52.5857 37.5447 52.9716 37.9307 53.4478 37.9307Z" fill="#1476BF"/>
<path d="M53.4477 43.1031C55.8271 43.1059 57.7552 45.034 57.758 47.4134C57.758 47.8894 58.1439 48.2755 58.6201 48.2755C59.0962 48.2755 59.4822 47.8895 59.4822 47.4134C59.4784 44.0823 56.7789 41.3828 53.4478 41.379C52.9717 41.379 52.5857 41.7649 52.5857 42.2411C52.5856 42.7171 52.9715 43.1031 53.4477 43.1031Z" fill="#1476BF"/>
</g>
<defs>
<clipPath id="clip0_623_8689">
<rect width="50" height="50" fill="white" transform="translate(25 25)"/>
</clipPath>
</defs>
</svg>
