<svg width="70" height="71" viewBox="0 0 70 71" fill="none" xmlns="http://www.w3.org/2000/svg">
<rect y="0.402344" width="70" height="70" rx="6" fill="#174276"/>
<path d="M49.3218 15.4023H40.2896C39.2225 15.4023 38.3541 16.2707 38.3541 17.3378V18.6282C36.9309 18.6282 35.7734 19.7856 35.7734 21.2088C35.7734 22.632 36.9309 23.7894 38.3541 23.7894V27.0152H43.5154V25.7249C43.5154 25.0133 44.0941 24.4346 44.8057 24.4346C45.5173 24.4346 46.096 25.0133 46.096 25.7249V27.0152H49.3218C50.3889 27.0152 51.2573 26.1469 51.2573 25.0798V17.3378C51.2573 16.2707 50.3889 15.4023 49.3218 15.4023ZM49.967 25.0798C49.967 25.4352 49.678 25.7249 49.3218 25.7249H47.3863C47.3863 24.3017 46.2289 23.1443 44.8057 23.1443C43.3825 23.1443 42.225 24.3017 42.225 25.7249H39.6444V22.4991H38.3541C37.6425 22.4991 37.0638 21.9204 37.0638 21.2088C37.0638 20.4972 37.6425 19.9185 38.3541 19.9185H39.6444V17.3378C39.6444 16.9823 39.9334 16.6927 40.2896 16.6927H49.3218C49.678 16.6927 49.967 16.9823 49.967 17.3378V25.0798Z" fill="white"/>
<path d="M38.3548 28.3055C36.9316 28.3055 35.7742 29.4629 35.7742 30.8861H33.1935V27.6603H31.9032C31.1916 27.6603 30.6129 27.0816 30.6129 26.37C30.6129 25.6584 31.1916 25.0796 31.9032 25.0796H33.1935V19.2732H31.4639C24.5916 19.2732 19 24.8648 19 31.7371C19 35.4906 20.6665 39.0067 23.5716 41.3835L26.0968 43.45V45.199C25.3477 45.4661 24.8065 46.1758 24.8065 47.0158C24.8065 47.908 25.4161 48.6538 26.2387 48.8764C26.149 49.099 26.0968 49.3409 26.0968 49.5958C26.0968 50.4487 26.6548 51.1661 27.4219 51.4235C27.689 53.6609 29.5955 55.4022 31.9032 55.4022C34.211 55.4022 36.1174 53.6609 36.3845 51.4235C37.1516 51.1661 37.7097 50.4487 37.7097 49.5958C37.7097 49.3409 37.6574 49.099 37.5677 48.8758C38.3903 48.6525 39 47.9074 39 47.0151C39 46.1751 38.4587 45.4655 37.7097 45.1984V43.4493L40.2348 41.3829C43.14 39.0067 44.8064 35.4906 44.8064 31.7371V30.8861H40.9355C40.9355 29.4629 39.7781 28.3055 38.3548 28.3055ZM31.4639 20.5635H31.9032V23.7893C30.48 23.7893 29.3226 24.9467 29.3226 26.37C29.3226 27.7932 30.48 28.9506 31.9032 28.9506V30.8861H29.3226C29.3226 29.4629 28.1652 28.3055 26.7419 28.3055C25.3187 28.3055 24.1613 29.4629 24.1613 30.8861H20.3226C20.7587 25.1209 25.589 20.5635 31.4639 20.5635ZM24.3884 40.3848C21.8974 38.3467 20.4226 35.3751 20.2994 32.1764H25.4516V30.8861C25.4516 30.1745 26.0303 29.5958 26.7419 29.5958C27.4535 29.5958 28.0323 30.1745 28.0323 30.8861V32.1764H31.9032V34.7571C30.48 34.7571 29.3226 35.9145 29.3226 37.3377C29.3226 38.7609 30.48 39.9184 31.9032 39.9184V45.0796H27.3871V42.8384L24.3884 40.3848ZM31.9032 54.1119C30.3458 54.1119 29.0426 53.0016 28.7426 51.5313H35.0639C34.7639 53.0016 33.4606 54.1119 31.9032 54.1119ZM35.7742 50.2409H28.0323C27.6761 50.2409 27.3871 49.9513 27.3871 49.5958C27.3871 49.2403 27.6761 48.9506 28.0323 48.9506H35.7742C36.1303 48.9506 36.4194 49.2403 36.4194 49.5958C36.4194 49.9513 36.1303 50.2409 35.7742 50.2409ZM37.0645 47.6603H35.7742H28.0323H26.7419C26.3858 47.6603 26.0968 47.3706 26.0968 47.0151C26.0968 46.6596 26.3858 46.37 26.7419 46.37H37.0645C37.4206 46.37 37.7097 46.6596 37.7097 47.0151C37.7097 47.3706 37.4206 47.6603 37.0645 47.6603ZM39.4181 40.3848L36.4194 42.8384V45.0796H33.1935V38.628H31.9032C31.1916 38.628 30.6129 38.0493 30.6129 37.3377C30.6129 36.6261 31.1916 36.0474 31.9032 36.0474H33.1935V32.1764H37.0645V30.8861C37.0645 30.1745 37.6432 29.5958 38.3548 29.5958C39.0665 29.5958 39.6452 30.1745 39.6452 30.8861V32.1764H43.5071C43.3839 35.3751 41.909 38.3467 39.4181 40.3848Z" fill="white"/>
</svg>
