<svg width="102" height="102" viewBox="0 0 102 102" fill="none" xmlns="http://www.w3.org/2000/svg">
<circle cx="51" cy="51" r="50" stroke="#1D3566" stroke-width="1.33444" stroke-dasharray="4 4"/>
<circle cx="51.0001" cy="51.0001" r="44.1177" fill="#E5E5E5"/>
<path d="M73.2856 50.0214C73.5113 48.6672 73.1163 47.313 72.2699 46.2973C71.3671 45.2817 70.1258 44.661 68.7715 44.661H59.0664C59.3485 43.0247 59.6306 41.8397 59.9128 40.6548C60.3642 38.9056 60.7591 37.2693 61.0413 34.5609C61.3234 31.4575 59.1792 29.6518 57.0915 29.3133C54.8345 28.9747 52.2389 30.1033 51.5618 32.9809C49.9819 40.2598 43.8316 45.1688 42.0259 46.4666C41.9695 46.523 41.8567 46.5794 41.7438 46.6359H31.7565C30.1202 46.6359 28.766 47.9901 28.766 49.6264V66.6669C28.766 68.3032 30.1202 69.6574 31.7565 69.6574H41.9131C42.4773 69.8267 43.0416 70.1088 43.7751 70.4474C45.8629 71.5194 48.9663 73.1558 55.4552 73.1558H67.0224C69.3358 73.1558 71.3671 71.5194 71.7621 69.3189C71.9878 67.9646 71.5928 66.6104 70.7464 65.5948C71.5364 64.9177 72.1006 64.0149 72.3263 62.9428C72.552 61.5886 72.1571 60.2344 71.3107 59.2187C71.3107 59.2187 71.3107 59.2187 71.3107 59.1623C72.1006 58.4852 72.6649 57.5824 72.8906 56.5103C73.1163 55.1561 72.7213 53.8019 71.8749 52.7862C72.552 52.0527 73.1163 51.0935 73.2856 50.0214ZM31.5308 66.6669V49.6828C31.5308 49.57 31.6437 49.4571 31.7565 49.4571H40.7846V66.949H31.7565C31.6437 66.8926 31.5308 66.7797 31.5308 66.6669ZM67.0788 53.8583H68.2637C68.828 53.8583 69.3358 54.084 69.6744 54.5354C70.0129 54.9304 70.1822 55.4946 70.0693 56.0589C69.9001 56.9053 69.0537 57.5824 68.038 57.5824H66.5145C65.7246 57.5824 65.1603 58.2031 65.1603 58.9366C65.1603 59.6701 65.781 60.2908 66.5145 60.2908H67.6995C68.2637 60.2908 68.7715 60.5165 69.1101 60.9679C69.4487 61.3629 69.6179 61.9271 69.5051 62.4914C69.3358 63.3378 68.4894 64.0149 67.4738 64.0149H65.9503C65.1603 64.0149 64.5961 64.6356 64.5961 65.3691C64.5961 66.1026 65.2168 66.7233 65.9503 66.7233H67.1352C67.6995 66.7233 68.2073 66.949 68.5458 67.4004C68.8844 67.7954 69.0537 68.3596 68.9408 68.9239C68.7715 69.7703 67.9252 70.4474 66.9095 70.4474H55.4552C49.6434 70.4474 46.9914 69.0932 45.0165 68.0775C44.5087 67.7954 44.0008 67.5697 43.493 67.344V48.78C43.5494 48.78 43.5494 48.7236 43.6059 48.7236C45.6372 47.2566 52.4082 41.7833 54.2138 33.658C54.5524 32.191 55.8501 31.9653 56.5837 32.0781C57.4865 32.2474 58.3893 32.8681 58.22 34.3352C57.9943 36.8179 57.5993 38.3978 57.2044 40.0341C56.8658 41.3883 56.5273 42.799 56.1887 44.7738C56.0758 45.4509 56.2451 46.128 56.6965 46.6923C57.1479 47.2001 57.7686 47.4823 58.4457 47.4823H68.6587C69.2229 47.4823 69.7308 47.708 70.0693 48.1594C70.4079 48.5543 70.5772 49.1186 70.4643 49.6828C70.295 50.5292 69.4487 51.2063 68.4894 51.2063H66.9659C66.176 51.2063 65.6117 51.827 65.6117 52.5605C65.6117 53.2941 66.2888 53.8583 67.0788 53.8583Z" fill="#1D3566"/>
<path d="M36.1577 64.4098C37.3419 64.4098 38.3019 63.4498 38.3019 62.2656C38.3019 61.0814 37.3419 60.1215 36.1577 60.1215C34.9735 60.1215 34.0135 61.0814 34.0135 62.2656C34.0135 63.4498 34.9735 64.4098 36.1577 64.4098Z" fill="#1D3566"/>
<path d="M56.1322 25.8712C56.9221 25.8712 57.4864 25.2505 57.4864 24.5169V20.9057C57.4864 20.1158 56.8657 19.5515 56.1322 19.5515C55.3422 19.5515 54.778 20.1722 54.778 20.9057V24.4605C54.778 25.2505 55.3986 25.8712 56.1322 25.8712Z" fill="#1D3566"/>
<path d="M48.0634 28.2976C48.3456 28.5797 48.6841 28.6925 49.0227 28.6925C49.3612 28.6925 49.7562 28.5797 49.9819 28.2976C50.5461 27.7333 50.5461 26.8869 49.9819 26.3227L47.4428 23.7835C46.8785 23.2193 46.0321 23.2193 45.4679 23.7835C44.9036 24.3478 44.9036 25.1942 45.4679 25.7584L48.0634 28.2976Z" fill="#1D3566"/>
<path d="M42.4209 35.7455H45.9757C46.7656 35.7455 47.3299 35.1248 47.3299 34.3913C47.3299 33.6578 46.7092 33.0371 45.9757 33.0371H42.4209C41.6309 33.0371 41.0667 33.6578 41.0667 34.3913C41.0667 35.1248 41.6873 35.7455 42.4209 35.7455Z" fill="#1D3566"/>
<path d="M64.6525 34.6173C64.6525 35.4072 65.2731 35.9715 66.0067 35.9715H69.5615C70.3514 35.9715 70.9157 35.3508 70.9157 34.6173C70.9157 33.8837 70.295 33.2631 69.5615 33.2631H66.0067C65.2731 33.2631 64.6525 33.8837 64.6525 34.6173Z" fill="#1D3566"/>
<path d="M63.1854 28.9181C63.524 28.9181 63.919 28.8053 64.1447 28.5232L66.6838 25.984C67.2481 25.4198 67.2481 24.5734 66.6838 24.0091C66.1195 23.4449 65.2732 23.4449 64.7089 24.0091L62.1698 26.5483C61.6055 27.1125 61.6055 27.9589 62.1698 28.5232C62.4519 28.7489 62.8469 28.9181 63.1854 28.9181Z" fill="#1D3566"/>
</svg>
