<svg width="82" height="83" viewBox="0 0 82 83" fill="none" xmlns="http://www.w3.org/2000/svg">
<g filter="url(#filter0_d_736_2477)">
<circle cx="41" cy="40.4023" r="35" fill="white"/>
</g>
<path d="M41.0007 25.4023C40.3635 25.4023 39.7325 25.5316 39.1438 25.7827C38.5551 26.0338 38.0202 26.4019 37.5696 26.8659C37.1191 27.33 36.7616 27.8808 36.5178 28.4871C36.2739 29.0934 36.1484 29.7432 36.1484 30.3994C36.1484 31.0556 36.2739 31.7054 36.5178 32.3117C36.7616 32.9179 37.1191 33.4688 37.5696 33.9328C38.0202 34.3969 38.5551 34.7649 39.1438 35.0161C39.7325 35.2672 40.3635 35.3964 41.0007 35.3964C42.2876 35.3964 43.5218 34.87 44.4318 33.9328C45.3418 32.9957 45.853 31.7247 45.853 30.3994C45.853 29.0741 45.3418 27.8031 44.4318 26.8659C43.5218 25.9288 42.2876 25.4023 41.0007 25.4023Z" fill="#1D3566"/>
<path d="M51.928 27.8979C50.9619 27.8979 50.0353 28.2932 49.3521 28.9967C48.669 29.7003 48.2852 30.6545 48.2852 31.6495C48.2852 32.6445 48.669 33.5987 49.3521 34.3022C50.0353 35.0058 50.9619 35.401 51.928 35.401C52.8942 35.401 53.8207 35.0058 54.5039 34.3022C55.1871 33.5987 55.5709 32.6445 55.5709 31.6495C55.5709 30.6545 55.1871 29.7003 54.5039 28.9967C53.8207 28.2932 52.8942 27.8979 51.928 27.8979Z" fill="#1D3566"/>
<path d="M30.0706 27.8979C29.1044 27.8979 28.1779 28.2932 27.4947 28.9967C26.8115 29.7003 26.4277 30.6545 26.4277 31.6495C26.4277 32.6445 26.8115 33.5987 27.4947 34.3022C28.1779 35.0058 29.1044 35.401 30.0706 35.401C31.0367 35.401 31.9633 35.0058 32.6465 34.3022C33.3296 33.5987 33.7134 32.6445 33.7134 31.6495C33.7134 30.6545 33.3296 29.7003 32.6465 28.9967C31.9633 28.2932 31.0367 27.8979 30.0706 27.8979Z" fill="#1D3566"/>
<path d="M33.7148 40.3859C33.7193 39.7256 33.9772 39.0939 34.4321 38.6287C34.8871 38.1634 35.5023 37.9023 36.1434 37.9023H45.8577C46.5018 37.9023 47.1195 38.1658 47.575 38.6349C48.0304 39.1039 48.2863 39.7401 48.2863 40.4034V47.9064C48.2861 48.6936 48.1665 49.4758 47.9317 50.2249C47.3939 51.9223 46.2862 53.3668 44.8074 54.2988C43.3285 55.2308 41.5755 55.5894 39.8631 55.3102C38.1506 55.0309 36.591 54.1321 35.4641 52.7751C34.3372 51.4182 33.717 49.692 33.7148 47.9064V40.4034V40.3859Z" fill="#1D3566"/>
<path d="M31.2857 40.4034C31.2857 39.4905 31.5213 38.6376 31.9366 37.9023H26.4286C25.7845 37.9023 25.1668 38.1658 24.7113 38.6349C24.2559 39.1039 24 39.7401 24 40.4034V46.6559C23.9997 47.6796 24.2434 48.6877 24.7098 49.5917C25.1762 50.4957 25.851 51.268 26.6749 51.8406C27.4989 52.4133 28.4467 52.7689 29.4353 52.8762C30.4238 52.9834 31.4228 52.8391 32.3446 52.4558C31.6456 51.0467 31.2826 49.4863 31.2857 47.9039V40.4034Z" fill="#1D3566"/>
<path d="M50.7151 40.4034V47.9064C50.7151 49.5446 50.3338 51.0902 49.6562 52.4558C50.578 52.8391 51.577 52.9834 52.5655 52.8762C53.5541 52.7689 54.502 52.4133 55.3259 51.8406C56.1498 51.268 56.8246 50.4957 57.291 49.5917C57.7574 48.6877 58.0011 47.6796 58.0008 46.6559V40.4034C58.0008 39.7401 57.7449 39.1039 57.2895 38.6349C56.8341 38.1658 56.2163 37.9023 55.5722 37.9023H50.0643C50.4771 38.6376 50.7151 39.4905 50.7151 40.4034Z" fill="#1D3566"/>
<defs>
<filter id="filter0_d_736_2477" x="0" y="0.402344" width="82" height="82" filterUnits="userSpaceOnUse" color-interpolation-filters="sRGB">
<feFlood flood-opacity="0" result="BackgroundImageFix"/>
<feColorMatrix in="SourceAlpha" type="matrix" values="0 0 0 0 0 0 0 0 0 0 0 0 0 0 0 0 0 0 127 0" result="hardAlpha"/>
<feMorphology radius="2" operator="dilate" in="SourceAlpha" result="effect1_dropShadow_736_2477"/>
<feOffset dy="1"/>
<feGaussianBlur stdDeviation="2"/>
<feColorMatrix type="matrix" values="0 0 0 0 0.658333 0 0 0 0 0.658333 0 0 0 0 0.658333 0 0 0 0.25 0"/>
<feBlend mode="normal" in2="BackgroundImageFix" result="effect1_dropShadow_736_2477"/>
<feBlend mode="normal" in="SourceGraphic" in2="effect1_dropShadow_736_2477" result="shape"/>
</filter>
</defs>
</svg>
