<svg width="24" height="24" viewBox="0 0 24 24" fill="none" xmlns="http://www.w3.org/2000/svg">
<path d="M12.0642 20C11.8203 20 11.588 19.911 11.4112 19.7493C11.3983 19.7377 9.87645 18.3376 3.72911 12.4899L3.68625 12.4492C3.62304 12.3896 3.59203 12.3553 3.56103 12.3208C2.55717 11.2884 2 9.94587 2 8.54876C2 5.48927 4.61683 3 7.83311 3C9.41166 3 10.911 3.60446 11.9997 4.66893C13.0887 3.60441 14.5883 3 16.1669 3C19.3832 3 22 5.48927 22 8.54876C22 10.0819 21.3542 11.5082 20.1811 12.5676C20.1639 12.5867 20.1482 12.6019 20.1366 12.6126C13.9397 18.5073 12.7644 19.7028 12.7531 19.7142C12.5806 19.8895 12.3387 19.9935 12.0882 19.9994L12.0642 20ZM7.83342 3.59583C4.96211 3.59583 2.62636 5.81772 2.62636 8.54906C2.62636 9.79577 3.12467 10.9949 4.02934 11.9256C4.06002 11.9593 4.0819 11.9837 4.12827 12.0275L4.17208 12.0692C10.3175 17.9151 11.8316 19.3077 11.845 19.3202C11.9042 19.3744 11.9812 19.4042 12.062 19.4048L12.0751 19.4045C12.1568 19.4024 12.2382 19.3675 12.2958 19.3089C12.3049 19.2994 13.49 18.0943 19.6931 12.1937L19.7381 12.1475C20.7933 11.2009 21.3746 9.92297 21.3746 8.54936C21.3746 5.81802 19.0388 3.59613 16.1675 3.59613C14.6534 3.59613 13.2211 4.21876 12.2376 5.30468L12.0003 5.56642L11.763 5.30438C10.7798 4.21846 9.34776 3.59583 7.83342 3.59583Z" fill="white" stroke="white" stroke-width="0.75"/>
</svg>
