<svg width="24" height="24" viewBox="0 0 24 24" fill="none" xmlns="http://www.w3.org/2000/svg">
<path d="M6.80002 5C6.05741 5 5.34521 5.295 4.82011 5.82011C4.295 6.34521 4 7.05741 4 7.80002V8.08143L12.4001 12.6049L20.8001 8.08283V7.80002C20.8001 7.05741 20.5051 6.34521 19.98 5.82011C19.4549 5.295 18.7427 5 18.0001 5H6.80002Z" fill="white"/>
<path d="M20.8001 9.67188L12.7319 14.0161C12.6299 14.071 12.5159 14.0997 12.4001 14.0997C12.2843 14.0997 12.1702 14.071 12.0683 14.0161L4 9.67188V16.2001C4 16.9427 4.295 17.6549 4.82011 18.18C5.34521 18.7052 6.05741 19.0002 6.80002 19.0002H18.0001C18.7427 19.0002 19.4549 18.7052 19.98 18.18C20.5051 17.6549 20.8001 16.9427 20.8001 16.2001V9.67188Z" fill="white"/>
</svg>
