<svg width="113" height="113" viewBox="0 0 113 113" fill="none" xmlns="http://www.w3.org/2000/svg">
<path d="M56.6484 112.96C87.5764 112.96 112.648 87.8879 112.648 56.96C112.648 26.032 87.5764 0.959961 56.6484 0.959961C25.7205 0.959961 0.648438 26.032 0.648438 56.96C0.648438 87.8879 25.7205 112.96 56.6484 112.96Z" fill="#1D3566"/>
<mask id="mask0_736_1804" style="mask-type:alpha" maskUnits="userSpaceOnUse" x="0" y="0" width="113" height="113">
<path d="M56.6484 112.96C87.5764 112.96 112.648 87.8879 112.648 56.96C112.648 26.032 87.5764 0.959961 56.6484 0.959961C25.7205 0.959961 0.648438 26.032 0.648438 56.96C0.648438 87.8879 25.7205 112.96 56.6484 112.96Z" fill="#1D3566"/>
</mask>
<g mask="url(#mask0_736_1804)">
<path d="M69.4701 70.6162L39.7095 71.2482L13.4014 86.6961C10.9808 88.4287 9.57057 91.2491 9.63076 94.2244L14.3988 135.301L101.488 129.815L100.495 92.2939C100.43 89.3144 98.904 86.5628 96.4103 84.9333L69.4701 70.6162Z" fill="#1476BF"/>
<path d="M54.8393 84.5063C46.5801 84.6826 39.744 78.1303 39.5677 69.8711L38.6777 27.9904L68.5802 27.3584L69.4702 69.2391C69.6465 77.494 63.0985 84.3301 54.8393 84.5063Z" fill="white"/>
<path d="M37.4939 54.5019C35.4946 54.5449 33.8435 52.9583 33.8005 50.9632L33.7274 47.5966C33.6844 45.5973 35.271 43.9462 37.266 43.9032C39.2654 43.8602 40.9164 45.4468 40.9594 47.4418L41.0325 50.8084C41.0755 52.8035 39.489 54.4589 37.4939 54.5019Z" fill="white"/>
<path d="M72.2095 27.4184L43.1211 28.0381L43.8833 63.815L72.9717 63.1953L72.2095 27.4184Z" fill="white"/>
<path d="M38.9688 44.2774L41.9956 46.2036L45.2631 29.7153C59.5759 32.2476 73.6823 35.8076 77.6679 28.0815C81.6534 20.3554 73.7941 4.53356 69.6065 12.6939C67.087 17.6038 60.3498 16.6536 60.3498 16.6536C60.3498 16.6536 38.1261 13.3646 35.8474 21.5249C35.8431 21.5249 25.589 22.6857 38.9688 44.2774Z" fill="#474747"/>
<path d="M69.3453 63.2637L50.832 63.8097L67.8578 76.2264C67.8578 76.2264 69.3668 73.4232 69.4958 70.5383L69.3453 63.2637Z" fill="#EEEEEE"/>
<path opacity="0.35" d="M61.56 43.4993C61.6244 46.5392 59.2123 49.0588 56.1682 49.1233C53.1283 49.1878 50.6087 46.7757 50.5442 43.7315C50.4797 40.6916 52.8918 38.172 55.936 38.1075C58.9759 38.0474 61.4955 40.4595 61.56 43.4993Z" fill="white"/>
<path opacity="0.73" d="M77.2768 43.1684C77.3412 46.2083 74.9291 48.7279 71.885 48.7924C68.8451 48.8569 66.3255 46.4448 66.261 43.4006C66.1965 40.3607 68.6086 37.8411 71.6528 37.7767C74.6927 37.7122 77.2123 40.1243 77.2768 43.1684Z" fill="white"/>
<path d="M61.56 43.4993C61.6244 46.5392 59.2123 49.0588 56.1682 49.1233C53.1283 49.1878 50.6087 46.7757 50.5442 43.7315C50.4797 40.6916 52.8918 38.172 55.936 38.1075C58.9759 38.0474 61.4955 40.4595 61.56 43.4993Z" stroke="#474747" stroke-width="4" stroke-miterlimit="10"/>
<path d="M77.2768 43.1684C77.3412 46.2083 74.9291 48.7279 71.885 48.7924C68.8451 48.8569 66.3255 46.4448 66.261 43.4006C66.1965 40.3607 68.6086 37.8411 71.6528 37.7767C74.6927 37.7122 77.2123 40.1243 77.2768 43.1684Z" stroke="#474747" stroke-width="4" stroke-miterlimit="10"/>
<path d="M40.697 45.2023C40.697 45.2023 32.1541 15.9834 61.1666 15.9834" stroke="white" stroke-width="4" stroke-miterlimit="10" stroke-linecap="round"/>
<path d="M41.0332 53.165C43.6975 53.165 45.8574 51.0052 45.8574 48.3408C45.8574 45.6765 43.6975 43.5166 41.0332 43.5166C38.3689 43.5166 36.209 45.6765 36.209 48.3408C36.209 51.0052 38.3689 53.165 41.0332 53.165Z" fill="#1476BF"/>
<path d="M41.8242 51.1738L46.8161 58.2167H57.8017" stroke="#D1D1D1" stroke-width="4" stroke-miterlimit="10" stroke-linecap="round"/>
<path d="M60.1005 59.8205H58.2001C57.452 59.8205 56.8457 59.2143 56.8457 58.4661V58.1522C56.8457 57.4041 57.452 56.7979 58.2001 56.7979H60.1005C60.8487 56.7979 61.4549 57.4041 61.4549 58.1522V58.4661C61.4549 59.2143 60.8487 59.8205 60.1005 59.8205Z" fill="#1476BF"/>
</g>
</svg>
