<svg width="40" height="41" viewBox="0 0 40 41" fill="none" xmlns="http://www.w3.org/2000/svg">
<circle cx="20" cy="20.542" r="20" fill="#1476BF"/>
<path d="M8.65499 18.7228C8.231 17.5775 7.92396 16.4079 8.01656 15.1651C8.07504 14.4 8.36258 13.7469 8.92304 13.2108C9.53223 12.6358 10.1073 12.0314 10.7068 11.4466C11.4865 10.6766 12.4661 10.6815 13.2459 11.4466C13.7283 11.9194 14.2059 12.4018 14.6836 12.8843C15.1465 13.3473 15.6144 13.8103 16.0774 14.2781C16.8913 15.1018 16.8961 16.0619 16.0823 16.8806C15.4974 17.4654 14.9175 18.0551 14.3229 18.6302C14.167 18.7813 14.1523 18.908 14.2352 19.0981C14.6251 20.0338 15.1904 20.8672 15.824 21.6469C17.1008 23.2162 18.5434 24.61 20.2638 25.6871C20.6341 25.9161 21.0386 26.0867 21.4237 26.2963C21.6235 26.4035 21.7551 26.3694 21.9159 26.2037C22.4958 25.6042 23.0904 25.0145 23.685 24.4248C24.4647 23.6548 25.4394 23.6499 26.2192 24.4248C27.1744 25.3703 28.1248 26.3206 29.0702 27.2759C29.8646 28.0751 29.8597 29.0547 29.0605 29.8588C28.5195 30.4047 27.9493 30.9213 27.4425 31.4915C26.7017 32.32 25.766 32.5929 24.7035 32.5344C23.1538 32.4515 21.7258 31.935 20.3466 31.2673C17.286 29.7809 14.6738 27.7193 12.4856 25.1169C10.8676 23.187 9.53223 21.0913 8.65499 18.7228ZM31.9992 20.4675C31.9992 13.8931 26.6481 8.54199 20.0737 8.54199V10.8131C25.3956 10.8131 29.7282 15.1456 29.7282 20.4675H31.9992ZM25.4687 20.4675H27.7398C27.7398 16.2422 24.299 12.8015 20.0737 12.8015V15.0725C21.5162 15.0725 22.8711 15.633 23.8897 16.6516C24.9082 17.6701 25.4687 19.025 25.4687 20.4675Z" fill="white"/>
</svg>
