<svg width="70" height="71" viewBox="0 0 70 71" fill="none" xmlns="http://www.w3.org/2000/svg">
<rect y="0.402344" width="70" height="70" rx="6" fill="#1476BF"/>
<path d="M52.5085 30.7644L49.0675 30.4328C48.7024 28.9678 48.1129 27.5679 47.3204 26.2826L49.5137 23.6348C49.7292 23.3749 49.7113 22.9942 49.4729 22.7558L45.751 19.0336C45.5126 18.7951 45.1318 18.7776 44.872 18.9927L42.2222 21.1867C40.9347 20.3999 39.5364 19.8107 38.074 19.4389L37.742 15.9931C37.7098 15.658 37.4279 15.4023 37.0912 15.4023H32.0046C31.6679 15.4023 31.3863 15.658 31.3541 15.9931L31.0218 19.4389C29.5594 19.8104 28.1611 20.3999 26.8736 21.1867L24.2238 18.9921C23.9643 18.777 23.5835 18.7945 23.3448 19.0329L19.6229 22.7554C19.3845 22.9942 19.3666 23.3749 19.5821 23.6348L21.7748 26.2823C20.9816 27.5676 20.3918 28.9678 20.0264 30.4331L16.5873 30.7651C16.2528 30.7976 15.9984 31.0794 16 31.4155V36.6921C15.9981 37.0279 16.2525 37.31 16.587 37.3426L20.0302 37.6745C20.4014 39.1366 20.9903 40.5352 21.7767 41.8228L19.5818 44.4722C19.3567 44.7438 19.3877 45.145 19.652 45.379L22.4751 47.8759C22.6145 47.9994 22.8003 48.0575 22.9857 48.0355C23.1709 48.0131 23.3378 47.9129 23.4444 47.76L27.5017 41.9383C27.6827 41.6785 27.6514 41.3261 27.4273 41.1021C23.5347 37.2095 23.5344 30.8978 27.4273 27.0049C31.3203 23.1119 37.6319 23.1119 41.5248 27.0049C45.4178 30.8978 45.4178 37.2095 41.5248 41.1021C41.2979 41.329 41.2692 41.6868 41.4569 41.9469L45.6568 47.7683C45.7647 47.918 45.931 48.015 46.1145 48.0355C46.2981 48.0559 46.4816 47.9978 46.6198 47.8756L49.4438 45.3796C49.7081 45.146 49.7394 44.7445 49.514 44.4725L47.3197 41.8228C48.1065 40.5352 48.6957 39.1369 49.0672 37.6745L52.5085 37.3426C52.843 37.31 53.0974 37.0279 53.0955 36.6921V31.4149C53.0971 31.0791 52.843 30.797 52.5085 30.7644ZM51.7881 36.0981L48.4729 36.4179C48.1914 36.445 47.9597 36.6509 47.8993 36.9273C47.539 38.5618 46.8837 40.1168 45.9661 41.5167C45.8091 41.7567 45.827 42.0711 46.0099 42.2916L48.1036 44.8192L46.2949 46.4182L42.8344 41.6217C46.8413 37.2015 46.713 30.3441 42.4492 26.0802C38.0529 21.684 30.8993 21.684 26.503 26.0802C22.237 30.3463 22.1109 37.2088 26.1238 41.6284L22.7914 46.4102L20.9919 44.8188L23.0853 42.2913C23.2682 42.0701 23.2858 41.7561 23.1287 41.5161C22.2108 40.1165 21.5552 38.5615 21.1939 36.9273C21.1345 36.6512 20.9035 36.4454 20.6226 36.4179L17.3073 36.0981V32.0092L20.6226 31.6891C20.9054 31.6616 21.1377 31.4545 21.1968 31.1765C21.5485 29.5417 22.2038 27.9876 23.1281 26.5941C23.287 26.3538 23.2698 26.0378 23.086 25.816L20.9682 23.2591L23.8485 20.3786L26.4053 22.4959C26.6262 22.6792 26.9406 22.6967 27.1803 22.5394C28.5799 21.6214 30.1349 20.9658 31.769 20.6048C32.0458 20.5436 32.2513 20.3112 32.2784 20.0294L32.5982 16.71H36.4976L36.8177 20.0294C36.8448 20.3112 37.0504 20.5436 37.3268 20.6048C38.9613 20.9658 40.5163 21.6217 41.9158 22.5397C42.1555 22.697 42.4699 22.6795 42.6908 22.4963L45.2473 20.3789L48.1276 23.2591L46.0102 25.816C45.8266 26.0378 45.8097 26.3538 45.9687 26.5938C46.8933 27.9873 47.5486 29.5417 47.9006 31.1765C47.9587 31.4541 48.1904 31.6616 48.4726 31.6891L51.7881 32.0089V36.0981Z" fill="white"/>
<path d="M36.8269 45.5567V35.6314C38.4745 34.68 39.5561 32.8738 39.5561 31.0124C39.5561 28.4689 38.1017 26.6164 35.6654 26.0576C35.4624 26.011 35.2499 26.0636 35.0922 26.1993C34.9349 26.3352 34.8512 26.5379 34.8672 26.7454L35.0833 29.5193C34.5375 29.8056 33.8864 29.8059 33.3403 29.5199L33.5726 26.7307C33.5905 26.5162 33.5018 26.3068 33.3352 26.1705C33.1686 26.0343 32.9458 25.9886 32.7393 26.0486C30.5111 26.694 29.123 28.6103 29.123 31.0504C29.123 33.29 30.2982 35.1016 32.2592 35.8868V45.7738C30.8702 46.5937 29.5319 48.2576 29.553 50.3746C29.553 52.8974 30.9912 54.7623 33.3958 55.3639C33.6001 55.415 33.8162 55.3649 33.977 55.2293C34.1379 55.0936 34.2237 54.889 34.2078 54.6793L33.9927 51.9057C34.5381 51.6194 35.1896 51.6191 35.7357 51.9048L35.5033 54.6943C35.4854 54.9088 35.5742 55.1182 35.7408 55.2545C35.9074 55.3908 36.1302 55.4364 36.3367 55.3764C38.5539 54.7339 39.9449 52.8272 39.9672 50.3932C39.9676 48.1532 38.777 46.3419 36.8269 45.5567ZM36.8968 53.7154L37.0708 51.6252C37.0893 51.4027 36.9932 51.1863 36.8157 51.051L36.7912 51.0321C35.6402 50.1586 34.0456 50.1691 32.9065 51.0577C32.7354 51.1927 32.6429 51.4043 32.6598 51.6216L32.8267 53.7719C31.5682 53.1447 30.8645 51.9466 30.8645 50.3683C30.8475 48.6486 32.0585 47.293 33.1944 46.7607C33.4233 46.6528 33.5685 46.4217 33.5669 46.1686V35.4237C33.5685 35.1361 33.3811 34.8817 33.106 34.7978C31.4556 34.2995 30.4326 32.8636 30.4326 31.0497C30.4326 29.5889 31.0824 28.3811 32.1782 27.709L32.0049 29.7992C31.9863 30.022 32.0827 30.2387 32.2608 30.3737L32.2851 30.3922C33.4344 31.2655 35.0274 31.2562 36.1662 30.3699C36.172 30.3654 36.1783 30.3603 36.1838 30.3558C36.3466 30.2202 36.4334 30.014 36.4171 29.8027L36.2479 27.6295C37.5316 28.2311 38.2495 29.4239 38.2495 31.0127C38.2495 32.4937 37.2808 33.988 35.8936 34.6468C35.6658 34.755 35.5205 34.9848 35.5205 35.2373V46.0195C35.5205 46.3078 35.7095 46.5618 35.9852 46.6451C37.636 47.1437 38.6609 48.5796 38.6609 50.3874C38.6468 51.8419 37.9916 53.0455 36.8971 53.7154H36.8968Z" fill="white"/>
</svg>
