<svg width="82" height="83" viewBox="0 0 82 83" fill="none" xmlns="http://www.w3.org/2000/svg">
<g filter="url(#filter0_d_736_2531)">
<circle cx="41" cy="40.4023" r="35" fill="white"/>
</g>
<path d="M30.1899 43.8542C30.4039 43.9974 30.6459 44.0659 30.8853 44.0659C31.2892 44.0659 31.6858 43.8707 31.9273 43.5098C33.9511 40.4857 37.3342 38.6802 40.977 38.6802C44.609 38.6802 47.9865 40.4774 50.0117 43.4877C50.3979 44.0617 51.1761 44.2139 51.7499 43.8278C52.3239 43.4417 52.4761 42.6634 52.09 42.0895C50.4719 39.6844 48.152 37.9098 45.5009 36.9604C47.0908 35.6617 48.1076 33.6868 48.1076 31.4787C48.1076 27.5767 44.9332 24.4023 41.0313 24.4023C37.1294 24.4023 33.955 27.5767 33.955 31.4787C33.955 33.6709 34.9571 35.6335 36.5273 36.9325C33.8348 37.8784 31.48 39.6745 29.8456 42.1168C29.4609 42.6916 29.6151 43.4695 30.1899 43.8542ZM41.0313 26.9072C43.552 26.9072 45.6027 28.958 45.6027 31.4787C45.6027 33.9993 43.552 36.0501 41.0313 36.0501C38.5106 36.0501 36.4599 33.9993 36.4599 31.4787C36.4599 28.958 38.5106 26.9072 41.0313 26.9072ZM46.0259 46.5788L44.1588 47.9257C43.881 48.1261 43.7647 48.4814 43.8709 48.8056L44.6228 50.985C44.6545 51.0821 44.6667 51.1769 44.6627 51.2673C44.636 51.8526 43.9024 52.2531 43.3644 51.8649L41.4973 50.5176C41.3584 50.4174 41.1949 50.3673 41.0314 50.3673C40.8679 50.3673 40.7044 50.4174 40.5655 50.5176L38.6984 51.8649C38.1603 52.2531 37.4232 51.8526 37.3999 51.2673C37.3963 51.1769 37.4089 51.082 37.4406 50.985L38.1918 48.8056C38.298 48.4814 38.1817 48.1261 37.9039 47.9257L36.0367 46.5788C35.4155 46.1307 35.7348 45.0677 36.5027 45.0677H38.8105C39.154 45.0677 39.4583 44.9355 39.5644 44.6113L40.2775 42.4178C40.3962 42.0553 40.7138 41.874 41.0314 41.874C41.349 41.874 41.6666 42.0553 41.7852 42.4178L42.4984 44.6113C42.6045 44.9355 42.9088 45.0677 43.2522 45.0677H45.5601C46.3279 45.0677 46.6472 46.1307 46.0259 46.5788ZM56.7344 50.9623L54.8672 52.3093C54.5894 52.5097 54.4731 52.8649 54.5793 53.1892L55.3312 55.3686C55.3629 55.4656 55.3751 55.5604 55.3711 55.6509C55.3445 56.2362 54.6108 56.6366 54.0728 56.2485L52.2057 54.9012C52.0668 54.801 51.9033 54.7509 51.7398 54.7509C51.5763 54.7509 51.4128 54.801 51.2739 54.9012L49.4068 56.2485C48.8687 56.6366 48.1316 56.2362 48.1083 55.6509C48.1047 55.5604 48.1173 55.4656 48.149 55.3686L48.9002 53.1892C49.0064 52.8649 48.8901 52.5097 48.6123 52.3093L46.7452 50.9623C46.1239 50.5142 46.4432 49.4513 47.2111 49.4513H49.5189C49.8624 49.4513 50.1667 49.3191 50.2728 48.9948L50.9859 46.8013C51.1046 46.4388 51.4222 46.2575 51.7398 46.2575C52.0574 46.2575 52.375 46.4388 52.4936 46.8013L53.2068 48.9948C53.3129 49.3191 53.6172 49.4513 53.9606 49.4513H56.2685C57.0363 49.4513 57.3556 50.5142 56.7344 50.9623ZM35.3175 50.9623L33.4504 52.3093C33.1726 52.5097 33.0563 52.8649 33.1624 53.1892L33.9143 55.3686C33.9461 55.4656 33.9583 55.5604 33.9542 55.6509C33.9276 56.2362 33.194 56.6366 32.656 56.2485L30.7888 54.9012C30.6499 54.801 30.4864 54.7509 30.3229 54.7509C30.1594 54.7509 29.9959 54.801 29.857 54.9012L27.9899 56.2485C27.4519 56.6366 26.7147 56.2362 26.6914 55.6509C26.6879 55.5604 26.7004 55.4656 26.7321 55.3686L27.4834 53.1892C27.5895 52.8649 27.4732 52.5097 27.1954 52.3093L25.3283 50.9623C24.7071 50.5142 25.0263 49.4513 25.7942 49.4513H28.1021C28.4455 49.4513 28.7498 49.3191 28.8559 48.9948L29.569 46.8013C29.6877 46.4388 30.0053 46.2575 30.3229 46.2575C30.6405 46.2575 30.9581 46.4388 31.0767 46.8013L31.7899 48.9948C31.896 49.3191 32.2003 49.4513 32.5437 49.4513H34.8516C35.6195 49.4513 35.9387 50.5142 35.3175 50.9623Z" fill="#1D3566"/>
<defs>
<filter id="filter0_d_736_2531" x="0" y="0.402344" width="82" height="82" filterUnits="userSpaceOnUse" color-interpolation-filters="sRGB">
<feFlood flood-opacity="0" result="BackgroundImageFix"/>
<feColorMatrix in="SourceAlpha" type="matrix" values="0 0 0 0 0 0 0 0 0 0 0 0 0 0 0 0 0 0 127 0" result="hardAlpha"/>
<feMorphology radius="2" operator="dilate" in="SourceAlpha" result="effect1_dropShadow_736_2531"/>
<feOffset dy="1"/>
<feGaussianBlur stdDeviation="2"/>
<feColorMatrix type="matrix" values="0 0 0 0 0.658333 0 0 0 0 0.658333 0 0 0 0 0.658333 0 0 0 0.25 0"/>
<feBlend mode="normal" in2="BackgroundImageFix" result="effect1_dropShadow_736_2531"/>
<feBlend mode="normal" in="SourceGraphic" in2="effect1_dropShadow_736_2531" result="shape"/>
</filter>
</defs>
</svg>
