<svg width="70" height="71" viewBox="0 0 70 71" fill="none" xmlns="http://www.w3.org/2000/svg">
<rect y="0.402344" width="70" height="70" rx="6" fill="#1D3566"/>
<path d="M35.2218 32.1765C39.1347 32.1765 42.3185 28.9926 42.3185 25.0797C42.3185 21.1668 39.1347 17.9829 35.2218 17.9829C31.3089 17.9829 28.125 21.1668 28.125 25.0797C28.125 28.9926 31.3089 32.1765 35.2218 32.1765ZM35.2218 19.2732C38.4237 19.2732 41.0282 21.8777 41.0282 25.0797C41.0282 28.2816 38.4237 30.8861 35.2218 30.8861C32.0198 30.8861 29.4153 28.2816 29.4153 25.0797C29.4153 21.8777 32.0198 19.2732 35.2218 19.2732Z" fill="white"/>
<path d="M33.2861 29.2178L39.5487 22.9552L38.6365 22.043L33.2861 27.3933L31.8068 25.9139L30.8945 26.8262L33.2861 29.2178Z" fill="white"/>
<path d="M52.4329 47.6604H48.5619L45.9813 41.2087H34.3684H33.2865H24.4626L21.8819 47.6604H17.3226L15 55.4023H27.8174H29.6368H37.1574H43.9168H55.5297L52.4329 47.6604ZM45.1077 42.4991L47.1723 47.6604H40.8194H39.7381H36.949L34.8845 42.4991H45.1077ZM25.3361 42.4991H33.2865H33.4948L35.5594 47.6604H30.9142H30.7058H27.3148H23.271L25.3361 42.4991ZM16.7342 54.112L18.2826 48.9507H21.3658H26.3542L27.9026 54.112H16.7342ZM28.8574 52.8029L27.7019 48.9507H30.3981L28.8574 52.8029ZM37.1574 54.112H29.7232L31.7877 48.9507H37.4652H39.7381H39.9465L42.011 54.112H37.1574ZM43.4006 54.112L41.3361 48.9507H49.0781H51.56L53.6245 54.112H43.4006Z" fill="white"/>
<path d="M31.3662 33.9507L30.5836 40.2088L35.2223 38.663L39.8604 40.2088L39.0778 33.9507C42.5004 32.4578 44.8998 29.0456 44.8998 25.0798C44.8998 19.7436 40.5585 15.4023 35.2223 15.4023C29.8862 15.4023 25.5449 19.7436 25.5449 25.0798C25.5449 29.0456 27.9443 32.4578 31.3662 33.9507ZM38.3262 38.3378L35.8675 37.5185V36.0475H34.5772V37.5185L32.1185 38.3378L32.6114 34.3894C33.4436 34.623 34.3165 34.7572 35.2223 34.7572C36.1281 34.7572 37.0011 34.623 37.8327 34.3894L38.3262 38.3378ZM35.2223 16.6927C39.8469 16.6927 43.6094 20.4552 43.6094 25.0798C43.6094 29.7043 39.8469 33.4669 35.2223 33.4669C30.5978 33.4669 26.8352 29.7043 26.8352 25.0798C26.8352 20.4552 30.5978 16.6927 35.2223 16.6927Z" fill="white"/>
<path d="M49.416 26.3701H50.7063V27.6604H49.416V26.3701Z" fill="white"/>
<path d="M49.416 28.9507H50.7063V30.241H49.416V28.9507Z" fill="white"/>
<path d="M50.7051 27.6604H51.9954V28.9507H50.7051V27.6604Z" fill="white"/>
<path d="M48.125 27.6604H49.4153V28.9507H48.125V27.6604Z" fill="white"/>
<path d="M52.6406 33.4668H53.9309V34.7571H52.6406V33.4668Z" fill="white"/>
<path d="M52.6406 36.0476H53.9309V37.3379H52.6406V36.0476Z" fill="white"/>
<path d="M53.9316 34.7571H55.222V36.0474H53.9316V34.7571Z" fill="white"/>
<path d="M51.3516 34.7571H52.6419V36.0474H51.3516V34.7571Z" fill="white"/>
<path d="M47.4805 36.6926H48.7708V37.9829H47.4805V36.6926Z" fill="white"/>
<path d="M47.4805 39.2732H48.7708V40.5635H47.4805V39.2732Z" fill="white"/>
<path d="M48.7695 37.9829H50.0599V39.2732H48.7695V37.9829Z" fill="white"/>
<path d="M46.1895 37.9829H47.4798V39.2732H46.1895V37.9829Z" fill="white"/>
<path d="M51.3516 20.5637H52.6419V21.854H51.3516V20.5637Z" fill="white"/>
<path d="M51.3516 23.1443H52.6419V24.4346H51.3516V23.1443Z" fill="white"/>
<path d="M52.6406 21.854H53.9309V23.1443H52.6406V21.854Z" fill="white"/>
<path d="M50.0605 21.854H51.3509V23.1443H50.0605V21.854Z" fill="white"/>
<path d="M46.1895 16.6926H47.4798V17.9829H46.1895V16.6926Z" fill="white"/>
<path d="M46.1895 19.2732H47.4798V20.5635H46.1895V19.2732Z" fill="white"/>
<path d="M47.4805 17.9829H48.7708V19.2732H47.4805V17.9829Z" fill="white"/>
<path d="M44.8984 17.9829H46.1888V19.2732H44.8984V17.9829Z" fill="white"/>
<path d="M19.7383 26.3701H21.0286V27.6604H19.7383V26.3701Z" fill="white"/>
<path d="M19.7383 28.9507H21.0286V30.241H19.7383V28.9507Z" fill="white"/>
<path d="M18.4473 27.6604H19.7376V28.9507H18.4473V27.6604Z" fill="white"/>
<path d="M21.0293 27.6604H22.3196V28.9507H21.0293V27.6604Z" fill="white"/>
<path d="M16.5117 33.4668H17.802V34.7571H16.5117V33.4668Z" fill="white"/>
<path d="M16.5117 36.0476H17.802V37.3379H16.5117V36.0476Z" fill="white"/>
<path d="M15.2227 34.7571H16.513V36.0474H15.2227V34.7571Z" fill="white"/>
<path d="M17.8027 34.7571H19.0931V36.0474H17.8027V34.7571Z" fill="white"/>
<path d="M21.6738 36.6926H22.9642V37.9829H21.6738V36.6926Z" fill="white"/>
<path d="M21.6738 39.2732H22.9642V40.5635H21.6738V39.2732Z" fill="white"/>
<path d="M20.3828 37.9829H21.6731V39.2732H20.3828V37.9829Z" fill="white"/>
<path d="M22.9648 37.9829H24.2552V39.2732H22.9648V37.9829Z" fill="white"/>
<path d="M17.8027 20.5637H19.0931V21.854H17.8027V20.5637Z" fill="white"/>
<path d="M17.8027 23.1443H19.0931V24.4346H17.8027V23.1443Z" fill="white"/>
<path d="M16.5117 21.854H17.802V23.1443H16.5117V21.854Z" fill="white"/>
<path d="M19.0938 21.854H20.3841V23.1443H19.0938V21.854Z" fill="white"/>
<path d="M22.9648 16.6926H24.2552V17.9829H22.9648V16.6926Z" fill="white"/>
<path d="M22.9648 19.2732H24.2552V20.5635H22.9648V19.2732Z" fill="white"/>
<path d="M21.6738 17.9829H22.9642V19.2732H21.6738V17.9829Z" fill="white"/>
<path d="M24.2539 17.9829H25.5442V19.2732H24.2539V17.9829Z" fill="white"/>
<path d="M42.3184 43.7896H43.6087V45.0799H42.3184V43.7896Z" fill="white"/>
<path d="M37.1582 43.7896H38.4485V45.0799H37.1582V43.7896Z" fill="white"/>
<path d="M39.7383 43.7896H41.0286V45.0799H39.7383V43.7896Z" fill="white"/>
<path d="M43.6094 50.241H44.8997V51.5313H43.6094V50.241Z" fill="white"/>
<path d="M48.7695 50.241H50.0599V51.5313H48.7695V50.241Z" fill="white"/>
<path d="M46.1895 50.241H47.4798V51.5313H46.1895V50.241Z" fill="white"/>
</svg>
