<svg width="41" height="41" viewBox="0 0 41 41" fill="none" xmlns="http://www.w3.org/2000/svg">
<path d="M26.9961 20.542C26.9961 22.1996 26.3376 23.7893 25.1655 24.9614C23.9934 26.1335 22.4037 26.792 20.7461 26.792C19.0885 26.792 17.4988 26.1335 16.3267 24.9614C15.1546 23.7893 14.4961 22.1996 14.4961 20.542C14.4961 20.1857 14.5336 19.8378 14.5982 19.5003H12.4128V27.8274C12.4128 28.4066 12.8815 28.8753 13.4607 28.8753H28.0336C28.3112 28.8748 28.5772 28.7641 28.7732 28.5677C28.9693 28.3712 29.0794 28.105 29.0794 27.8274V19.5003H26.894C26.9586 19.8378 26.9961 20.1857 26.9961 20.542V20.542ZM20.7461 24.7087C21.2934 24.7085 21.8353 24.6006 22.3409 24.391C22.8465 24.1814 23.3059 23.8743 23.6928 23.4872C24.0797 23.1001 24.3866 22.6406 24.5959 22.1349C24.8052 21.6292 24.9129 21.0872 24.9128 20.5399C24.9126 19.9926 24.8047 19.4507 24.5951 18.9451C24.3855 18.4395 24.0784 17.9801 23.6913 17.5932C23.3042 17.2063 22.8447 16.8994 22.339 16.6901C21.8333 16.4808 21.2913 16.3731 20.744 16.3732C19.6387 16.3735 18.5787 16.8129 17.7973 17.5947C17.0159 18.3765 16.5771 19.4366 16.5773 20.542C16.5776 21.6473 17.017 22.7073 17.7988 23.4887C18.5806 24.2701 19.6407 24.7089 20.7461 24.7087V24.7087ZM25.7461 16.167H28.244C28.41 16.167 28.5691 16.1012 28.6867 15.9841C28.8042 15.8669 28.8705 15.7079 28.8711 15.542V13.0441C28.8711 12.8778 28.805 12.7183 28.6874 12.6007C28.5698 12.4831 28.4103 12.417 28.244 12.417H25.7461C25.5798 12.417 25.4203 12.4831 25.3027 12.6007C25.1851 12.7183 25.119 12.8778 25.119 13.0441V15.542C25.1211 15.8857 25.4023 16.167 25.7461 16.167V16.167ZM20.7461 0.541992C15.4418 0.541992 10.3547 2.64913 6.60396 6.39986C2.85323 10.1506 0.746094 15.2377 0.746094 20.542C0.746094 25.8463 2.85323 30.9334 6.60396 34.6841C10.3547 38.4349 15.4418 40.542 20.7461 40.542C23.3725 40.542 25.9733 40.0247 28.3998 39.0196C30.8263 38.0145 33.0311 36.5413 34.8882 34.6841C36.7454 32.827 38.2186 30.6222 39.2237 28.1957C40.2288 25.7691 40.7461 23.1684 40.7461 20.542C40.7461 17.9156 40.2288 15.3148 39.2237 12.8883C38.2186 10.4618 36.7454 8.25703 34.8882 6.39986C33.0311 4.54268 30.8263 3.0695 28.3998 2.0644C25.9733 1.05931 23.3725 0.541992 20.7461 0.541992V0.541992ZM31.1628 28.6441C31.1628 29.917 30.1211 30.9587 28.8482 30.9587H12.644C11.3711 30.9587 10.3294 29.917 10.3294 28.6441V12.4399C10.3294 11.167 11.3711 10.1253 12.644 10.1253H28.8482C30.1211 10.1253 31.1628 11.167 31.1628 12.4399V28.6441V28.6441Z" fill="#E6E6E6"/>
</svg>
