<svg width="40" height="41" viewBox="0 0 40 41" fill="none" xmlns="http://www.w3.org/2000/svg">
<path d="M20 0.541992C8.95417 0.541992 0 9.49616 0 20.542C0 31.5878 8.95417 40.542 20 40.542C31.0458 40.542 40 31.5878 40 20.542C40 9.49616 31.0458 0.541992 20 0.541992ZM15.1042 28.8316H11.0542V15.7982H15.1042V28.8316ZM13.0542 14.1982C11.775 14.1982 10.9479 13.292 10.9479 12.1712C10.9479 11.0274 11.8 10.1482 13.1062 10.1482C14.4125 10.1482 15.2125 11.0274 15.2375 12.1712C15.2375 13.292 14.4125 14.1982 13.0542 14.1982ZM29.8958 28.8316H25.8458V21.6087C25.8458 19.9274 25.2583 18.7857 23.7938 18.7857C22.675 18.7857 22.0104 19.5587 21.7167 20.3024C21.6083 20.567 21.5812 20.942 21.5812 21.3149V28.8295H17.5292V19.9545C17.5292 18.3274 17.4771 16.967 17.4229 15.7962H20.9417L21.1271 17.6066H21.2083C21.7417 16.7566 23.0479 15.5024 25.2333 15.5024C27.8979 15.5024 29.8958 17.2878 29.8958 21.1253V28.8316V28.8316Z" fill="#E6E6E6"/>
</svg>
