<svg width="28" height="28" viewBox="0 0 28 28" fill="none" xmlns="http://www.w3.org/2000/svg">
<path d="M24 15.1487L21.113 12.2616C21.0459 12.194 20.966 12.1403 20.8781 12.1037C20.7901 12.067 20.6958 12.0481 20.6005 12.0481C20.5052 12.0481 20.4109 12.067 20.3229 12.1037C20.235 12.1403 20.1552 12.194 20.0881 12.2616L17.201 15.1487L18.2259 16.1736L19.8787 14.5135V18.5482C19.8787 18.7396 19.8027 18.9232 19.6673 19.0585C19.532 19.1939 19.3484 19.2699 19.157 19.2699H6.16528C5.97386 19.2699 5.79028 19.1939 5.65492 19.0585C5.51956 18.9232 5.44352 18.7396 5.44352 18.5482V9.25189L11.7012 12.3771C11.9987 12.5236 12.3259 12.5998 12.6575 12.5998C12.9891 12.5998 13.3163 12.5236 13.6139 12.3771L19.8787 9.34572V11.3306H21.3223V9.16528C21.3223 8.59101 21.0941 8.04027 20.6881 7.6342C20.282 7.22813 19.7313 7 19.157 7H6.16528C5.59101 7 5.04027 7.22813 4.6342 7.6342C4.22813 8.04027 4 8.59101 4 9.16528V18.5482C4 19.1224 4.22813 19.6732 4.6342 20.0793C5.04027 20.4853 5.59101 20.7135 6.16528 20.7135H19.157C19.7313 20.7135 20.282 20.4853 20.6881 20.0793C21.0941 19.6732 21.3223 19.1224 21.3223 18.5482V14.5135L22.9751 16.1736L24 15.1487ZM12.9859 11.0924C12.8871 11.1408 12.7784 11.166 12.6684 11.166C12.5583 11.166 12.4496 11.1408 12.3508 11.0924L7.06027 8.44352H18.4352L12.9859 11.0924Z" fill="#666666"/>
</svg>
