<svg width="70" height="70" viewBox="0 0 70 70" fill="none" xmlns="http://www.w3.org/2000/svg">
<rect width="70" height="70" rx="14.14" fill="#1476BF"/>
<g clip-path="url(#clip0_619_7011)">
<path d="M35.7039 15.9464C32.5425 15.9464 29.426 16.7081 26.633 18.1556L23.3672 14.8897C23.0784 14.6007 22.6622 14.4785 22.263 14.5655C21.8638 14.6524 21.5362 14.9364 21.3935 15.3193L19.7443 19.7442L15.3195 21.3932C14.9366 21.5359 14.6526 21.8636 14.5657 22.2628C14.4789 22.662 14.6009 23.078 14.8899 23.367L18.1558 26.6329C16.7082 29.4258 15.9466 32.5424 15.9466 35.7037C15.9466 46.598 24.8096 55.4611 35.7039 55.4611C46.5981 55.4611 55.4613 46.598 55.4613 35.7037C55.4613 24.8095 46.5981 15.9464 35.7039 15.9464ZM35.7039 42.2061C39.2894 42.2061 42.2064 39.2892 42.2064 35.7037C42.2064 32.1182 39.2894 29.2013 35.7039 29.2013C34.344 29.2013 33.0808 29.6216 32.036 30.3381L29.0175 27.3196C30.8527 25.8531 33.1775 24.9747 35.7039 24.9747C41.6198 24.9747 46.4329 29.7878 46.4329 35.7037C46.4329 41.6197 41.6198 46.4327 35.7039 46.4327C29.7879 46.4327 24.975 41.6197 24.975 35.7037C24.975 33.1773 25.8532 30.8525 27.3197 29.0173L30.3383 32.0358C29.6218 33.0807 29.2014 34.3438 29.2014 35.7037C29.2014 39.2891 32.1184 42.2061 35.7039 42.2061ZM36.5528 34.8548L33.7805 32.0825C34.3545 31.7764 35.0092 31.6022 35.7039 31.6022C37.9655 31.6022 39.8054 33.4421 39.8054 35.7036C39.8054 37.9652 37.9655 39.8051 35.7039 39.8051C33.4423 39.8051 31.6024 37.9652 31.6024 35.7036C31.6024 35.0089 31.7766 34.3544 32.0828 33.7802L34.8551 36.5525C35.0895 36.7869 35.3967 36.9041 35.7039 36.9041C36.0111 36.9041 36.3184 36.7869 36.5527 36.5525C37.0216 36.0838 37.0216 35.3236 36.5528 34.8548ZM22.9907 17.9086L27.0304 21.9484L26.5111 24.8131L22.0719 20.374L22.9907 17.9086ZM17.9089 22.9905L20.3743 22.0717L24.8135 26.5108L21.9486 27.0303L17.9089 22.9905ZM35.7039 53.0601C26.1336 53.0601 18.3475 45.2741 18.3475 35.7037C18.3475 33.1844 18.8983 30.698 19.9498 28.4269L20.6953 29.1724C20.9225 29.3996 21.2287 29.524 21.5442 29.524C21.6153 29.524 21.6869 29.5177 21.7583 29.5048L24.4038 29.0253C23.2422 30.9833 22.5741 33.2667 22.5741 35.7037C22.5741 42.9435 28.4641 48.8336 35.704 48.8336C42.9438 48.8336 48.8339 42.9435 48.8339 35.7037C48.8339 28.4639 42.9438 22.5738 35.704 22.5738C33.267 22.5738 30.9835 23.2419 29.0255 24.4035L29.5051 21.7581C29.5753 21.3707 29.4511 20.9734 29.1727 20.6951L28.4272 19.9496C30.6982 18.8981 33.1846 18.3473 35.704 18.3473C45.2744 18.3473 53.0605 26.1333 53.0605 35.7036C53.0604 45.2741 45.2742 53.0601 35.7039 53.0601Z" fill="white"/>
</g>
<defs>
<clipPath id="clip0_619_7011">
<rect width="40.9231" height="40.9231" fill="white" transform="translate(14.5384 14.5385)"/>
</clipPath>
</defs>
</svg>
