<svg width="150" height="150" viewBox="0 0 150 150" fill="none" xmlns="http://www.w3.org/2000/svg">
<path d="M46.2783 132.581C33.3491 126.117 16.6487 94.3322 9.91472 79.248C1.08693 61.4704 6.6824 54.1974 7.49048 48.5409C8.13694 44.0156 15.8406 35.8809 19.6117 32.3793C23.9214 27.5308 38.1975 16.541 60.8238 11.3693C89.1066 4.90464 119.006 22.6824 134.359 36.4198C146.642 47.4097 146.48 63.0864 144.864 69.5511C141.901 77.9012 132.097 99.9349 116.581 121.268C97.1874 147.935 62.44 140.662 46.2783 132.581Z" fill="#1476BF" fill-opacity="0.5" stroke="#F6F7FA"/>
<circle cx="75.3026" cy="72.2222" r="52.5252" fill="white"/>
<path d="M39.4421 83.5355L60.4522 101.313C62.7443 103.253 65.1778 100.505 66.108 98.8889L73.3807 89.1919C72.5727 89.4613 74.1888 86.2828 87.1181 71.4141C103.28 52.8283 104.896 55.2525 112.977 50.404C114.916 43.9394 110.014 42.3232 107.32 42.3232C106.243 42.8619 103.28 44.4242 100.047 46.3636C91.6434 51.5353 78.7679 65.2188 73.3807 71.4141L60.4522 87.5757C59.1051 86.229 54.4718 81.9193 46.7148 75.4547C38.3108 74.1618 38.3646 80.3032 39.4421 83.5355Z" fill="#1D3566"/>
<path d="M60.4522 101.313L60.1292 101.695L60.1292 101.695L60.4522 101.313ZM39.4421 83.5355L38.9677 83.6936L39.0121 83.8266L39.1191 83.9172L39.4421 83.5355ZM46.7148 75.4547L47.0349 75.0706L46.9282 74.9816L46.7908 74.9605L46.7148 75.4547ZM60.4522 87.5757L60.0986 87.9293L60.4937 88.3243L60.8426 87.8881L60.4522 87.5757ZM73.3807 71.4141L73.0034 71.086L72.9967 71.0938L72.9903 71.1018L73.3807 71.4141ZM100.047 46.3636L99.7901 45.9349L99.7853 45.9378L100.047 46.3636ZM107.32 42.3232V41.8232H107.202L107.097 41.876L107.32 42.3232ZM112.977 50.404L113.234 50.8328L113.4 50.7332L113.456 50.5477L112.977 50.404ZM87.1181 71.4141L87.4954 71.7422L87.1181 71.4141ZM73.3807 89.1919L73.7807 89.4919L74.7411 88.2114L73.2226 88.7176L73.3807 89.1919ZM66.108 98.8889L65.708 98.5889L65.6898 98.6132L65.6747 98.6395L66.108 98.8889ZM60.7751 100.932L39.765 83.1538L39.1191 83.9172L60.1292 101.695L60.7751 100.932ZM39.9164 83.3774C39.3947 81.8123 39.1553 79.6269 39.9687 78.0244C40.3655 77.2428 41.0195 76.583 42.0604 76.1842C43.1133 75.7808 44.5915 75.6339 46.6388 75.9489L46.7908 74.9605C44.6361 74.629 42.9694 74.765 41.7026 75.2504C40.4235 75.7405 39.5826 76.5757 39.077 77.5718C38.0857 79.5249 38.412 82.0264 38.9677 83.6936L39.9164 83.3774ZM46.3947 75.8388C54.146 82.2987 58.7666 86.5976 60.0986 87.9293L60.8057 87.2222C59.4437 85.8604 54.7976 81.54 47.0349 75.0706L46.3947 75.8388ZM60.8426 87.8881L73.7712 71.7265L72.9903 71.1018L60.0617 87.2634L60.8426 87.8881ZM73.758 71.7422C76.444 68.6534 81.0005 63.6936 85.9326 58.8622C90.8728 54.023 96.1588 49.3437 100.309 46.7895L99.7853 45.9378C95.532 48.5552 90.1782 53.3036 85.2329 58.1479C80.2795 63 75.7047 67.9796 73.0034 71.086L73.758 71.7422ZM100.305 46.7924C103.525 44.86 106.477 43.3038 107.544 42.7704L107.097 41.876C106.008 42.4201 103.034 43.9885 99.7901 45.9349L100.305 46.7924ZM107.32 42.8232C108.595 42.8232 110.353 43.2105 111.548 44.3077C112.696 45.3619 113.426 47.1678 112.498 50.2604L113.456 50.5477C114.467 47.1756 113.716 44.9411 112.224 43.5711C110.779 42.244 108.739 41.8232 107.32 41.8232V42.8232ZM112.719 49.9753C110.722 51.1738 109.126 51.9218 107.582 52.6686C106.037 53.416 104.546 54.1609 102.798 55.3434C99.3073 57.7045 94.8281 61.7856 86.7408 71.086L87.4954 71.7422C95.5697 62.4568 99.9794 58.4571 103.358 56.1717C105.044 55.031 106.482 54.3113 108.018 53.5688C109.554 52.8257 111.191 52.0585 113.234 50.8328L112.719 49.9753ZM86.7408 71.086C80.2737 78.5232 76.6264 83.0476 74.6946 85.6843C73.7332 86.9965 73.1796 87.8639 72.9186 88.3997C72.8524 88.5357 72.7994 88.6614 72.7635 88.7753C72.7307 88.8797 72.6981 89.0165 72.7106 89.1588C72.7247 89.3203 72.8109 89.5558 73.0693 89.6623C73.269 89.7446 73.4553 89.6941 73.5388 89.6662L73.2226 88.7176C73.2241 88.7171 73.2437 88.7104 73.2771 88.7081C73.3101 88.7057 73.3744 88.7064 73.4503 88.7377C73.6499 88.82 73.7006 89.0003 73.7068 89.0716C73.7114 89.1238 73.6986 89.1354 73.7174 89.0756C73.7332 89.0253 73.7639 88.9479 73.8176 88.8377C74.0364 88.3886 74.5434 87.5826 75.5012 86.2753C77.4078 83.673 81.0332 79.1738 87.4954 71.7422L86.7408 71.086ZM72.9807 88.8919L65.708 98.5889L66.508 99.1889L73.7807 89.4919L72.9807 88.8919ZM65.6747 98.6395C65.232 99.4086 64.4404 100.426 63.5215 101.013C63.0668 101.304 62.6083 101.472 62.1632 101.48C61.7298 101.488 61.2638 101.345 60.7751 100.932L60.1292 101.695C60.7866 102.251 61.4843 102.492 62.181 102.48C62.8659 102.468 63.5037 102.212 64.0602 101.856C65.1636 101.15 66.0538 99.9854 66.5414 99.1383L65.6747 98.6395Z" fill="#235A9F"/>
</svg>
