<svg width="102" height="102" viewBox="0 0 102 102" fill="none" xmlns="http://www.w3.org/2000/svg">
<circle cx="51" cy="51" r="50" stroke="#1D3566" stroke-width="1.33444" stroke-dasharray="4 4"/>
<circle cx="50.9999" cy="51.0001" r="44.1177" fill="#E5E5E5"/>
<path d="M35.3944 39.6695H67.2787V43.188H35.3944V39.6695ZM38.3764 36.7493C38.3764 31.5313 41.5153 27.0434 46.0185 25.0328L47.0809 36.7972H38.3764V36.7493ZM53.9865 22.4238L52.6947 36.7852H50.0025L48.7107 22.4238C48.6986 22.4238 53.9865 22.4238 53.9865 22.4238ZM60.5059 27.6657C62.9325 30.0713 64.2967 33.3385 64.2967 36.7493V36.7852H55.5922L56.6546 25.0208C58.0792 25.6671 59.3831 26.5527 60.5059 27.6657ZM33.9456 46.0603H68.7275C69.5243 46.0603 70.1762 45.4141 70.1762 44.6242V38.2333C70.1762 37.4435 69.5243 36.7972 68.7275 36.7972H67.1942V36.7613C67.1942 32.5965 65.5282 28.5873 62.5462 25.6432C60.9284 24.0395 59.0088 22.8307 56.9202 22.0408L57.0047 21.1193C57.041 20.7124 56.9082 20.3175 56.6305 20.0183C56.3528 19.7191 55.9665 19.5515 55.556 19.5515H47.105C46.6945 19.5515 46.3082 19.7191 46.0305 20.0183C45.7529 20.3175 45.6201 20.7124 45.6563 21.1193L45.7408 22.0408C39.7406 24.2788 35.4668 30.0234 35.4668 36.7613V36.7972H33.9335C33.1367 36.7972 32.4848 37.4435 32.4848 38.2333V44.6242C32.4969 45.4141 33.1488 46.0603 33.9456 46.0603Z" fill="#1D3566"/>
<path d="M69.7053 70.3192V62.8034C72.6994 64.1318 74.9087 66.9442 75.4037 70.3192H69.7053ZM32.9798 62.7914V70.3072H27.2934C27.7884 66.9442 29.9857 64.1198 32.9798 62.7914ZM51.3788 62.181C51.9945 62.181 52.5981 62.1451 53.2018 62.0733L51.3425 64.3472L49.4713 62.0733C50.099 62.1332 50.7389 62.181 51.3788 62.181ZM65.83 59.1053C65.0332 59.1053 64.3812 59.7516 64.3812 60.5414C64.3812 61.3313 65.0332 61.9776 65.83 61.9776C66.1559 61.9776 66.4819 61.9895 66.7958 62.0255V70.3072H52.7913V67.1238L58.043 60.721C59.7332 59.943 61.2906 58.8779 62.6307 57.5495C64.5985 55.5987 65.999 53.1932 66.7234 50.5722C66.9407 49.8063 66.4819 49.0164 65.7092 48.801C64.9366 48.5855 64.1398 49.0403 63.9225 49.8063C63.3309 51.9485 62.184 53.9112 60.5783 55.5149C58.1396 57.9324 54.8316 59.2848 51.3788 59.2848C45.3906 59.2848 40.3442 55.2756 38.8351 49.8063C38.6298 49.0403 37.821 48.5855 37.0604 48.801C36.2877 49.0044 35.8289 49.8063 36.0463 50.5602C37.2777 55.0362 40.4528 58.7104 44.6059 60.6491C44.6059 60.6491 44.6059 60.6611 44.618 60.6611L49.8938 67.0998V70.2833H35.8893V62.0015C36.2032 61.9656 36.5292 61.9536 36.8551 61.9536C37.6519 61.9536 38.3039 61.3074 38.3039 60.5175C38.3039 59.7276 37.6519 59.0814 36.8551 59.0814C29.9253 59.0814 24.2994 64.7302 24.2994 71.7194C24.2994 72.5093 24.9513 73.1556 25.7481 73.1556H76.9611C77.7579 73.1556 78.4099 72.5093 78.4099 71.7194C78.3978 64.7661 72.7598 59.1053 65.83 59.1053Z" fill="#1D3566"/>
</svg>
