<svg width="28" height="28" viewBox="0 0 28 28" fill="none" xmlns="http://www.w3.org/2000/svg">
<path d="M8.80629 4.4681L9.97329 4.1171C10.6126 3.92433 11.3002 3.97073 11.9078 4.24766C12.5154 4.52459 13.0014 5.01313 13.2753 5.6221L14.1773 7.6281C14.4128 8.15191 14.4783 8.73628 14.3648 9.29924C14.2513 9.8622 13.9644 10.3755 13.5443 10.7671L12.0503 12.1601C12.0066 12.2008 11.979 12.2558 11.9723 12.3151C11.9283 12.7121 12.1973 13.4851 12.8173 14.5601C13.2683 15.3411 13.6773 15.8901 14.0243 16.1971C14.2663 16.4121 14.3993 16.4581 14.4563 16.4421L16.4663 15.8271C17.0152 15.6592 17.6029 15.6673 18.147 15.8502C18.6911 16.0331 19.1643 16.3817 19.5003 16.8471L20.7813 18.6231C21.1708 19.1632 21.3512 19.8263 21.2888 20.4893C21.2265 21.1523 20.9257 21.7701 20.4423 22.2281L19.5563 23.0681C19.0861 23.5134 18.5085 23.8293 17.8799 23.9851C17.2513 24.1409 16.5931 24.1313 15.9693 23.9571C13.2153 23.1881 10.7463 20.8641 8.53429 17.0331C6.31929 13.1971 5.54229 9.8931 6.25829 7.1201C6.41947 6.49644 6.73858 5.92481 7.18487 5.4603C7.63115 4.9958 8.18957 4.65409 8.80629 4.4681ZM9.23929 5.9051C8.86937 6.01656 8.53437 6.22139 8.26657 6.49987C7.99878 6.77835 7.8072 7.1211 7.71029 7.4951C7.10829 9.8271 7.79729 12.7561 9.83329 16.2831C11.8663 19.8051 14.0553 21.8651 16.3733 22.5131C16.7474 22.6173 17.1422 22.6229 17.5191 22.5293C17.896 22.4357 18.2423 22.2462 18.5243 21.9791L19.4113 21.1391C19.6311 20.9309 19.7679 20.65 19.7962 20.3485C19.8245 20.0471 19.7425 19.7456 19.5653 19.5001L18.2853 17.7251C18.1326 17.5133 17.9173 17.3547 17.6698 17.2715C17.4223 17.1882 17.155 17.1846 16.9053 17.2611L14.8903 17.8781C13.7203 18.2261 12.6583 17.2851 11.5183 15.3101C10.7503 13.9801 10.3923 12.9501 10.4813 12.1491C10.5283 11.7331 10.7213 11.3491 11.0273 11.0631L12.5213 9.6701C12.7123 9.49212 12.8428 9.25879 12.8945 9.00285C12.9461 8.74692 12.9163 8.48124 12.8093 8.2431L11.9073 6.2371C11.7828 5.96051 11.562 5.73862 11.286 5.61277C11.0101 5.48693 10.6977 5.46572 10.4073 5.5531L9.23929 5.9051Z" fill="#666666"/>
</svg>
