<svg width="41" height="41" viewBox="0 0 41 41" fill="none" xmlns="http://www.w3.org/2000/svg">
<path d="M20.7461 0.541992C9.70026 0.541992 0.746094 9.49616 0.746094 20.542C0.746094 31.5878 9.70026 40.542 20.7461 40.542C31.7919 40.542 40.7461 31.5878 40.7461 20.542C40.7461 9.49616 31.7919 0.541992 20.7461 0.541992ZM22.1148 25.2816C20.8315 25.1837 20.294 24.5482 19.2898 23.9399C18.7378 26.8378 18.0628 29.617 16.0628 31.0691C15.444 26.6857 16.9669 23.3982 17.6753 19.9045C16.469 17.8732 17.819 13.7878 20.3648 14.792C23.4961 16.0337 17.6523 22.3441 21.5753 23.1337C25.6711 23.9545 27.344 16.0253 24.8044 13.4503C21.1336 9.72741 14.1232 13.3649 14.9857 18.6941C15.194 19.9962 16.5419 20.392 15.5232 22.1899C13.1753 21.6691 12.4732 19.817 12.5648 17.3482C12.7086 13.3066 16.1961 10.4753 19.6919 10.0857C24.1148 9.59407 28.2648 11.7087 28.8398 15.8712C29.4836 20.567 26.8419 25.6482 22.1148 25.2816Z" fill="#E6E6E6"/>
</svg>
