<svg width="32" height="33" viewBox="0 0 32 33" fill="none" xmlns="http://www.w3.org/2000/svg">
<rect y="32.7012" width="32" height="32" rx="6" transform="rotate(-90 0 32.7012)" fill="#1476BF"/>
<path d="M12.25 19.3482H21.7C22.2775 19.3482 22.75 19.8247 22.75 20.4071C22.75 20.9894 22.2775 21.4659 21.7 21.4659H11.2C10.6225 21.4659 10.15 20.9894 10.15 20.4071V9.81882H8.05C7.4725 9.81882 7 9.34235 7 8.76C7 8.17764 7.4725 7.70117 8.05 7.70117H11.2C11.7775 7.70117 12.25 8.17764 12.25 8.76V10.8776H25.9L21.7 18.2894H12.25V19.3482ZM11.725 22.5247C12.5965 22.5247 13.3 23.2341 13.3 24.1129C13.3 24.9918 12.5965 25.7012 11.725 25.7012C10.8535 25.7012 10.15 24.9918 10.15 24.1129C10.15 23.2341 10.8535 22.5247 11.725 22.5247ZM21.175 22.5247C22.0465 22.5247 22.75 23.2341 22.75 24.1129C22.75 24.9918 22.0465 25.7012 21.175 25.7012C20.3035 25.7012 19.6 24.9918 19.6 24.1129C19.6 23.2341 20.3035 22.5247 21.175 22.5247Z" fill="white"/>
</svg>
