<svg width="32" height="33" viewBox="0 0 32 33" fill="none" xmlns="http://www.w3.org/2000/svg">
<rect y="32.7012" width="32" height="32" rx="6" transform="rotate(-90 0 32.7012)" fill="#1476BF"/>
<path d="M16.0007 19.9287C17.4735 19.9287 18.6675 18.7076 18.6675 17.2014C18.6675 15.6952 17.4735 14.4741 16.0007 14.4741C14.5279 14.4741 13.334 15.6952 13.334 17.2014C13.334 18.7076 14.5279 19.9287 16.0007 19.9287Z" fill="white"/>
<path d="M25.9603 16.9694C25.1762 14.895 23.8149 13.1011 22.0447 11.8094C20.2745 10.5177 18.1731 9.78474 16 9.70117C13.8269 9.78474 11.7255 10.5177 9.9553 11.8094C8.18512 13.1011 6.82385 14.895 6.03972 16.9694C5.98676 17.1192 5.98676 17.2832 6.03972 17.433C6.82385 19.5073 8.18512 21.3012 9.9553 22.5929C11.7255 23.8847 13.8269 24.6176 16 24.7012C18.1731 24.6176 20.2745 23.8847 22.0447 22.5929C23.8149 21.3012 25.1762 19.5073 25.9603 17.433C26.0132 17.2832 26.0132 17.1192 25.9603 16.9694ZM16 21.633C15.1429 21.633 14.3051 21.3731 13.5925 20.8861C12.8798 20.3991 12.3244 19.707 11.9964 18.8972C11.6684 18.0873 11.5826 17.1963 11.7498 16.3366C11.917 15.4769 12.3297 14.6872 12.9358 14.0674C13.5418 13.4476 14.314 13.0255 15.1546 12.8545C15.9952 12.6835 16.8665 12.7713 17.6583 13.1067C18.4502 13.4421 19.127 14.0102 19.6031 14.739C20.0793 15.4678 20.3335 16.3246 20.3335 17.2012C20.3317 18.376 19.8746 19.5022 19.0623 20.3329C18.25 21.1637 17.1488 21.6312 16 21.633Z" fill="white"/>
</svg>
