<svg width="32" height="33" viewBox="0 0 32 33" fill="none" xmlns="http://www.w3.org/2000/svg">
<rect y="32.7012" width="32" height="32" rx="6" transform="rotate(-90 0 32.7012)" fill="#1476BF"/>
<path d="M23.3714 10.3719C22.3143 9.28738 20.9429 8.70117 19.4857 8.70117C18.2 8.70117 16.9714 9.14083 16 9.99083C15.0286 9.17014 13.8 8.70117 12.5143 8.70117C11.0286 8.70117 9.65714 9.28738 8.62857 10.3719C7.57143 11.427 7 12.8632 7 14.3581C7 15.8529 7.57143 17.2891 8.62857 18.3443L15.6286 25.5253C15.6857 25.6426 15.8286 25.7012 15.9714 25.7012C16.1143 25.7012 16.2571 25.6426 16.3714 25.5253L23.3714 18.3736C24.4286 17.3184 25 15.8822 25 14.3874C25 12.8926 24.4 11.427 23.3714 10.3719Z" fill="white"/>
</svg>
