<svg width="70" height="71" viewBox="0 0 70 71" fill="none" xmlns="http://www.w3.org/2000/svg">
<rect y="0.402344" width="70" height="70" rx="6" fill="#474747"/>
<path d="M52.3327 23.4023C50.862 23.4023 49.666 24.5984 49.666 26.069C49.666 27.5396 50.862 28.7356 52.3327 28.7356C53.8033 28.7356 54.9993 27.5397 54.9993 26.069C54.9993 24.5984 53.8033 23.4023 52.3327 23.4023ZM52.3327 27.4023C51.5973 27.4023 50.9993 26.8044 50.9993 26.069C50.9993 25.3337 51.5973 24.7356 52.3327 24.7356C53.068 24.7356 53.666 25.3336 53.666 26.069C53.6659 26.8044 53.068 27.4023 52.3327 27.4023Z" fill="white"/>
<path d="M17.6666 45.4023C16.196 45.4023 15 46.5984 15 48.069C15 49.5396 16.196 50.7356 17.6666 50.7356C19.1373 50.7356 20.3333 49.5396 20.3333 48.069C20.3333 46.5984 19.1373 45.4023 17.6666 45.4023ZM17.6666 49.4023C16.9313 49.4023 16.3333 48.8044 16.3333 48.069C16.3333 47.3336 16.9312 46.7356 17.6666 46.7356C18.402 46.7356 19 47.3336 19 48.069C19 48.8044 18.402 49.4023 17.6666 49.4023Z" fill="white"/>
<path d="M51.0397 24.2449L45.2884 21.4683C44.9564 21.3076 44.5584 21.4476 44.3984 21.779C44.2384 22.1103 44.3777 22.509 44.7091 22.669L50.4604 25.4456C50.5538 25.4909 50.6524 25.5123 50.7497 25.5123C50.9977 25.5123 51.2357 25.3736 51.3503 25.1349C51.5103 24.8036 51.371 24.4049 51.0397 24.2449Z" fill="white"/>
<path d="M45.0006 50.0691C43.5299 50.0691 42.334 51.2651 42.334 52.7357C42.334 54.2064 43.5299 55.4025 45.0006 55.4025C46.4713 55.4025 47.6673 54.2064 47.6673 52.7358C47.6673 51.2652 46.4713 50.0691 45.0006 50.0691ZM45.0006 54.0691C44.2653 54.0691 43.6673 53.4711 43.6673 52.7357C43.6673 52.0003 44.2653 51.4024 45.0006 51.4024C45.7359 51.4024 46.334 52.0004 46.334 52.7358C46.334 53.4712 45.7359 54.0691 45.0006 54.0691Z" fill="white"/>
<path d="M43.7077 50.9118L37.9564 48.1351C37.6243 47.9744 37.2264 48.1138 37.0664 48.4458C36.9064 48.7772 37.0457 49.1758 37.3771 49.3358L43.1284 52.1125C43.2218 52.1578 43.3204 52.1791 43.4177 52.1791C43.6657 52.1791 43.9037 52.0404 44.0184 51.8018C44.1783 51.4704 44.039 51.0718 43.7077 50.9118Z" fill="white"/>
<path d="M35.0006 33.4023C33.5299 33.4023 32.334 34.5984 32.334 36.069C32.334 37.5397 33.53 38.7356 35.0006 38.7356C36.4713 38.7356 37.6673 37.5396 37.6673 36.069C37.6673 34.5984 36.4713 33.4023 35.0006 33.4023ZM35.0006 37.4023C34.2653 37.4023 33.6673 36.8044 33.6673 36.069C33.6673 35.3337 34.2652 34.7356 35.0006 34.7356C35.7359 34.7356 36.334 35.3336 36.334 36.069C36.334 36.8044 35.7359 37.4023 35.0006 37.4023Z" fill="white"/>
<path d="M33.8288 34.3197L29.4108 30.8763C29.1201 30.6517 28.7015 30.7017 28.4748 30.9924C28.2488 31.2831 28.3001 31.7017 28.5908 31.9284L33.0088 35.3717C33.1308 35.4664 33.2748 35.5124 33.4182 35.5124C33.6168 35.5124 33.8129 35.4245 33.9448 35.2558C34.1708 34.965 34.1195 34.5463 33.8288 34.3197Z" fill="white"/>
<path d="M46.9994 32.7358C42.956 32.7358 39.666 36.0258 39.666 40.0692C39.666 44.1126 42.956 47.4026 46.9994 47.4026C51.0427 47.4026 54.3327 44.1126 54.3327 40.0692C54.3327 36.0258 51.0427 32.7358 46.9994 32.7358ZM46.9994 46.0691C43.6907 46.0691 40.9994 43.3778 40.9994 40.0691C40.9994 36.7604 43.6907 34.0691 46.9994 34.0691C50.308 34.0691 52.9994 36.7604 52.9994 40.0691C52.9994 43.3778 50.308 46.0691 46.9994 46.0691Z" fill="white"/>
<path d="M47.0006 35.4023C45.5299 35.4023 44.334 36.5984 44.334 38.069C44.334 39.5397 45.53 40.7356 47.0006 40.7356C48.4713 40.7356 49.6673 39.5396 49.6673 38.069C49.6673 36.5984 48.4713 35.4023 47.0006 35.4023ZM47.0006 39.4023C46.2653 39.4023 45.6673 38.8044 45.6673 38.069C45.6673 37.3337 46.2652 36.7356 47.0006 36.7356C47.7359 36.7356 48.334 37.3336 48.334 38.069C48.334 38.8044 47.7359 39.4023 47.0006 39.4023Z" fill="white"/>
<path d="M48.934 42.0691H45.066C43.9267 42.0691 43 42.9711 43 44.0791V45.8364C43 46.0744 43.1266 46.2944 43.3327 46.4138C44.45 47.0604 45.718 47.4025 47 47.4025C48.282 47.4025 49.55 47.0604 50.6673 46.4138C50.8734 46.2951 51 46.0744 51 45.8371V44.0798C51 42.9711 50.0734 42.0691 48.934 42.0691ZM49.6666 45.4391C48.0073 46.2657 45.9927 46.2657 44.3333 45.4391V44.0798C44.3333 43.7064 44.662 43.4024 45.0659 43.4024H48.9339C49.3379 43.4024 49.6666 43.7064 49.6666 44.0798V45.4391H49.6666Z" fill="white"/>
<path d="M30.9994 40.7356C26.956 40.7356 23.666 44.0256 23.666 48.0689C23.666 52.1123 26.956 55.4022 30.9994 55.4022C35.0427 55.4022 38.3327 52.1122 38.3327 48.0689C38.3327 44.0255 35.0427 40.7356 30.9994 40.7356ZM30.9994 54.0689C27.6907 54.0689 24.9994 51.3775 24.9994 48.0689C24.9994 44.7602 27.6907 42.0689 30.9994 42.0689C34.308 42.0689 36.9994 44.7602 36.9994 48.0689C36.9994 51.3775 34.308 54.0689 30.9994 54.0689Z" fill="white"/>
<path d="M31.0006 43.4023C29.5299 43.4023 28.334 44.5984 28.334 46.069C28.334 47.5397 29.53 48.7356 31.0006 48.7356C32.4713 48.7356 33.6673 47.5396 33.6673 46.069C33.6673 44.5984 32.4713 43.4023 31.0006 43.4023ZM31.0006 47.4023C30.2653 47.4023 29.6673 46.8044 29.6673 46.069C29.6673 45.3337 30.2652 44.7356 31.0006 44.7356C31.7359 44.7356 32.334 45.3336 32.334 46.069C32.334 46.8044 31.7359 47.4023 31.0006 47.4023Z" fill="white"/>
<path d="M32.934 50.0691H29.066C27.9267 50.0691 27 50.9711 27 52.0791V53.8364C27 54.0744 27.1266 54.2944 27.3327 54.4138C28.45 55.0604 29.718 55.4025 31 55.4025C32.282 55.4025 33.55 55.0604 34.6673 54.4138C34.8734 54.2951 35 54.0745 35 53.8371V52.0798C35 50.9711 34.0734 50.0691 32.934 50.0691ZM33.6666 53.4391C32.0073 54.2657 29.9927 54.2657 28.3333 53.4391V52.0798C28.3333 51.7064 28.662 51.4024 29.0659 51.4024H32.9339C33.3379 51.4024 33.6666 51.7064 33.6666 52.0798V53.4391H33.6666Z" fill="white"/>
<path d="M22.3334 24.0688C18.29 24.0688 15 27.3588 15 31.4022C15 35.4456 18.29 38.7356 22.3334 38.7356C26.3767 38.7356 29.6667 35.4456 29.6667 31.4022C29.6666 27.3588 26.3766 24.0688 22.3334 24.0688ZM22.3334 37.4022C19.0247 37.4022 16.3334 34.7109 16.3334 31.4022C16.3334 28.0935 19.0247 25.4022 22.3334 25.4022C25.642 25.4022 28.3334 28.0935 28.3334 31.4022C28.3334 34.7109 25.642 37.4022 22.3334 37.4022Z" fill="white"/>
<path d="M22.3327 26.7358C20.862 26.7358 19.666 27.9319 19.666 29.4025C19.666 30.8731 20.862 32.0691 22.3327 32.0691C23.8034 32.0691 24.9993 30.8731 24.9993 29.4025C24.9993 27.9319 23.8033 26.7358 22.3327 26.7358ZM22.3327 30.7358C21.5973 30.7358 20.9993 30.1379 20.9993 29.4025C20.9993 28.6671 21.5973 28.0691 22.3327 28.0691C23.068 28.0691 23.666 28.6671 23.666 29.4025C23.666 30.1379 23.068 30.7358 22.3327 30.7358Z" fill="white"/>
<path d="M24.268 33.4023H20.4C19.2607 33.4023 18.334 34.3044 18.334 35.4123V37.1697C18.334 37.4077 18.4606 37.6277 18.6666 37.747C19.784 38.3937 21.052 38.7357 22.334 38.7357C23.616 38.7357 24.884 38.3937 26.0013 37.747C26.2074 37.6284 26.334 37.4077 26.334 37.1704V35.413C26.334 34.3044 25.4073 33.4023 24.268 33.4023ZM25.0006 36.7723C23.3413 37.599 21.3266 37.599 19.6673 36.7723V35.413C19.6673 35.0397 19.9959 34.7357 20.3999 34.7357H24.2679C24.6719 34.7357 25.0006 35.0397 25.0006 35.413V36.7723H25.0006Z" fill="white"/>
<path d="M38.3334 15.4023C34.29 15.4023 31 18.6923 31 22.7357C31 26.7791 34.29 30.0691 38.3334 30.0691C42.3767 30.0691 45.6667 26.7791 45.6667 22.7357C45.6666 18.6923 42.3766 15.4023 38.3334 15.4023ZM38.3334 28.7357C35.0247 28.7357 32.3334 26.0444 32.3334 22.7357C32.3334 19.427 35.0247 16.7357 38.3334 16.7357C41.642 16.7357 44.3334 19.427 44.3334 22.7357C44.3334 26.0444 41.642 28.7357 38.3334 28.7357Z" fill="white"/>
<path d="M38.3327 18.0688C36.862 18.0688 35.666 19.2649 35.666 20.7355C35.666 22.2061 36.862 23.4021 38.3327 23.4021C39.8033 23.4021 40.9993 22.2062 40.9993 20.7356C40.9993 19.2649 39.8033 18.0688 38.3327 18.0688ZM38.3327 22.0688C37.5973 22.0688 36.9993 21.4709 36.9993 20.7355C36.9993 20.0002 37.5973 19.4021 38.3327 19.4021C39.068 19.4021 39.666 20.0001 39.666 20.7355C39.6659 21.4709 39.068 22.0688 38.3327 22.0688Z" fill="white"/>
<path d="M40.268 24.7356H36.4C35.2607 24.7356 34.334 25.6376 34.334 26.7456V28.5029C34.334 28.7409 34.4606 28.9609 34.6666 29.0803C35.784 29.7269 37.052 30.0689 38.334 30.0689C39.616 30.0689 40.884 29.7269 42.0013 29.0803C42.2073 28.9616 42.334 28.7409 42.334 28.5036V26.7463C42.334 25.6375 41.4073 24.7356 40.268 24.7356ZM41.0006 28.1056C39.3413 28.9322 37.3266 28.9322 35.6673 28.1056V26.7463C35.6673 26.3729 35.9959 26.069 36.3999 26.069H40.2679C40.6719 26.069 41.0005 26.3729 41.0005 26.7463V28.1056H41.0006Z" fill="white"/>
<path d="M32.1743 22.3015C31.935 22.0228 31.5143 21.9894 31.2343 22.2288L26.6143 26.1822C26.3343 26.4215 26.3016 26.8422 26.5409 27.1222C26.673 27.2762 26.8596 27.3555 27.0476 27.3555C27.2009 27.3555 27.3549 27.3029 27.4809 27.1948L32.1009 23.2415C32.381 23.0022 32.4137 22.5815 32.1743 22.3015Z" fill="white"/>
<path d="M46.866 33.003L42.866 27.6696C42.6453 27.3743 42.2273 27.3163 41.9327 27.5363C41.638 27.757 41.5787 28.1749 41.7993 28.4689L45.7993 33.8023C45.9306 33.977 46.1306 34.0689 46.3333 34.0689C46.4719 34.0689 46.6126 34.0256 46.7326 33.9356C47.0273 33.7149 47.0867 33.297 46.866 33.003Z" fill="white"/>
<path d="M41.3947 42.2737C41.174 41.979 40.756 41.9197 40.4613 42.1404L36.7373 44.933C36.4427 45.1537 36.3834 45.5717 36.604 45.8657C36.7353 46.0404 36.9353 46.1323 37.138 46.1323C37.2773 46.1323 37.4173 46.0883 37.5373 45.999L41.2613 43.2063C41.556 42.9858 41.6154 42.5677 41.3947 42.2737Z" fill="white"/>
<path d="M24.3334 47.4023H19.6666C19.2987 47.4023 19 47.7003 19 48.069C19 48.4377 19.2987 48.7356 19.6666 48.7356H24.3333C24.7013 48.7356 24.9999 48.4377 24.9999 48.069C24.9999 47.7003 24.7013 47.4023 24.3334 47.4023Z" fill="white"/>
<path d="M22.3327 15.4023C20.862 15.4023 19.666 16.5984 19.666 18.069C19.666 19.5397 20.862 20.7356 22.3327 20.7356C23.8034 20.7356 24.9993 19.5396 24.9993 18.069C24.9994 16.5984 23.8034 15.4023 22.3327 15.4023ZM22.3327 19.4023C21.5974 19.4023 20.9994 18.8044 20.9994 18.069C20.9994 17.3337 21.5973 16.7356 22.3327 16.7356C23.068 16.7356 23.6661 17.3336 23.6661 18.069C23.666 18.8044 23.068 19.4023 22.3327 19.4023Z" fill="white"/>
<path d="M22.3327 19.4023C21.9647 19.4023 21.666 19.7003 21.666 20.069V24.7356C21.666 25.1043 21.9647 25.4023 22.3327 25.4023C22.7006 25.4023 22.9993 25.1043 22.9993 24.7356V20.069C22.9993 19.7003 22.7006 19.4023 22.3327 19.4023Z" fill="white"/>
</svg>
