<svg width="102" height="102" viewBox="0 0 102 102" fill="none" xmlns="http://www.w3.org/2000/svg">
<circle cx="51" cy="51" r="50" stroke="#1D3566" stroke-width="1.33444" stroke-dasharray="4 4"/>
<circle cx="51.0009" cy="51.0001" r="44.1177" fill="#E5E5E5"/>
<path d="M77.0365 65.6377L70.2373 62.7426L71.7726 58.8221C71.8715 58.5671 71.8715 58.2843 71.7726 58.0292C70.8087 55.5147 66.9792 54.214 64.6905 53.6427C65.7747 51.9762 66.5434 50.1247 66.9584 48.1803C67.2314 48.1935 67.5188 48.2242 67.7809 48.2242C69.0002 48.307 70.2236 48.1375 71.3746 47.7264C72.5255 47.3152 73.5794 46.6712 74.4704 45.8346C75.2129 44.9915 75.776 44.0059 76.1251 42.938C76.4743 41.8701 76.6023 40.7423 76.5013 39.6233C76.7094 39.3185 76.8927 38.9977 77.0496 38.6637C77.7489 37.059 77.8808 35.2639 77.4236 33.5742C78.7071 31.3051 79.488 28.7866 79.7134 26.1894C79.7232 25.9774 79.6713 25.7671 79.564 25.584C79.4566 25.4008 79.2984 25.2528 79.1086 25.1578C78.9188 25.0629 78.7054 25.025 78.4945 25.0489C78.2836 25.0728 78.0842 25.1574 77.9204 25.2924C74.6744 27.7829 70.9856 29.6353 67.0494 30.7515C66.8051 30.8167 66.5906 30.9638 66.4419 31.1682L63.8395 34.7586C62.3184 32.8028 60.3708 31.2203 58.1451 30.1317C55.9194 29.0431 53.4745 28.4773 50.9968 28.4773C48.5192 28.4773 46.0742 29.0431 43.8485 30.1317C41.6228 31.2203 39.6752 32.8028 38.1541 34.7586L35.5517 31.1682C35.403 30.9638 35.1885 30.8167 34.9442 30.7515C31.0081 29.6353 27.3192 27.7829 24.0732 25.2924C23.909 25.1538 23.7077 25.0665 23.4943 25.0414C23.2809 25.0162 23.0648 25.0543 22.8729 25.1509C22.6809 25.2475 22.5216 25.3984 22.4147 25.5848C22.3078 25.7712 22.258 25.9849 22.2715 26.1993C22.4969 28.7965 23.2778 31.315 24.5612 33.5841C24.1046 35.2731 24.2364 37.0673 24.9352 38.6714C25.0921 39.0053 25.2755 39.3262 25.4835 39.6309C25.3825 40.7499 25.5105 41.8778 25.8597 42.9457C26.2089 44.0136 26.7719 44.9991 27.5145 45.8423C28.406 46.6798 29.4607 47.3243 30.6127 47.7354C31.7647 48.1466 32.9892 48.3156 34.2095 48.2319C34.4716 48.2319 34.7578 48.2012 35.0319 48.188C35.447 50.1323 36.2157 51.9839 37.2998 53.6504C35.0111 54.2173 31.1816 55.5147 30.2177 58.0369C30.1188 58.292 30.1188 58.5748 30.2177 58.8298L31.753 62.7503L24.9538 65.6454C24.7684 65.7243 24.6082 65.8528 24.491 66.0168C24.3738 66.1808 24.3041 66.3739 24.2895 66.575C24.2748 66.776 24.3159 66.9772 24.4082 67.1564C24.5004 67.3356 24.6403 67.4859 24.8124 67.5908L30.1047 70.8029L29.6661 77.4661C29.6534 77.6587 29.6918 77.8512 29.7774 78.0242C29.863 78.1972 29.9927 78.3446 30.1535 78.4514C30.3143 78.5582 30.5004 78.6207 30.6931 78.6325C30.8857 78.6444 31.0781 78.6052 31.2507 78.5188L42.9848 72.6617C43.0229 72.6393 43.0595 72.6143 43.0944 72.5871C43.1285 72.5664 43.1611 72.5433 43.192 72.518C43.2769 72.4492 43.3509 72.3678 43.4114 72.2768C43.4212 72.2614 43.4344 72.2494 43.4443 72.234C43.5111 72.1189 43.5565 71.9925 43.578 71.8612C43.5792 71.8433 43.5792 71.8253 43.578 71.8074C43.5914 71.727 43.5955 71.6453 43.5901 71.564C43.5901 71.5267 43.5693 71.4949 43.5616 71.4543C43.5616 71.4389 43.5616 71.4247 43.5616 71.4093L42.2851 66.3407C45.1231 65.5716 48.0573 65.2166 50.9968 65.2868C53.939 65.2167 56.8758 65.5724 59.7162 66.3429L58.4397 71.4126C58.4397 71.428 58.4397 71.4422 58.4397 71.4576C58.432 71.4938 58.4156 71.5256 58.4112 71.5673C58.4058 71.6486 58.4099 71.7303 58.4232 71.8107C58.4232 71.8283 58.4232 71.8469 58.4232 71.8644C58.4448 71.9958 58.4902 72.1222 58.557 72.2373C58.5669 72.2527 58.5801 72.2647 58.5899 72.2801C58.6504 72.3711 58.7244 72.4525 58.8093 72.5213C58.8402 72.5466 58.8728 72.5697 58.9069 72.5904C58.9417 72.6176 58.9784 72.6426 59.0165 72.665L70.7506 78.5221C70.9232 78.6084 71.1156 78.6477 71.3082 78.6358C71.5009 78.624 71.687 78.5615 71.8478 78.4547C72.0085 78.3479 72.1383 78.2005 72.2239 78.0275C72.3094 77.8545 72.3478 77.662 72.3352 77.4694L71.8965 70.8062L77.1856 67.5876C77.3577 67.4826 77.4976 67.3323 77.5898 67.1531C77.6821 66.9739 77.7232 66.7727 77.7085 66.5717C77.6939 66.3706 77.6242 66.1775 77.507 66.0135C77.3898 65.8495 77.2296 65.721 77.0442 65.6421L77.0365 65.6377ZM67.9947 32.7583C71.2001 31.8083 74.2587 30.4196 77.0836 28.6317C76.4947 30.9489 75.17 34.2048 72.2519 35.6326C72.028 35.741 71.8477 35.9223 71.7404 36.1467C71.6332 36.3711 71.6054 36.6253 71.6616 36.8675C71.7178 37.1098 71.8547 37.3258 72.0499 37.48C72.245 37.6342 72.4868 37.7175 72.7355 37.7162C72.9019 37.7173 73.0663 37.6797 73.2158 37.6065C74.0476 37.1938 74.8125 36.6582 75.4847 36.0175C75.4538 36.6185 75.3117 37.2086 75.0658 37.7579C74.6287 38.5639 74.0314 39.2722 73.3106 39.839C72.5899 40.4059 71.7609 40.8195 70.8745 41.0544C70.5998 41.1504 70.3744 41.3515 70.2481 41.6136C70.1217 41.8758 70.1046 42.1773 70.2006 42.452C70.2966 42.7268 70.4977 42.9521 70.7599 43.0785C71.022 43.2048 71.3236 43.2219 71.5983 43.1259C72.4958 42.8188 73.3541 42.4073 74.1556 41.8999C73.9626 42.8126 73.5238 43.6551 72.8868 44.3366C71.7046 45.5561 69.8162 46.1219 67.26 46.0287C67.2907 45.6219 67.3225 45.215 67.3225 44.8005C67.3218 41.952 66.5702 39.154 65.1434 36.6887L67.9947 32.7583ZM50.9968 30.6659C53.7918 30.6659 56.5239 31.4947 58.8478 33.0476C61.1717 34.6004 62.983 36.8074 64.0525 39.3897C65.122 41.9719 65.4018 44.8133 64.8565 47.5545C64.3111 50.2957 62.9651 52.8137 60.9887 54.7899C59.0123 56.7662 56.4943 58.112 53.753 58.6571C51.0117 59.2022 48.1704 58.9222 45.5882 57.8525C43.0061 56.7828 40.7992 54.9714 39.2465 52.6473C37.6939 50.3233 36.8653 47.5911 36.8655 44.7961C36.8699 41.0497 38.3601 37.458 41.0094 34.809C43.6586 32.16 47.2504 30.67 50.9968 30.6659V30.6659ZM29.1079 44.3322C28.4709 43.6507 28.0322 42.8082 27.8391 41.8955C28.6406 42.4029 29.4989 42.8144 30.3964 43.1215C30.6712 43.2175 30.9727 43.2004 31.2348 43.0741C31.497 42.9477 31.6981 42.7224 31.7941 42.4477C31.8901 42.173 31.873 41.8714 31.7466 41.6093C31.6203 41.3472 31.3949 41.146 31.1202 41.05C30.2382 40.8153 29.4129 40.4042 28.6942 39.8416C27.9755 39.279 27.3783 38.5765 26.9387 37.7765C26.6863 37.2209 26.5408 36.6227 26.51 36.0131C27.1824 36.6535 27.9472 37.1892 28.7789 37.6022C28.9284 37.6753 29.0928 37.7129 29.2592 37.7118C29.5079 37.7131 29.7497 37.6298 29.9448 37.4756C30.14 37.3214 30.2769 37.1054 30.3331 36.8631C30.3893 36.6209 30.3616 36.3667 30.2543 36.1423C30.147 35.9179 29.9667 35.7366 29.7429 35.6282C26.8247 34.2026 25.5 30.9445 24.9111 28.6273C27.7354 30.4167 30.7937 31.8069 33.9989 32.7583L36.8502 36.6887C35.4253 39.1531 34.6748 41.9494 34.6744 44.7961C34.6744 45.2106 34.7062 45.6186 34.7369 46.0254C32.1807 46.1219 30.2901 45.5528 29.1079 44.3322ZM38.7583 55.5673C40.2837 57.3117 42.1646 58.7097 44.2746 59.6675C46.3847 60.6253 48.6751 61.1209 50.9924 61.1209C53.3097 61.1209 55.6002 60.6253 57.7102 59.6675C59.8203 58.7097 61.7011 57.3117 63.2265 55.5673C65.4604 56.006 68.6165 57.0598 69.5475 58.4767L67.7929 62.9301V62.94L66.0098 67.4976C64.2661 65.5643 60.2371 63.0935 50.9968 63.0935C41.7565 63.0935 37.7275 65.5643 35.9838 67.4976L34.1952 62.9378V62.9312L32.4406 58.4767C33.3727 57.0598 36.5289 56.0092 38.7627 55.5673H38.7583ZM31.98 75.7027L32.3364 70.282C32.3496 70.082 32.3077 69.8822 32.2153 69.7043C32.1228 69.5264 31.9834 69.3773 31.8122 69.2731L27.781 66.8199L32.5634 64.7856L34.7501 70.3642C34.7611 70.3928 34.7885 70.4103 34.8027 70.4388C34.8478 70.5275 34.905 70.6094 34.9727 70.6823C35.0144 70.7311 35.0599 70.7766 35.1087 70.8182C35.1743 70.8623 35.2446 70.8991 35.3182 70.9279C35.3752 70.9658 35.4358 70.9982 35.4991 71.0244L39.3713 72.0114L31.98 75.7027ZM40.9724 70.1592L37.3755 69.2391C38.1415 68.3229 39.1117 67.5991 40.2081 67.1259L40.9724 70.1592ZM64.6083 69.2391L61.0124 70.1592L61.7801 67.1259C62.8765 67.599 63.8467 68.3228 64.6127 69.2391H64.6083ZM70.177 69.2731C70.0058 69.3773 69.8664 69.5264 69.774 69.7043C69.6815 69.8822 69.6396 70.082 69.6528 70.282L70.0092 75.7027L62.6212 72.0092L66.4177 71.0376H66.4298H66.4419L66.4934 71.0244C66.5175 71.0178 66.5351 70.997 66.5592 70.9893C66.684 70.9498 66.8006 70.8881 66.9035 70.8073C66.9355 70.7786 66.9659 70.7482 66.9946 70.7163C67.0768 70.6326 67.1446 70.5359 67.1953 70.43C67.2073 70.4048 67.2325 70.3884 67.2424 70.3631L69.4291 64.7889L74.2115 66.8232L70.177 69.2731ZM42.6624 50.0764C42.8912 50.8871 43.378 51.601 44.0491 52.1102C44.7201 52.6193 45.5387 52.8959 46.3811 52.8981H58.6108C58.9016 52.8981 59.1805 52.7825 59.3862 52.5769C59.5919 52.3712 59.7074 52.0923 59.7074 51.8014V43.2334C59.7074 42.9426 59.5919 42.6636 59.3862 42.458C59.1805 42.2523 58.9016 42.1368 58.6108 42.1368H53.4478L51.2951 37.521C51.0281 36.9617 50.5794 36.5093 50.0222 36.2377C49.4651 35.9662 48.8324 35.8914 48.2272 36.0256C47.6221 36.1598 47.0804 36.4951 46.6903 36.9768C46.3003 37.4585 46.0849 38.0582 46.0795 38.678V41.1026H44.0321C43.5788 41.103 43.1318 41.2081 42.7259 41.4097C42.32 41.6114 41.9661 41.9041 41.692 42.265C41.4179 42.626 41.2309 43.0454 41.1457 43.4905C41.0604 43.9357 41.0792 44.3945 41.2005 44.8312L42.6624 50.0764ZM57.5108 50.7048H56.3999V44.33H57.5141L57.5108 50.7048ZM43.4377 43.5909C43.5067 43.4986 43.5965 43.4238 43.6997 43.3726C43.803 43.3214 43.9168 43.2951 44.0321 43.2959H47.1761C47.467 43.2959 47.7459 43.1804 47.9516 42.9747C48.1572 42.7691 48.2728 42.4901 48.2728 42.1993V38.678C48.2731 38.5547 48.3155 38.4352 48.3928 38.3392C48.4701 38.2432 48.5778 38.1763 48.6981 38.1497C48.8185 38.123 48.9443 38.1381 49.055 38.1924C49.1656 38.2468 49.2545 38.3372 49.3069 38.4488L51.7557 43.6973C51.844 43.8865 51.9845 44.0466 52.1608 44.1587C52.337 44.2708 52.5415 44.3302 52.7503 44.33H54.2067V50.7015H46.3843C46.0204 50.7006 45.6666 50.5811 45.3767 50.361C45.0868 50.141 44.8765 49.8324 44.7778 49.482L43.3127 44.2434C43.2816 44.1324 43.2767 44.0157 43.2984 43.9024C43.3201 43.7892 43.3677 43.6826 43.4377 43.5909Z" fill="#1D3566"/>
</svg>
