<svg width="24" height="24" viewBox="0 0 24 24" fill="none" xmlns="http://www.w3.org/2000/svg">
<path d="M20.7111 20.2168L16.0273 15.2662C17.2316 13.8113 17.8914 11.9807 17.8914 10.075C17.8914 5.62251 14.3269 2 9.94571 2C5.56452 2 2 5.62251 2 10.075C2 14.5275 5.56452 18.15 9.94571 18.15C11.5905 18.15 13.1579 17.6458 14.4979 16.6888L19.2173 21.677C19.4146 21.8852 19.6799 22 19.9642 22C20.2333 22 20.4886 21.8957 20.6824 21.7061C21.0942 21.3034 21.1074 20.6357 20.7111 20.2168ZM9.94571 4.10652C13.1841 4.10652 15.8186 6.78391 15.8186 10.075C15.8186 13.3661 13.1841 16.0435 9.94571 16.0435C6.70732 16.0435 4.07279 13.3661 4.07279 10.075C4.07279 6.78391 6.70732 4.10652 9.94571 4.10652Z" fill="white"/>
</svg>
