<svg width="31" height="31" viewBox="0 0 31 31" fill="none" xmlns="http://www.w3.org/2000/svg">
<path d="M15.1895 0.919861C6.90508 0.919861 0.189453 7.63549 0.189453 15.9199C0.189453 24.2042 6.90508 30.9199 15.1895 30.9199C23.4738 30.9199 30.1895 24.2042 30.1895 15.9199C30.1895 7.63549 23.4738 0.919861 15.1895 0.919861ZM21.291 13.2074C21.2973 13.3355 21.2988 13.4636 21.2988 13.5886C21.2988 17.4949 18.3285 21.9964 12.8941 21.9964C11.2883 21.9991 9.71596 21.5379 8.36601 20.6683C8.5957 20.6964 8.83164 20.7074 9.0707 20.7074C10.4551 20.7074 11.7285 20.237 12.7395 19.4433C12.1234 19.4312 11.5264 19.2272 11.0318 18.8597C10.5372 18.4923 10.1695 17.9796 9.98008 17.3933C10.4225 17.4774 10.8783 17.4598 11.3129 17.3417C10.6442 17.2065 10.0429 16.8442 9.61087 16.3162C9.17886 15.7882 8.94274 15.1271 8.94258 14.4449V14.4089C9.34101 14.6292 9.79727 14.7636 10.2816 14.7792C9.65476 14.3619 9.21099 13.7209 9.04108 12.9873C8.87118 12.2536 8.98797 11.4828 9.36758 10.8324C10.1097 11.7449 11.0352 12.4913 12.0841 13.0235C13.133 13.5556 14.282 13.8615 15.4566 13.9214C15.3073 13.2875 15.3716 12.6221 15.6395 12.0285C15.9074 11.4349 16.3639 10.9464 16.938 10.639C17.5121 10.3316 18.1718 10.2226 18.8143 10.3287C19.4568 10.4349 20.0463 10.7504 20.491 11.2261C21.1522 11.0953 21.7863 10.8528 22.366 10.5089C22.1456 11.1935 21.6843 11.7748 21.0676 12.1449C21.6533 12.0743 22.2252 11.9169 22.7645 11.6777C22.3683 12.2713 21.8693 12.7893 21.291 13.2074V13.2074Z" fill="#828282"/>
</svg>
