<svg width="31" height="31" viewBox="0 0 31 31" fill="none" xmlns="http://www.w3.org/2000/svg">
<path d="M15.3799 0.919861C7.09551 0.919861 0.379883 7.63549 0.379883 15.9199C0.379883 24.2042 7.09551 30.9199 15.3799 30.9199C23.6643 30.9199 30.3799 24.2042 30.3799 15.9199C30.3799 7.63549 23.6643 0.919861 15.3799 0.919861ZM11.708 22.137H8.67051V12.362H11.708V22.137ZM10.1705 11.162C9.21113 11.162 8.59082 10.4824 8.59082 9.64173C8.59082 8.78392 9.22988 8.12455 10.2096 8.12455C11.1893 8.12455 11.7893 8.78392 11.808 9.64173C11.808 10.4824 11.1893 11.162 10.1705 11.162ZM22.8018 22.137H19.7643V16.7199C19.7643 15.4589 19.3236 14.6027 18.2252 14.6027C17.3861 14.6027 16.8877 15.1824 16.6674 15.7402C16.5861 15.9386 16.5658 16.2199 16.5658 16.4995V22.1355H13.5268V15.4792C13.5268 14.2589 13.4877 13.2386 13.4471 12.3605H16.0861L16.2252 13.7183H16.2861C16.6861 13.0808 17.6658 12.1402 19.3049 12.1402C21.3033 12.1402 22.8018 13.4792 22.8018 16.3574V22.137V22.137Z" fill="#828282"/>
</svg>
