<svg width="31" height="31" viewBox="0 0 31 31" fill="none" xmlns="http://www.w3.org/2000/svg">
<path d="M15.5181 0.919861C12.0286 0.943543 8.65584 2.17479 5.97671 4.40298C3.29757 6.63117 1.47857 9.71783 0.83089 13.1349C0.183207 16.5521 0.747083 20.0873 2.42606 23.1358C4.10503 26.1844 6.79477 28.5568 10.0351 29.8473C9.81737 28.4271 9.81737 26.9821 10.0351 25.5618L11.809 18.0621C11.5283 17.3828 11.3893 16.6538 11.4005 15.9193C11.4005 13.8408 12.6154 12.2766 14.1205 12.2766C14.3931 12.2725 14.6635 12.3272 14.913 12.4369C15.1624 12.5466 15.3852 12.7088 15.5659 12.9123C15.7466 13.1158 15.8811 13.3559 15.96 13.616C16.039 13.8761 16.0606 14.1501 16.0234 14.4193C16.0234 15.705 15.2063 17.6335 14.7763 19.412C14.6837 19.7437 14.6727 20.0927 14.7442 20.4295C14.8157 20.7663 14.9675 21.081 15.1869 21.3469C15.4063 21.6129 15.6868 21.8222 16.0045 21.9572C16.3223 22.0922 16.668 22.149 17.0125 22.1226C19.6787 22.1226 21.7429 19.3049 21.7429 15.255C21.7697 14.4321 21.6241 13.6126 21.3153 12.8489C21.0066 12.0851 20.5415 11.3939 19.9497 10.8193C19.358 10.2447 18.6525 9.79929 17.8784 9.51156C17.1042 9.22382 16.2784 9.10004 15.4536 9.14812C14.573 9.11042 13.6939 9.25119 12.8694 9.56191C12.045 9.87262 11.2924 10.3468 10.6572 10.9558C10.022 11.5648 9.5174 12.2959 9.17394 13.1048C8.83048 13.9138 8.65531 14.7838 8.65904 15.6622C8.64708 16.8858 9.02335 18.082 9.73412 19.0799C9.78581 19.1371 9.82263 19.2061 9.84137 19.2808C9.86011 19.3555 9.8602 19.4337 9.84163 19.5084C9.72337 19.9798 9.46535 21.0084 9.42235 21.2119C9.37935 21.4155 9.19658 21.5441 8.91706 21.4155C7.03565 20.537 5.86381 17.8049 5.86381 15.5979C5.86381 10.8731 9.31484 6.52322 15.8084 6.52322C21.0226 6.52322 25.0864 10.2302 25.0864 15.1907C25.0864 20.3548 21.8611 24.5118 17.2705 24.5118C16.5975 24.5352 15.9293 24.3906 15.3267 24.0912C14.724 23.7918 14.2059 23.3472 13.8195 22.7976L12.8841 26.3653C12.4358 27.7519 11.8068 29.0738 11.0135 30.2973C12.4754 30.7279 13.9938 30.9374 15.5181 30.9187C19.5099 30.9187 23.3383 29.3384 26.1609 26.5255C28.9836 23.7125 30.5693 19.8974 30.5693 15.9193C30.5693 11.9412 28.9836 8.12603 26.1609 5.31309C23.3383 2.50015 19.5099 0.919861 15.5181 0.919861" fill="#828282"/>
</svg>
