<svg width="50" height="50" viewBox="0 0 50 50" fill="none" xmlns="http://www.w3.org/2000/svg">
<path d="M25.1091 40C24.6946 40 24.2997 39.8429 23.999 39.5576C23.9772 39.5371 21.39 37.0664 10.9395 26.7469L10.8666 26.675C10.7592 26.5699 10.7065 26.5094 10.6538 26.4485C8.94719 24.6267 8 22.2574 8 19.7919C8 14.3928 12.4486 10 17.9163 10C20.5998 10 23.1487 11.0667 24.9995 12.9452C26.8508 11.0666 29.4002 10 32.0837 10C37.5514 10 42 14.3928 42 19.7919C42 22.4975 40.9022 25.0145 38.9078 26.8841C38.8786 26.9177 38.8519 26.9445 38.8323 26.9634C28.2976 37.3659 26.2995 39.4756 26.2803 39.4956C25.9871 39.805 25.5758 39.9885 25.15 39.9989L25.1091 40ZM17.9168 11.0515C13.0356 11.0515 9.06482 14.9725 9.06482 19.7925C9.06482 21.9925 9.91195 24.1086 11.4499 25.7511C11.502 25.8105 11.5392 25.8536 11.6181 25.9309L11.6925 26.0044C22.1398 36.3207 24.7136 38.7783 24.7366 38.8003C24.8372 38.896 24.9681 38.9485 25.1053 38.9496L25.1277 38.9491C25.2666 38.9454 25.405 38.8839 25.5029 38.7804C25.5183 38.7636 27.533 36.6371 38.0782 26.2241L38.1548 26.1427C39.9486 24.4722 40.9368 22.217 40.9368 19.793C40.9368 14.973 36.966 11.052 32.0848 11.052C29.5109 11.052 27.0759 12.1508 25.4039 14.0671L25.0005 14.529L24.5972 14.0666C22.9257 12.1502 20.4912 11.0515 17.9168 11.0515Z" fill="#1476BF" stroke="#1476BF" stroke-width="0.75"/>
</svg>
