<svg width="40" height="41" viewBox="0 0 40 41" fill="none" xmlns="http://www.w3.org/2000/svg">
<path d="M20 0.541992C8.95536 0.541992 0 9.49735 0 20.542C0 31.5866 8.95536 40.542 20 40.542C31.0446 40.542 40 31.5866 40 20.542C40 9.49735 31.0446 0.541992 20 0.541992ZM29.6116 15.6179C29.625 15.8277 29.625 16.0465 29.625 16.2607C29.625 22.8143 24.6339 30.3634 15.5134 30.3634C12.7009 30.3634 10.0938 29.5465 7.89732 28.1402C8.29911 28.1849 8.68304 28.2027 9.09375 28.2027C11.4152 28.2027 13.5491 27.417 15.25 26.0866C13.0714 26.042 11.2411 24.6134 10.6161 22.6491C11.3795 22.7607 12.067 22.7607 12.8527 22.5599C11.7309 22.3319 10.7227 21.7227 9.99918 20.8357C9.2757 19.9486 8.88164 18.8385 8.88393 17.6938V17.6313C9.54018 18.0018 10.3125 18.2295 11.1205 18.2607C10.4413 17.808 9.88419 17.1947 9.49871 16.4752C9.11323 15.7556 8.91127 14.952 8.91071 14.1357C8.91071 13.2116 9.15179 12.3679 9.58482 11.6357C10.8299 13.1685 12.3836 14.4221 14.1449 15.3151C15.9062 16.208 17.8357 16.7204 19.808 16.8188C19.1071 13.4482 21.625 10.7206 24.6518 10.7206C26.0804 10.7206 27.3661 11.3188 28.2723 12.2831C29.3929 12.0732 30.4643 11.6536 31.4196 11.0911C31.0491 12.2384 30.2723 13.2072 29.2411 13.8188C30.2411 13.7116 31.2054 13.4348 32.0982 13.0465C31.4241 14.0375 30.5804 14.917 29.6116 15.6179V15.6179Z" fill="#E6E6E6"/>
</svg>
