<svg width="70" height="70" viewBox="0 0 70 70" fill="none" xmlns="http://www.w3.org/2000/svg">
<rect width="70" height="70" rx="14.14" fill="#1D3566"/>
<path d="M15.9459 46.8934L17.6425 49.1554L15.8697 53.2913C15.7623 53.5424 15.8254 53.8337 16.0277 54.0169C16.1482 54.1262 16.3024 54.1827 16.4573 54.1827C16.5628 54.1827 16.669 54.1568 16.7651 54.1034L29.5536 47.0698C29.7584 46.9577 29.8852 46.7429 29.8852 46.5096C29.8852 46.2764 29.7584 46.0616 29.5536 45.9495L16.7651 38.9159C16.5279 38.7844 16.23 38.8185 16.0277 39.0023C15.8254 39.1856 15.7623 39.4769 15.8697 39.7279L17.6425 43.8639L15.9459 46.1259C15.7754 46.3532 15.7754 46.6661 15.9459 46.8934ZM18.836 49.6161L24.8387 48.2037L17.7767 52.0877L18.836 49.6161ZM24.8387 44.8156L18.836 43.4032L17.7767 40.9315L24.8387 44.8156ZM18.636 44.6703L26.4531 46.5096L18.636 48.349L17.2566 46.5096L18.636 44.6703Z" fill="white"/>
<path d="M43.953 15.8173C38.5277 15.8173 34.0874 20.0657 33.7546 25.4087H32.0687L30.3378 23.6777L29.4336 24.5819L30.2604 25.4087H27.6477C23.9454 25.4087 20.9338 28.4206 20.9338 32.1226C20.9338 35.8246 23.9454 38.8366 27.6477 38.8366H34.7363L36.4673 40.5675L37.3714 39.6633L36.5447 38.8366H48.7487C50.6876 38.8366 52.2655 40.4142 52.2655 42.3534C52.2655 44.2926 50.6876 45.8702 48.7487 45.8702H42.9389L41.208 44.1393L40.3038 45.0435L41.1306 45.8702H31.1645V47.1491H41.1306L40.3038 47.9758L41.208 48.88L42.9389 47.1491H48.7487C51.3932 47.1491 53.5444 44.9979 53.5444 42.3534C53.5444 39.7089 51.3932 37.5577 48.7487 37.5577H36.5447L37.3714 36.731L36.4673 35.8268L34.7363 37.5577H27.6477C24.6511 37.5577 22.2126 35.1196 22.2126 32.1226C22.2126 29.1256 24.6511 26.6875 27.6477 26.6875H30.2604L29.4336 27.5143L30.3378 28.4185L32.0687 26.6875H33.7546C34.0874 32.0305 38.5277 36.2789 43.953 36.2789C49.5942 36.2789 54.1838 31.6893 54.1838 26.0481C54.1838 20.4069 49.5942 15.8173 43.953 15.8173ZM43.953 35C39.2327 35 35.3636 31.3252 35.0335 26.6875H36.9517C37.2763 30.2669 40.2904 33.0817 43.953 33.0817C47.8314 33.0817 50.9867 29.9265 50.9867 26.0481C50.9867 22.1697 47.8314 19.0144 43.953 19.0144C40.2904 19.0144 37.2763 21.8292 36.9517 25.4087H35.0335C35.3636 20.771 39.2327 17.0962 43.953 17.0962C48.8892 17.0962 52.9049 21.1119 52.9049 26.0481C52.9049 30.9843 48.8892 35 43.953 35ZM42.4868 28.4185L44.4051 26.5002C44.6549 26.2504 44.6549 25.8458 44.4051 25.596L42.4868 23.6777L41.5826 24.5819L42.4094 25.4087H38.2359C38.5553 22.5358 40.996 20.2933 43.953 20.2933C47.1264 20.2933 49.7078 22.875 49.7078 26.0481C49.7078 29.2212 47.1264 31.8029 43.953 31.8029C40.996 31.8029 38.5553 29.5604 38.2359 26.6875H42.4094L41.5826 27.5143L42.4868 28.4185Z" fill="white"/>
<path d="M47.7894 26.0481C47.7894 23.9326 46.0685 22.2116 43.9529 22.2116V23.4905C45.3635 23.4905 46.5106 24.6379 46.5106 26.0481C46.5106 27.4584 45.3635 28.6058 43.9529 28.6058V29.8847C46.0685 29.8847 47.7894 28.1637 47.7894 26.0481Z" fill="white"/>
</svg>
