<svg width="82" height="83" viewBox="0 0 82 83" fill="none" xmlns="http://www.w3.org/2000/svg">
<g filter="url(#filter0_d_736_2538)">
<circle cx="41" cy="40.4023" r="35" fill="white"/>
</g>
<path d="M55.1432 27.9365H50.0367C49.9344 27.9365 49.8363 27.9775 49.764 28.0504C49.6917 28.1232 49.651 28.2221 49.651 28.3252C49.651 28.3914 49.6718 28.4507 49.7003 28.5047V31.4658C49.7004 31.5744 49.6793 31.6818 49.6382 31.7821C49.597 31.8824 49.5366 31.9735 49.4605 32.0502C49.3844 32.127 49.294 32.1878 49.1945 32.2293C49.095 32.2708 48.9883 32.2921 48.8807 32.292H47.2915C47.1915 32.292 47.0926 32.2721 47.0003 32.2336C46.908 32.195 46.8241 32.1386 46.7534 32.0673C46.6828 31.9961 46.6267 31.9116 46.5885 31.8186C46.5503 31.7255 46.5306 31.6258 46.5306 31.5251V28.5526C46.5816 28.4878 46.6101 28.4079 46.6119 28.3252C46.612 28.2741 46.6021 28.2235 46.5827 28.1763C46.5634 28.1291 46.535 28.0862 46.4992 28.0501C46.4633 28.014 46.4208 27.9854 46.3739 27.9659C46.3271 27.9464 46.2769 27.9364 46.2262 27.9365H35.9328C35.8306 27.9365 35.7325 27.9775 35.6602 28.0504C35.5879 28.1232 35.5472 28.2221 35.5472 28.3252C35.5472 28.3853 35.5637 28.4402 35.5879 28.4916V31.4867C35.5879 31.5926 35.5672 31.6974 35.527 31.7952C35.4868 31.893 35.4279 31.9819 35.3536 32.0567C35.2793 32.1316 35.1912 32.191 35.0941 32.2315C34.9971 32.272 34.8931 32.2928 34.7881 32.2928H33.377C33.1628 32.2928 32.9574 32.2071 32.806 32.0544C32.6545 31.9018 32.5694 31.6948 32.5694 31.4789V28.5134C32.6038 28.4566 32.6226 28.3917 32.6239 28.3252C32.624 28.2741 32.6141 28.2235 32.5948 28.1763C32.5755 28.1291 32.5471 28.0862 32.5112 28.0501C32.4754 28.014 32.4328 27.9854 32.386 27.9659C32.3392 27.9464 32.289 27.9364 32.2383 27.9365H26.8577C26.6305 27.9368 26.4126 28.0278 26.2518 28.1897C26.091 28.3515 26.0005 28.5711 26 28.8001V54.5371C26 55.0146 26.3848 55.4024 26.8577 55.4024H55.1432C55.3706 55.4019 55.5885 55.3106 55.7491 55.1483C55.9098 54.9861 56 54.7663 56 54.5371V28.8001C55.9995 28.5712 55.9091 28.3518 55.7485 28.19C55.5879 28.0281 55.3703 27.937 55.1432 27.9365ZM55.1432 54.6251H26.8577C26.8463 54.6251 26.835 54.6228 26.8244 54.6184C26.8139 54.6139 26.8043 54.6074 26.7963 54.5992C26.7882 54.5911 26.7819 54.5813 26.7776 54.5707C26.7733 54.56 26.7711 54.5486 26.7712 54.5371V35.1276H55.2288V54.5362C55.229 54.5477 55.2269 54.5592 55.2228 54.5699C55.2186 54.5806 55.2123 54.5904 55.2043 54.5986C55.1964 54.6069 55.1869 54.6135 55.1764 54.618C55.1659 54.6226 55.1546 54.625 55.1432 54.6251Z" fill="#174276"/>
<path d="M34.1825 31.4065C34.3952 31.4065 34.5681 31.2322 34.5681 31.0179V25.791C34.5681 25.74 34.5581 25.6894 34.5388 25.6423C34.5194 25.5951 34.491 25.5523 34.4552 25.5162C34.4194 25.4801 34.3769 25.4515 34.3301 25.4319C34.2833 25.4124 34.2331 25.4023 34.1825 25.4023C34.1319 25.4023 34.0817 25.4124 34.0349 25.4319C33.9881 25.4515 33.9456 25.4801 33.9098 25.5162C33.874 25.5523 33.8456 25.5951 33.8262 25.6423C33.8068 25.6894 33.7969 25.74 33.7969 25.791V31.0187C33.7969 31.2331 33.9698 31.4065 34.1825 31.4065Z" fill="#174276"/>
<path d="M48.1493 31.4065C48.362 31.4065 48.5349 31.2322 48.5349 31.0179V25.791C48.5349 25.6879 48.4943 25.5891 48.422 25.5162C48.3497 25.4433 48.2516 25.4023 48.1493 25.4023C48.047 25.4023 47.9489 25.4433 47.8766 25.5162C47.8043 25.5891 47.7637 25.6879 47.7637 25.791V31.0187C47.7637 31.2331 47.9357 31.4065 48.1493 31.4065Z" fill="#174276"/>
<path d="M32.1897 41.0071C33.3635 41.0071 34.315 40.0481 34.315 38.8651C34.315 37.6821 33.3635 36.7231 32.1897 36.7231C31.016 36.7231 30.0645 37.6821 30.0645 38.8651C30.0645 40.0481 31.016 41.0071 32.1897 41.0071Z" fill="#174276"/>
<path d="M38.2971 41.0071C39.4709 41.0071 40.4224 40.0481 40.4224 38.8651C40.4224 37.6821 39.4709 36.7231 38.2971 36.7231C37.1234 36.7231 36.1719 37.6821 36.1719 38.8651C36.1719 40.0481 37.1234 41.0071 38.2971 41.0071Z" fill="#174276"/>
<path d="M44.4046 41.0071C45.5783 41.0071 46.5298 40.0481 46.5298 38.8651C46.5298 37.6821 45.5783 36.7231 44.4046 36.7231C43.2308 36.7231 42.2793 37.6821 42.2793 38.8651C42.2793 40.0481 43.2308 41.0071 44.4046 41.0071Z" fill="#174276"/>
<path d="M32.1897 46.9724C33.3635 46.9724 34.315 46.0134 34.315 44.8305C34.315 43.6475 33.3635 42.6885 32.1897 42.6885C31.016 42.6885 30.0645 43.6475 30.0645 44.8305C30.0645 46.0134 31.016 46.9724 32.1897 46.9724Z" fill="#174276"/>
<path d="M38.2971 46.9724C39.4709 46.9724 40.4224 46.0134 40.4224 44.8305C40.4224 43.6475 39.4709 42.6885 38.2971 42.6885C37.1234 42.6885 36.1719 43.6475 36.1719 44.8305C36.1719 46.0134 37.1234 46.9724 38.2971 46.9724Z" fill="#174276"/>
<path d="M44.4046 46.9724C45.5783 46.9724 46.5298 46.0134 46.5298 44.8305C46.5298 43.6475 45.5783 42.6885 44.4046 42.6885C43.2308 42.6885 42.2793 43.6475 42.2793 44.8305C42.2793 46.0134 43.2308 46.9724 44.4046 46.9724Z" fill="#174276"/>
<path d="M32.1897 52.9368C33.3635 52.9368 34.315 51.9778 34.315 50.7948C34.315 49.6118 33.3635 48.6528 32.1897 48.6528C31.016 48.6528 30.0645 49.6118 30.0645 50.7948C30.0645 51.9778 31.016 52.9368 32.1897 52.9368Z" fill="#174276"/>
<path d="M38.2971 52.9368C39.4709 52.9368 40.4224 51.9778 40.4224 50.7948C40.4224 49.6118 39.4709 48.6528 38.2971 48.6528C37.1234 48.6528 36.1719 49.6118 36.1719 50.7948C36.1719 51.9778 37.1234 52.9368 38.2971 52.9368Z" fill="#174276"/>
<path d="M44.4046 52.9368C45.5783 52.9368 46.5298 51.9778 46.5298 50.7948C46.5298 49.6118 45.5783 48.6528 44.4046 48.6528C43.2308 48.6528 42.2793 49.6118 42.2793 50.7948C42.2793 51.9778 43.2308 52.9368 44.4046 52.9368Z" fill="#174276"/>
<path d="M50.3694 41.0071C51.5431 41.0071 52.4947 40.0481 52.4947 38.8651C52.4947 37.6821 51.5431 36.7231 50.3694 36.7231C49.1957 36.7231 48.2441 37.6821 48.2441 38.8651C48.2441 40.0481 49.1957 41.0071 50.3694 41.0071Z" fill="#174276"/>
<path d="M50.3694 46.9724C51.5431 46.9724 52.4947 46.0134 52.4947 44.8305C52.4947 43.6475 51.5431 42.6885 50.3694 42.6885C49.1957 42.6885 48.2441 43.6475 48.2441 44.8305C48.2441 46.0134 49.1957 46.9724 50.3694 46.9724Z" fill="#174276"/>
<path d="M50.3694 52.9368C51.5431 52.9368 52.4947 51.9778 52.4947 50.7948C52.4947 49.6118 51.5431 48.6528 50.3694 48.6528C49.1957 48.6528 48.2441 49.6118 48.2441 50.7948C48.2441 51.9778 49.1957 52.9368 50.3694 52.9368Z" fill="#174276"/>
<defs>
<filter id="filter0_d_736_2538" x="0" y="0.402344" width="82" height="82" filterUnits="userSpaceOnUse" color-interpolation-filters="sRGB">
<feFlood flood-opacity="0" result="BackgroundImageFix"/>
<feColorMatrix in="SourceAlpha" type="matrix" values="0 0 0 0 0 0 0 0 0 0 0 0 0 0 0 0 0 0 127 0" result="hardAlpha"/>
<feMorphology radius="2" operator="dilate" in="SourceAlpha" result="effect1_dropShadow_736_2538"/>
<feOffset dy="1"/>
<feGaussianBlur stdDeviation="2"/>
<feColorMatrix type="matrix" values="0 0 0 0 0.658333 0 0 0 0 0.658333 0 0 0 0 0.658333 0 0 0 0.25 0"/>
<feBlend mode="normal" in2="BackgroundImageFix" result="effect1_dropShadow_736_2538"/>
<feBlend mode="normal" in="SourceGraphic" in2="effect1_dropShadow_736_2538" result="shape"/>
</filter>
</defs>
</svg>
